<svg xmlns="http://www.w3.org/2000/svg" width="2.9in" height="1.5in" viewBox="0 0 208.9 104.4"><title>Batterupbakery</title><g id="ASSETS"><path d="M10.8,43,8.6,41.8c-2.4-1.8-3.8-4.1-3-5.2s3.4-.5,5.8,1.3a9.6,9.6,0,0,1,2.5,2.4" fill="#aaa"/></g><g id="FINAL"><circle cx="60.9" cy="63.2" r="37.2" fill="#3d3d3d"/><path d="M49.3,42.1C39,69.9,5.8,58.4,5.8,58.4c11,0,13.5-11.3,14.1-15.8a19.1,19.1,0,0,1,1.5-5.8C27.2,23.1,41.1,26,41.1,26v-.2A22.2,22.2,0,0,1,52,7.1c16.9-9.7,30,3.6,30,3.6C94.1,21.6,63.2,26.3,63.2,26.3c-11.5,1.4-15.3,7.3-15.3,7.3Z" fill="#b6b6b6"/><path d="M52.7,58.2s-19.5,4-21.8,27A34.2,34.2,0,0,0,53.2,99.6a37.7,37.7,0,0,0,38.1-15S89.4,66.4,70.1,62.3" fill="#696969"/><path d="M82.4,19.4c3.2,1.8,3.6,12.1,3.5,17a22.1,22.1,0,0,1-.5,5.1C83,51.6,79.3,55.5,77.2,57a4.8,4.8,0,0,1-3.1.8c-10.1-.6-19.8-7.9-19.8-7.9-5.3-3.4-7.1-12-7.1-12l-.8,1.3c-1.1,1.8-2.6.3-3.6-1.1a8.3,8.3,0,0,1-1.3-3.2,5.4,5.4,0,0,1,0-2.2,2.9,2.9,0,0,1,3-2.3,2.2,2.2,0,0,1,1.9,1.7s.4.9,1,.2l.8-1.2a38.1,38.1,0,0,1,14.1-5.2S75.2,24,78.9,21.4Z" fill="#e1e1e1"/><path d="M75.9,31.1a17.7,17.7,0,0,0,.4,5.2,18.3,18.3,0,0,0,.8,2.5,9.5,9.5,0,0,0,1.5,2l.9,1a1.9,1.9,0,0,1,.6,1.5,3,3,0,0,1-1.9,2.4,2.6,2.6,0,0,1-1.5,0l-.7-.3-.5-.4a3.6,3.6,0,0,0-2.5-.2,3.2,3.2,0,0,1,2.7-.2l.6.3.6.2a2.3,2.3,0,0,0,1.1-.2,2.1,2.1,0,0,0,1.2-1.6,1.8,1.8,0,0,0-.4-.9l-1-.9a7.5,7.5,0,0,1-1.5-2.4,11.2,11.2,0,0,1-.8-2.6A14,14,0,0,1,75.9,31.1Z" fill="silver"/><path d="M9.9,45.9c-.3-1.8-.5-7.2,6.2-6.8l.8.2L46.5,60.2s-9.8.9-7.8,9.3L10.4,46.9A1.4,1.4,0,0,1,9.9,45.9Z" fill="silver"/><path d="M71,51.1s3.1-3.3,5.3-1.8a3.5,3.5,0,0,1,3.9-.7s-1.7,2.2-2.6,2.2S75.6,57.8,71,51.1Z" fill="#696969"/><ellipse cx="43.7" cy="65.5" rx="6.4" ry="4.6" transform="translate(-31.1 40.8) rotate(-38)" fill="#aaa"/><path d="M77.9,33.2a4.4,4.4,0,0,0,4.4,4.1l2.7-3,.8-3V29.6A2.1,2.1,0,0,0,83.3,28S80.3,29,77.9,33.2Z" fill="#fff"/><path d="M73,54.9a3.6,3.6,0,0,0,2,.3l1-.2,1-.4a2.3,2.3,0,0,1-.8.9,2.2,2.2,0,0,1-1.1.5A2.2,2.2,0,0,1,73,54.9Z" fill="#ccc"/><path d="M57.1,31.9s-1.9,2.6-.4,4.8,6.8,3.8,6.8,3.8,3.1.5,5.4-4.5c0,0-2.2-3.5-4.2-3.9C64.7,32.1,58.1,31,57.1,31.9Z" fill="#fff"/><ellipse cx="64.7" cy="36.5" rx="2.8" ry="3.1" fill="#cbcbcb"/><ellipse cx="81.6" cy="33.4" rx="2.4" ry="2.9" transform="translate(-4.8 15.7) rotate(-10.7)" fill="#cbcbcb"/><path d="M84.8,91.3c-2.2-1.8-8.6-7.2-8.8-8.1l-8.8-9.6-6.3-7.2s-4.5-1.9-8.6-.3c0,0-7.7,3.3-5.1,8,0,0,3,3.5,4.5,3.5a5.6,5.6,0,0,0,4,2.1l3.6-2.5-.5-1.7-.6-1.1s1.2-1.6,2.5-.6S71.3,90.1,77.6,96.4A40.5,40.5,0,0,0,83,93.1a10.7,10.7,0,0,0,1.7-1.5" fill="#e1e1e1"/><path d="M77.3,35.4a7.9,7.9,0,0,1,1-4.2A7.6,7.6,0,0,1,81.5,28a8.3,8.3,0,0,1,4.3-1,6.6,6.6,0,0,0,3.9-.9,5.1,5.1,0,0,1-3.8,2.1,9.4,9.4,0,0,0-3.7,1.1,8.8,8.8,0,0,0-2.9,2.5A15.8,15.8,0,0,0,77.3,35.4Z" fill="#555"/><path d="M69.6,37.6a9.4,9.4,0,0,0-3-3.8A9,9,0,0,0,62.2,32a10.4,10.4,0,0,0-4.6.5,8.2,8.2,0,0,1-2.7.6,4.7,4.7,0,0,1-2.8-1.2l1.3-.7a11.2,11.2,0,0,0,1.8,3.4A14.8,14.8,0,0,0,58,37.4a21.2,21.2,0,0,0,3.6,2.1l1.9.8,2,.6-2.1-.3-2.1-.5a10.4,10.4,0,0,1-2-.8,6.9,6.9,0,0,1-1.9-1,13,13,0,0,1-3.3-2.9,10.7,10.7,0,0,1-2.2-3.9l-.8-2.7,2.1,2c.9,1,2.4,1,3.9.4a9.6,9.6,0,0,1,5.3-.4,8.2,8.2,0,0,1,4.7,2.4A8.9,8.9,0,0,1,69.6,37.6Z" fill="#555"/><path d="M85.5,28.5a7.3,7.3,0,0,1,.5,3,8.2,8.2,0,0,1-.7,3,5.7,5.7,0,0,1-.8,1.3A13.1,13.1,0,0,1,83.4,37a6.1,6.1,0,0,1-2.7,1.3l2.2-1.9a11.4,11.4,0,0,0,1.5-2.3A14.7,14.7,0,0,0,85.5,28.5Z" fill="#545454"/><path d="M57.7,75.3s1.2-3.2,3.3-1.2c0,0,11.9,18,16.4,22.4" fill="none" stroke="silver" stroke-linecap="round" stroke-linejoin="round"/><path d="M44.2,96.1l8.9-15.4,2.6-13.8a2.8,2.8,0,0,0-1-2.4c-3.7-3.7-7.2-2.3-8.6-1.1a10.9,10.9,0,0,1-1.7,1.3c-1.3.9-3.4,3.5-1.6,11.5,0,0,.2,3.5-5.5,15.9A24,24,0,0,0,44,96.5" fill="#e1e1e1"/><path d="M85.3,28.1a4.6,4.6,0,0,0,1.3-2.8c-.3,1-2.1,1.9-2.1,1.9Z" fill="#545454"/><path d="M37.3,92.1c5.7-12.5,6-15.8,6-15.8-1.8-8.1-.4-10.7.9-11.5l1.7-1.4c1.5-1.2,5-2.6,8.7,1.1" fill="none" stroke="silver" stroke-linecap="round" stroke-linejoin="round"/><path d="M83.2,28.5a4.8,4.8,0,0,0,.6-3.1c-.1,1-1.7,2.3-1.7,2.3Z" fill="#545454"/><path d="M56.9,32.7a4.9,4.9,0,0,1-2-3.1c.6,1.1,2.9,1.8,2.9,1.8Z" fill="#545454"/><path d="M59.3,31.8A5.2,5.2,0,0,1,57.5,29c.5,1,2.4,1.7,2.4,1.7Z" fill="#545454"/><path d="M51.6,77.7c-5.8-2.4-5.6-5.5-3.9-7.9A10,10,0,0,1,56,65.5a8.4,8.4,0,0,1,3.5.5,4.9,4.9,0,0,1,2.1,1.4c3.2,3.7,19,21.9,23.1,24.2" fill="none" stroke="silver" stroke-linecap="round" stroke-linejoin="round"/><path d="M56.3,47.4c.7,8.1-2.9,10.9-2.9,10.9s-.3.2-.3.4c.3,2.2,1.9,12.5,11.4,11.8,0,0,5.1-.4,5.8-7.7,0,0-2.9-2-1.2-8.2Z" fill="#e1e1e1"/><path d="M50.6,75.2s1.1,3.9,3.8,4.6a2.2,2.2,0,0,0,1.4-.2,19.2,19.2,0,0,0,2.9-1.8,1.5,1.5,0,0,0-1-2.5,2.6,2.6,0,0,0-2.9,2.6" fill="none" stroke="silver" stroke-linecap="round" stroke-linejoin="round"/><line x1="53.7" y1="79.5" x2="44" y2="96.3" fill="none" stroke="silver" stroke-linecap="round" stroke-linejoin="round"/><path d="M69.1,50.5a7,7,0,0,0,2.5.6" fill="none" stroke="#696969" stroke-linecap="round" stroke-linejoin="round" stroke-width="0.75"/><path d="M56.3,51.3s4.7,8.1,12.6,8.8c0,0-.6-2.7,0-3.3S59,54,56.3,51.3Z" fill="silver"/><circle cx="65.1" cy="36.4" r="1.1"/><circle cx="65.8" cy="35.3" r="0.7" fill="#fff"/><circle cx="81.4" cy="33.4" r="1.1"/><circle cx="82.2" cy="32.3" r="0.7" fill="#fff"/><path d="M120.7,63.3a12.8,12.8,0,0,1-10.2,4.6c-5.9.2-1.3-23.4-2.2-26.7,0,0,6.3-1.4,5.8,4.6-.1.9-.1,1.9-.2,3,1.1-2.3,2.7-4.4,4.9-4.2s2,6-1.4,10.1l1.7-.2C124.1,54.5,123.8,59.5,120.7,63.3Zm0-5c-.1-2.8-4.9-1.5-7.3.5-.1,3.7.1,6.7.7,7.1S120.8,63.1,120.7,58.3Zm-7.2-2.4v.3c3.8-2.7,6.2-10,4.2-10.2S113.8,54.3,113.5,55.9Z" fill="#696969"/><path d="M144,55.3s-3.2,11-9.9,11c-2.6,0-3-2.8-2.8-5.9a5.2,5.2,0,0,1-4.8,1.8c-3.4-.6-2.6-5.1.2-6.8a8.2,8.2,0,0,1,5.3-1,5.1,5.1,0,0,0-.1-2.2s5.6-1.2,5.2,4.2-.1,8.4,1.9,6.1a18.6,18.6,0,0,0,3.9-7.2ZM131.6,58c.1-.7.1-1.3.2-1.9s-4,.2-4,2.5S130.2,59.5,131.6,58Z" fill="#696969"/><path d="M164.3,56.4s-3.6,13.2-10.7,13.2c-1.5-.1-2.2-2.1-2.5-5.1-1.7,2-3.8,3.6-6.2,3.4s-2.9-8.7-2.6-16.2h-3.6V50.8h2l1.3-.2h.5V50c0-.2.1-1.1.1-1.5a53.2,53.2,0,0,0,.2-7.5s5.6-1.3,5.1,4.1c0,.8-.1,1.8-.2,2.9v1.8h3.7a39.4,39.4,0,0,0,.1-6.8s5.6-1.2,5.2,4.2c-.1.6-.1,1.4-.2,2.2h3.3v1.1h-.9l-1,.2-1.4.2h-.1a1.7,1.7,0,0,0-.1.7c-.1,1.8-.1,3.7-.2,5.7.1,5.7,0,10.3,2.6,8.2s4.9-9.4,4.9-9.4Zm-13.1-5.3-1.9.2h-1.8c-.1,1.2-.1,2.6-.1,3.8,0,5.8-.3,11.1,2.2,9a10.3,10.3,0,0,0,1.4-1.5,102.3,102.3,0,0,1,.2-11Z" fill="#696969"/><path d="M175.3,56.5c-5.6,10.3-16.5,13.3-14.9,3.5a6.6,6.6,0,0,1,8-5.7c1.3.4,2.5,2.1,1.1,4.4s-3.1,1.8-4.3,1.8c-.9,7.9,8.3-2.1,9.4-4.5Zm-10,3.1c2.2.2,3-.9,3.3-1.5s.5-1.9-.8-2S166,56,165.3,59.6Z" fill="#696969"/><path d="M188.3,56.9c-.2.8-3.2,14.1-9.6,13.9-4.3-.2-2-9.4-1.5-14.1-7.3-.2-4.5-2.9-5.2-5.2,0,0,4.7-2,4.4,2.1-.1.9,1.4.9,1.4.9s4.9.1,4.4,4.4-1.6,10.9,1,8.1,4.1-10.5,4.1-10.5S188.6,56.2,188.3,56.9Z" fill="#696969"/><path d="M139.4,71.5h4.5c3.1,0,5.3,1,5.3,3.7a3.3,3.3,0,0,1-2.2,3.3h0a3.6,3.6,0,0,1,3.1,3.7c0,3-2.4,4.5-5.8,4.5h-4.9Zm4.2,6.5c2.6,0,3.7-1,3.7-2.5s-1.2-2.5-3.6-2.5h-2.4v5Zm.4,7.2c2.6,0,4.2-.9,4.2-3s-1.5-2.7-4.2-2.7h-2.7v5.7Z" fill="#696969"/><path d="M152.2,83.8c0-2.4,2.2-3.7,7-4.2,0-1.5-.5-2.9-2.3-2.9a6.1,6.1,0,0,0-3.4,1.3l-.8-1.4a9.6,9.6,0,0,1,4.5-1.4c2.7,0,3.9,1.8,3.9,4.6v7h-1.6V85.4h-.1a6,6,0,0,1-3.8,1.7A3.1,3.1,0,0,1,152.2,83.8Zm7,.2V80.9c-3.8.4-5.1,1.4-5.1,2.8s.9,1.8,2,1.8A4.5,4.5,0,0,0,159.2,84Z" fill="#696969"/><path d="M164.7,70.2h1.9V81.4h0l4.9-6h2.1L169.8,80l4.3,6.8H172l-3.3-5.5-2.1,2.5v3h-1.9Z" fill="#696969"/><path d="M175,81.1c0-3.7,2.5-5.9,5.1-5.9s4.5,2,4.5,5.3a3.7,3.7,0,0,1-.1,1.1h-7.6c.1,2.4,1.6,3.9,3.7,3.9a5,5,0,0,0,2.9-.9l.7,1.3a7.1,7.1,0,0,1-3.8,1.2C177.4,87.1,175,84.8,175,81.1Zm7.9-.9c0-2.3-1-3.5-2.8-3.5s-3,1.3-3.2,3.5Z" fill="#696969"/><path d="M187.4,75.4H189v2.1h.1a4,4,0,0,1,3.2-2.3,2.2,2.2,0,0,1,1.2.2l-.3,1.7-1.1-.2c-1,0-2.1.7-2.9,2.6v7.3h-1.9Z" fill="#696969"/><path d="M194.9,91.4l.4-1.5.9.2c1.3,0,2.1-1.1,2.5-2.5l.3-.8-4.6-11.4h2l2.3,6.3c.4,1,.8,2.2,1.1,3.2h.1c.4-1,.7-2.2,1-3.2l2-6.3h1.9l-4.3,12.3c-.8,2.3-2,4-4.2,4A2.9,2.9,0,0,1,194.9,91.4Z" fill="#696969"/><path d="M109.2,80.4V73.2h1.9v6.9c0,2.1.7,3,2.2,3s1.9-.5,3-1.9v-8h1.9V84.5h-1.6V82.7h-.1a4.6,4.6,0,0,1-3.7,2.1C110.3,84.8,109.2,83.3,109.2,80.4Z" fill="#696969"/><path d="M122,73.2h1.6l.2,1.3h.1a5.7,5.7,0,0,1,3.6-1.6c2.9,0,4.5,2.3,4.5,5.8s-2.4,6.1-4.9,6.1a5.5,5.5,0,0,1-3.2-1.3v5.8h-2Zm8,5.5c0-2.5-.9-4.2-3-4.2a4.3,4.3,0,0,0-3,1.6V82a4.2,4.2,0,0,0,2.7,1.2C128.6,83.2,130,81.5,130,78.7Z" fill="#696969"/><path d="M128.3,44.4s-4.1,2.6-3.4-.3a2.6,2.6,0,0,1,.7-1.5l1.5-2.3s-2.2.8-2.8-.6a1.4,1.4,0,0,1,.6-1.7c1.5-1,5.1-3.9,4.7-8.5a3.8,3.8,0,0,1,1.5,4.5s3.6-2.1,3.5.3l-.2,2a9.9,9.9,0,0,1,3.3-1.2.9.9,0,0,1,.8,1.3c-.7,1.6-2.5,5.1-3.2,5S128.3,44.4,128.3,44.4Z" fill="#cbcbcb" stroke="#cbcbcb" stroke-linecap="round" stroke-linejoin="round"/><polygon points="127.6 45.2 131.5 48.2 137.9 44.7 138.2 39 127.6 45.2" fill="#393939"/><path d="M129.6,29.5s-.8,5.5-4.7,8.5h2.9l2.8-5.3" fill="#cbcbcb" stroke="#cbcbcb" stroke-linecap="round" stroke-linejoin="round"/><line x1="144.1" y1="30.1" x2="147.3" y2="33.3" fill="none" stroke="#cbcbcb" stroke-linecap="round" stroke-linejoin="round"/><line x1="189.4" y1="32.8" x2="185.4" y2="34.7" fill="none" stroke="#cbcbcb" stroke-linecap="round" stroke-linejoin="round"/><line x1="175.9" y1="35.6" x2="180.2" y2="36.6" fill="none" stroke="#b6b6b6" stroke-linecap="round" stroke-linejoin="round"/><line x1="153.5" y1="29.3" x2="155.8" y2="25.6" fill="none" stroke="#696969" stroke-linecap="round" stroke-linejoin="round"/><line x1="167.6" y1="39.1" x2="170.9" y2="42" fill="none" stroke="#696969" stroke-linecap="round" stroke-linejoin="round"/><line x1="134.9" y1="38.3" x2="131.3" y2="36.7" fill="none" stroke="#b6b6b6" stroke-linecap="round" stroke-linejoin="round"/><line x1="155.5" y1="34.3" x2="158.6" y2="37.5" fill="none" stroke="#b6b6b6" stroke-linecap="round" stroke-linejoin="round"/><line x1="128.7" y1="36.5" x2="128.8" y2="40.7" fill="none" stroke="#696969" stroke-linecap="round" stroke-linejoin="round"/><line x1="165.5" y1="32.7" x2="169.7" y2="31.3" fill="none" stroke="#cbcbcb" stroke-linecap="round" stroke-linejoin="round"/></g></svg>