<?xml version="1.0" encoding="utf-8"?>
<!-- Generator: Adobe Illustrator 22.1.0, SVG Export Plug-In . SVG Version: 6.00 Build 0)  -->
<svg version="1.1" id="Layer_1" xmlns="http://www.w3.org/2000/svg" xmlns:xlink="http://www.w3.org/1999/xlink" x="0px" y="0px"
	 viewBox="0 0 412.4 236.2" style="enable-background:new 0 0 412.4 236.2;" xml:space="preserve">
<style type="text/css">
	.st0{fill:#CCA285;}
	.st1{fill:#683E92;}
	.st2{fill:#F6B24F;}
	.st3{fill:#ED257A;}
	.st4{fill:#FCDAC6;}
	.st5{fill:#F2B692;}
	.st6{fill:#E0B899;}
	.st7{fill:#FFFFFF;}
	.st8{fill:#E0C2B8;}
	.st9{fill:#49C4D5;}
	.st10{fill:#9B6C4D;}
	.st11{fill:#9B6C4C;}
	.st12{fill:none;stroke:#F2B692;stroke-linecap:round;stroke-linejoin:round;}
	.st13{fill:none;stroke:#ED257A;stroke-width:0.75;stroke-linecap:round;stroke-linejoin:round;}
	.st14{fill:#F3B692;}
	.st15{fill:#211E1F;}
	.st16{fill:#49C4D5;stroke:#49C4D5;stroke-linecap:round;stroke-linejoin:round;}
	.st17{fill:#693990;}
	.st18{fill:none;stroke:#4DC4D3;stroke-width:2;stroke-linecap:round;stroke-linejoin:round;}
	.st19{fill:none;stroke:#F6B24F;stroke-width:2;stroke-linecap:round;stroke-linejoin:round;}
	.st20{fill:none;stroke:#ED257A;stroke-width:2;stroke-linecap:round;stroke-linejoin:round;}
</style>
<title>Batterupbakery</title>
<g id="ASSETS">
	<path class="st0" d="M11.2,100c-1.6-0.7-3.1-1.5-4.5-2.5c-5.2-3.7-7.9-8.5-6.2-10.8c1.7-2.3,7-1,12,2.7c1.9,1.4,3.7,3.1,5.2,5"/>
</g>
<g id="FINAL">
	<circle class="st1" cx="114.8" cy="141.8" r="76.9"/>
	<path class="st2" d="M90.6,98.2c-21.1,57.5-89.7,33.9-89.7,33.9c22.7,0,27.9-23.4,29-32.9c0.5-4.1,1.6-8.1,3.1-12
		c12.2-28.3,40.9-22.1,40.9-22.1v-0.6c0.1-16,8.7-30.7,22.5-38.7c34.9-20.1,62,7.4,62,7.4c25,22.7-38.9,32.3-38.9,32.3
		c-23.8,2.9-31.8,15.1-31.8,15.1L90.6,98.2z"/>
	<path class="st3" d="M97.7,131.5c0,0-40.3,8.3-44.9,55.8c10.7,15.7,27.4,26.5,46.1,29.8c30.1,6.1,60.9-6.1,78.8-31
		c0,0-3.9-37.6-44-46.1"/>
	<path class="st4" d="M159.3,51.2c6.6,3.7,7.2,25,7.2,35.2c0,3.6-0.4,7.1-1.2,10.5c-4.8,20.9-12.4,29-17,32.1
		c-1.9,1.3-4.1,1.9-6.4,1.7c-20.7-1.2-40.7-16.3-40.7-16.3c-11-7-14.9-24.8-14.9-24.8l-1.4,2.7c-2.5,3.7-5.6,0.6-7.4-2.1
		c-1.4-2-2.3-4.2-2.7-6.6c-0.4-1.6-0.4-3.2,0-4.8c0.6-2.9,3.2-4.9,6.2-4.8c1.9,0.2,3.5,1.6,3.9,3.5c0,0,0.8,1.9,2.1,0.6l1.4-2.7
		c9-5.5,19-9.2,29.4-10.8c0,0,26.5-3.9,34.3-9.3L159.3,51.2z"/>
	<path class="st5" d="M145.9,75.4c-0.2,3.7,0,7.4,0.8,11c0.4,1.7,0.9,3.4,1.7,5c0.7,1.5,1.7,2.9,2.9,4.1l2.1,2.1
		c0.7,0.9,1.2,2,1.2,3.1c-0.2,2.3-1.8,4.2-3.9,5c-1,0.3-2.1,0.3-3.1,0l-1.4-0.6c-0.4-0.4-0.6-0.6-1-0.6c-1.6-0.9-3.4-1.1-5.2-0.6
		c1.6-1,3.6-1.1,5.4-0.4l1.4,0.6l1,0.4c0.8,0.1,1.6-0.1,2.3-0.4c1.4-0.5,2.4-1.8,2.5-3.3c0-0.7-0.3-1.4-0.8-1.9l-1.9-1.9
		c-1.3-1.4-2.4-3-3.3-4.8c-0.7-1.8-1.2-3.7-1.4-5.6C144.6,82.8,144.9,79,145.9,75.4z"/>
	<path class="st6" d="M9.4,106.2c-0.6-3.9-1-15.1,12.8-14.3l1.7,0.4l61.2,43.2c0,0-20.5,1.9-16.3,19.2l-58.3-46.7
		C9.8,107.6,9.5,107,9.4,106.2z"/>
	<path class="st3" d="M135.7,116.8c0,0,6.4-6.8,11-3.7c2.1-2.1,5.3-2.7,8.1-1.4c0,0-3.7,4.5-5.6,4.5S145.2,130.6,135.7,116.8z"/>
	<ellipse transform="matrix(0.788 -0.6157 0.6157 0.788 -73.3437 79.8626)" class="st0" cx="79.3" cy="146.4" rx="13.2" ry="9.5"/>
	<path class="st7" d="M150,79.8c0.3,4.8,4.3,8.6,9.1,8.7l5.6-6.4l1.7-6.2v-3.5c-0.6-2.3-2.9-3.7-5.2-3.3
		C156.3,71.2,152.4,75,150,79.8z"/>
	<path class="st8" d="M139.9,124.6c1.3,0.6,2.7,0.8,4.1,0.6l1.9-0.4l2.1-0.8c-0.3,0.7-0.8,1.4-1.4,1.9c-0.6,0.6-1.4,0.9-2.3,1
		C142.4,127.1,140.7,126.2,139.9,124.6z"/>
	<path class="st7" d="M107,77.3c0,0-3.9,5.2-0.8,9.7c3.1,4.5,14.1,7.9,14.1,7.9s6.4,1,11-9.3c0,0-4.5-7.2-8.5-8.1
		C122.7,77.5,108.8,75.2,107,77.3z"/>
	<ellipse class="st9" cx="122.7" cy="86.6" rx="5.8" ry="6.4"/>
	<ellipse transform="matrix(0.9826 -0.1857 0.1857 0.9826 -12.1209 30.6733)" class="st9" cx="157.7" cy="80.1" rx="5" ry="6"/>
	<path class="st4" d="M164.3,199.9c-4.5-3.7-17.8-14.7-18.4-16.8l-18-19.9l-13.2-14.9c0,0-9.3-3.7-17.6-0.6c0,0-16.1,6.8-10.5,16.8
		c0,0,6.2,7,9.3,7c2,2.5,4.9,4.1,8.1,4.3l7.4-5.2l-1-3.3l-1-2.5c0,0,2.5-3.3,5-1.2s21.9,33.7,35.2,46.7c3.8-1.9,7.5-4.2,11-6.8
		c1.3-1,2.6-2,3.7-3.1"/>
	<path class="st10" d="M148.5,84.3c0-3,0.7-6,2.1-8.7c1.6-2.7,3.9-5,6.6-6.6c2.8-1.4,5.9-2.1,9.1-2.1c2.8,0.3,5.7-0.4,8.1-1.9
		c-1.8,2.5-4.7,4.1-7.9,4.3c-2.7,0.3-5.4,1.1-7.9,2.3c-2.3,1.3-4.4,3.1-6,5.2C151.1,79.2,149.7,81.7,148.5,84.3z"/>
	<path class="st10" d="M132.8,88.9c-1.4-3.1-3.5-5.8-6.2-7.9c-2.6-2-5.8-3.3-9.1-3.7c-3.2-0.4-6.5,0-9.5,1c-1.8,0.7-3.8,1.2-5.8,1.2
		c-2.1-0.2-4.1-1-5.6-2.5l2.5-1.4c0.8,2.6,2,4.9,3.7,7c1.7,2.2,3.7,4.2,6,5.8c2.3,1.6,4.7,3.1,7.2,4.3l4.1,1.7l4.1,1.2l-4.3-0.6
		l-4.3-1l-4.1-1.4c-1.4-0.6-2.7-1.4-3.9-2.3c-2.7-1.5-5-3.5-6.8-6c-2.2-2.3-3.8-5-4.5-8.1l-1.7-5.6l4.1,4.1c2.1,2.1,5.2,2.1,8.3,0.8
		c3.5-1.2,7.3-1.5,11-0.8c3.7,0.6,7.1,2.3,9.7,5C130.2,82.3,131.9,85.4,132.8,88.9z"/>
	<path class="st11" d="M165.7,70c0.8,2,1.1,4.1,1,6.2c-0.2,2.1-0.7,4.2-1.4,6.2l-1.7,2.9c-0.8,0.6-1.4,1.7-2.3,2.3
		c-1.7,1.4-3.7,2.3-5.8,2.7c1.7-1.1,3.2-2.5,4.5-3.9c1.4-1.3,2.4-3,3.1-4.8C164.8,78,165.6,74,165.7,70z"/>
	<path class="st12" d="M108.2,166.8c0,0,2.5-6.6,6.8-2.3c0,0,24.6,37.2,33.9,46.1"/>
	<path class="st4" d="M80.3,209.8L98.5,178l5.6-28.5c0.2-1.9-0.6-3.7-2.1-5c-7.7-7.7-14.9-4.8-17.8-2.3c-1.1,1.1-2.4,2-3.7,2.9
		c-2.5,1.7-6.8,7-3.1,23.6c0,0,0.2,7.2-11.4,32.9c4,3.8,8.6,6.8,13.6,9.1"/>
	<path class="st11" d="M165.3,69.2c1.6-1.5,2.5-3.6,2.7-5.8c-0.8,2.1-4.3,3.9-4.3,3.9L165.3,69.2z"/>
	<path class="st12" d="M66,201.6c11.8-25.8,12.2-32.7,12.2-32.7c-3.5-16.8-0.6-22.1,1.9-23.8c1.3-0.8,2.6-1.8,3.7-2.9
		c2.9-2.5,10.1-5.4,17.8,2.3"/>
	<path class="st11" d="M160.7,70c1.2-1.9,1.8-4.2,1.4-6.4c-0.8,1.8-2,3.5-3.5,4.8L160.7,70z"/>
	<path class="st11" d="M106.4,78.7c-2.1-1.6-3.6-3.8-4.1-6.4c1.2,2.3,6.2,3.7,6.2,3.7L106.4,78.7z"/>
	<path class="st11" d="M111.5,76.9c-1.9-1.5-3.2-3.5-3.9-5.8c1.4,1.6,3.2,2.9,5.2,3.7L111.5,76.9z"/>
	<path class="st12" d="M95.4,171.8c-11.8-5-11.4-11.4-8.1-16.3c4-5.6,10.5-8.9,17.4-8.9c2.5-0.2,4.9,0.2,7.2,1
		c1.6,0.5,3.1,1.5,4.1,2.9c6.6,7.7,39.5,45.3,48,50"/>
	<path class="st4" d="M105.3,109.1c1.4,17-6,22.5-6,22.5s-0.6,0.4-0.6,0.8c0.4,4.5,3.7,25.8,23.4,24.4c0,0,10.5-0.8,12-15.9
		c0,0-5.8-4.1-2.5-17L105.3,109.1z"/>
	<path class="st12" d="M93.5,166.6c0,0,2.3,8.1,7.7,9.5c1,0.3,2.2,0.1,3.1-0.4c2.1-1,4-2.2,5.8-3.7c1.3-1,1.5-2.8,0.5-4.1
		c-0.6-0.7-1.4-1.1-2.3-1.1c-3.1-0.3-5.8,1.9-6.2,4.9c0,0.1,0,0.3,0,0.5"/>
	<line class="st12" x1="99.7" y1="175.5" x2="79.9" y2="210.2"/>
	<path class="st13" d="M131.6,115.5c1.7,0.8,3.5,1.3,5.4,1.4"/>
	<path class="st14" d="M105.3,117.2c0,0,9.5,16.8,25.8,18.2c0,0-1.2-5.6,0-6.8C132.4,127.3,110.9,122.8,105.3,117.2z"/>
	<circle class="st15" cx="123.3" cy="86.6" r="2.3"/>
	<circle class="st7" cx="125" cy="84.1" r="1.4"/>
	<circle class="st15" cx="157.2" cy="80.2" r="2.3"/>
	<circle class="st7" cx="158.7" cy="77.9" r="1.4"/>
	<path class="st3" d="M238.5,142c-5.3,6.3-13.1,9.8-21.3,9.5c-12,0.4-2.5-48.4-4.3-55.2c0,0,13-2.9,12,9.5c-0.3,2.1-0.4,4.3-0.4,6.4
		c2.1-5,5.6-9.3,10.1-8.7c4.5,0.6,4.1,12.2-2.9,20.7l3.5-0.4C245.5,123.8,244.9,134.1,238.5,142z M238.5,131.7
		c-0.4-5.8-10.1-3.1-15.1,1c-0.2,7.7,0.2,13.9,1.4,14.7C226.1,148.2,238.7,141.6,238.5,131.7z M223.6,126.7v0.6
		c7.9-5.6,12.6-20.7,8.5-21.1C228,105.8,224.2,123.4,223.6,126.7z"/>
	<path class="st3" d="M286.7,125.5c0,0-6.6,22.7-20.7,22.7c-5.4,0-6-5.8-5.6-12.2c-2.4,2.9-6.2,4.3-9.9,3.7
		c-7-1.2-5.6-10.3,0.4-14.1c3.3-1.9,7.2-2.6,11-2.1c0-1.5,0-3-0.2-4.5c0,0,11.6-2.5,10.5,8.7c-1,11.2-0.2,17.4,4.1,12.6
		c3.8-4.3,6.5-9.4,8.1-14.9H286.7z M261,131c0-1.3,0.2-2.6,0.4-3.9c-2.1,0-8.3,0.4-8.5,5.2C252.8,137,257.9,134.1,261,131z"/>
	<path class="st3" d="M328.7,127.7c0,0-7.4,27.3-22.1,27.3c-3.1-0.2-4.5-4.3-5.4-10.5c-3.3,4.1-7.9,7.4-12.6,7
		c-4.8-0.4-6.2-18-5.4-33.5h-7.4v-1.9h3.9l2.9-0.4h1v-1.2c0-0.4,0.2-2.3,0.2-3.1c0.4-7.7,0.8-13.6,0.2-15.5s11.6-2.7,10.8,8.5
		c-0.2,1.7-0.2,3.7-0.4,6c-0.2,2.3-0.2,2.5-0.2,3.1v0.6h7.9c0.5-4.7,0.5-9.4,0.2-14.1c0,0,11.6-2.5,10.5,8.7c0,1.2-0.2,2.9-0.2,4.5
		h6.8v2.1h-1.9l-2.1,0.4l-2.9,0.4h-0.4v1.4c-0.2,3.7-0.4,7.9-0.4,11.8c0,12,0,21.3,5.2,17c5.2-4.3,10.1-19.4,10.1-19.4L328.7,127.7z
		 M301.6,116.8l-3.9,0.4h-3.7c-0.2,2.7-0.2,5.4-0.2,7.9c0,12-0.8,23,4.5,18.6c1-0.9,1.9-2,2.7-3.1c-0.2-6.8,0-15.3,0.4-22.7
		C301.4,117.5,301.5,117.1,301.6,116.8z"/>
	<path class="st3" d="M351.4,127.9c-11.6,21.5-34.3,27.5-30.8,7.2c0.7-7.4,7.3-12.8,14.7-12.1c0.6,0.1,1.3,0.2,1.9,0.3
		c2.7,1,5.2,4.3,2.1,9.1s-6.2,3.7-8.7,3.7c-1.9,16.3,17-4.3,19.4-9.3L351.4,127.9z M330.7,134.3c2.7,0.5,5.5-0.7,6.8-3.1
		c0.4-1,1-3.9-1.7-4.1S332,126.9,330.7,134.3z"/>
	<path class="st3" d="M378.3,129c-0.6,1.4-6.6,29.2-19.9,28.5c-9.1-0.4-4.1-19.4-3.1-29.2c-15.1-0.4-9.5-6-11-10.8
		c0,0,9.9-4.1,9.3,4.3c-0.2,1.9,2.7,1.9,2.9,1.9c0.2,0,10.1,0.2,9.1,9.3c-1,9.1-3.3,22.3,2.1,16.5s8.5-21.7,8.5-21.7
		S378.9,127.3,378.3,129z"/>
	<path class="st3" d="M277.2,159h9.3c6.4,0,11,2.1,11,7.7c0.1,3.1-1.8,6-4.8,7l0,0c3.8,0.4,6.7,3.8,6.4,7.7c0,6.2-4.8,9.3-12,9.3
		h-9.9V159z M285.9,172.4c5.4,0,7.7-2.1,7.7-5.2s-2.7-5.2-7.4-5.2h-5v10.3H285.9z M286.7,187.3c5.4,0,8.5-1.9,8.5-6.2
		c0-4.3-3.1-5.6-8.5-5.6h-5.6v11.8H286.7z"/>
	<path class="st3" d="M303.6,184.4c0-5,4.3-7.7,14.5-8.7c0-2.9-1-6-5-6c-2.6,0.2-5,1.1-7,2.7l-1.4-2.9c2.7-1.8,5.9-2.8,9.1-2.9
		c5.8,0,8.3,3.7,8.3,9.5v14.5h-3.3l-0.4-2.9l0,0c-2.1,2-4.9,3.3-7.9,3.5c-3.5,0.2-6.6-2.4-6.8-6C303.6,185,303.6,184.7,303.6,184.4z
		 M318.1,184.8v-6.4c-7.9,0.8-10.5,2.9-10.5,5.8s1.7,3.7,4.1,3.7C314.2,187.8,316.5,186.6,318.1,184.8z"/>
	<path class="st3" d="M329.5,156.3h3.9v23.2l0,0l10.1-12.4h4.3l-7.9,9.5l8.9,14.1h-4.3l-6.8-11.4l-4.3,5.2v6.2h-3.9V156.3z"/>
	<path class="st3" d="M350.6,178.8c0-7.7,5.2-12.2,10.5-12.2s9.5,4.1,9.5,11c0,0.8-0.2,1.7-0.2,2.3h-15.9c0.4,5,3.5,8.1,7.9,8.1
		c2.1,0,4.1-0.6,5.8-1.9l1.4,2.7c-2.3,1.5-4.9,2.4-7.7,2.5C355.8,191.2,350.6,186.7,350.6,178.8z M367.1,176.9
		c0-4.8-2.1-7.2-5.8-7.2c-3.7,0-6.2,2.7-6.8,7.2H367.1z"/>
	<path class="st3" d="M376.4,167h3.1l0.4,4.3h0.2c1.2-2.7,3.7-4.5,6.6-4.8c0.8-0.1,1.7,0.1,2.5,0.4l-0.8,3.5l-2.3-0.4
		c-1.9,0-4.3,1.4-5.8,5.4v15.1h-3.9V167z"/>
	<path class="st3" d="M391.9,200.1l0.8-3.1l1.7,0.4c2.7,0,4.3-2.1,5.4-5.2l0.6-1.7l-9.5-23.6h4.1l4.8,13c0.8,2.1,1.4,4.5,2.3,6.6
		h0.2c0.6-2.1,1.2-4.5,2.1-6.6l4.1-13h3.9l-8.9,25.4c-1.7,4.8-4.1,8.3-8.9,8.3C393.7,200.7,392.8,200.5,391.9,200.1z"/>
	<path class="st3" d="M214.7,177.4v-14.9h3.9v14.3c0,4.3,1.2,6.2,4.3,6.2c3.1,0,4.1-1,6.4-3.9v-16.5h3.9v23.4H230l-0.4-3.7l0,0
		c-1.8,2.6-4.7,4.2-7.9,4.3C216.8,186.5,214.7,183.4,214.7,177.4z"/>
	<path class="st3" d="M241.2,162.5h3.3l0.4,2.7l0,0c2-2,4.6-3.1,7.4-3.3c6.2,0,9.3,4.8,9.3,12c0,7.2-4.8,12.6-10.1,12.6
		c-2.4-0.2-4.6-1.1-6.4-2.7v12h-3.9V162.5z M257.7,173.8c0-5.2-1.9-8.7-6.2-8.7c-2.5,0.2-4.8,1.4-6.4,3.3v12.2
		c1.6,1.5,3.6,2.4,5.8,2.5C254.8,183.2,257.7,179.6,257.7,173.8z"/>
	<path class="st16" d="M254.2,102.9c0,0-8.5,5.4-7-0.6c0.2-1.1,0.6-2.2,1.2-3.1l3.3-4.8c0,0-4.8,1.7-6-1.2c-0.3-1.3,0.1-2.7,1.2-3.5
		c3.3-2.1,10.5-8.1,9.7-17.6c3.1,2,4.5,5.8,3.3,9.3c0,0,7.2-4.3,7.2,0.6l-0.6,4.1c2.1-1.2,4.4-2,6.8-2.5c1.1,0,2.1,1,2,2.1
		c0,0.3-0.1,0.5-0.2,0.8c-1.7,3.1-5.2,10.3-6.6,10.1C267.2,96.5,254.2,102.9,254.2,102.9z"/>
	<polygon class="st17" points="252.6,104.6 260.8,110.8 274.1,103.5 274.5,92 	"/>
	<path class="st16" d="M256.7,72.1c0,0-1.4,11.4-9.7,17.6h6.2l5.8-11"/>
	<line class="st18" x1="286.7" y1="77.9" x2="293.3" y2="83.9"/>
	<line class="st18" x1="380.2" y1="78.7" x2="372.3" y2="83.1"/>
	<line class="st19" x1="352.7" y1="85.8" x2="361.8" y2="87.6"/>
	<line class="st20" x1="305.7" y1="75.2" x2="310.3" y2="67.1"/>
	<line class="st20" x1="336.1" y1="93.8" x2="343.1" y2="99.6"/>
	<line class="st19" x1="267.2" y1="90.3" x2="259.8" y2="87"/>
	<line class="st19" x1="310.5" y1="85.3" x2="317.1" y2="91.5"/>
	<line class="st20" x1="254.8" y1="83.7" x2="255" y2="92.4"/>
	<line class="st18" x1="331.1" y1="81" x2="339.4" y2="77.7"/>
</g>
</svg>
