<svg xmlns="http://www.w3.org/2000/svg" id="Layer_1" viewBox="0 0 412.4 236.2" width="412.4" height="236.2"><style>.st0{fill:#cca285}.st1{fill:#683e92}.st2{fill:#f6b24f}.st3{fill:#ed257a}.st4{fill:#fcdac6}.st5{fill:#f2b692}.st6{fill:#e0b899}.st7{fill:#fff}.st8{fill:#e0c2b8}.st9{fill:#49c4d5}.st10{fill:#9b6c4d}.st11{fill:#9b6c4c}.st12,.st13{fill:none;stroke:#f2b692;stroke-linecap:round;stroke-linejoin:round}.st13{stroke:#ed257a;stroke-width:.75}.st14{fill:#f3b692}.st15{fill:#211e1f}.st16{fill:#49c4d5;stroke:#49c4d5;stroke-linecap:round;stroke-linejoin:round}.st17{fill:#693990}.st18{stroke:#4dc4d3}.st18,.st19,.st20{fill:none;stroke-width:2;stroke-linecap:round;stroke-linejoin:round}.st19{stroke:#f6b24f}.st20{stroke:#ed257a}</style><path id="ASSETS" d="M11.2 100c-1.6-.7-3.1-1.5-4.5-2.5C1.5 93.8-1.2 89 .5 86.7c1.7-2.3 7-1 12 2.7 1.9 1.4 3.7 3.1 5.2 5" class="st0"/><g id="FINAL"><circle cx="114.8" cy="141.8" r="76.9" class="st1"/><path d="M90.6 98.2C69.5 155.7.9 132.1.9 132.1c22.7 0 27.9-23.4 29-32.9.5-4.1 1.6-8.1 3.1-12 12.2-28.3 40.9-22.1 40.9-22.1v-.6c.1-16 8.7-30.7 22.5-38.7 34.9-20.1 62 7.4 62 7.4 25 22.7-38.9 32.3-38.9 32.3-23.8 2.9-31.8 15.1-31.8 15.1l2.9 17.6z" class="st2"/><path d="M97.7 131.5s-40.3 8.3-44.9 55.8c10.7 15.7 27.4 26.5 46.1 29.8 30.1 6.1 60.9-6.1 78.8-31 0 0-3.9-37.6-44-46.1" class="st3"/><path d="M159.3 51.2c6.6 3.7 7.2 25 7.2 35.2 0 3.6-.4 7.1-1.2 10.5-4.8 20.9-12.4 29-17 32.1-1.9 1.3-4.1 1.9-6.4 1.7-20.7-1.2-40.7-16.3-40.7-16.3-11-7-14.9-24.8-14.9-24.8l-1.4 2.7c-2.5 3.7-5.6.6-7.4-2.1-1.4-2-2.3-4.2-2.7-6.6-.4-1.6-.4-3.2 0-4.8.6-2.9 3.2-4.9 6.2-4.8 1.9.2 3.5 1.6 3.9 3.5 0 0 .8 1.9 2.1.6l1.4-2.7c9-5.5 19-9.2 29.4-10.8 0 0 26.5-3.9 34.3-9.3l7.2-4.1z" class="st4"/><path d="M145.9 75.4c-.2 3.7 0 7.4.8 11 .4 1.7.9 3.4 1.7 5 .7 1.5 1.7 2.9 2.9 4.1l2.1 2.1c.7.9 1.2 2 1.2 3.1-.2 2.3-1.8 4.2-3.9 5-1 .3-2.1.3-3.1 0l-1.4-.6c-.4-.4-.6-.6-1-.6-1.6-.9-3.4-1.1-5.2-.6 1.6-1 3.6-1.1 5.4-.4l1.4.6 1 .4c.8.1 1.6-.1 2.3-.4 1.4-.5 2.4-1.8 2.5-3.3 0-.7-.3-1.4-.8-1.9l-1.9-1.9c-1.3-1.4-2.4-3-3.3-4.8-.7-1.8-1.2-3.7-1.4-5.6-.6-3.8-.3-7.6.7-11.2z" class="st5"/><path d="M9.4 106.2c-.6-3.9-1-15.1 12.8-14.3l1.7.4 61.2 43.2s-20.5 1.9-16.3 19.2L10.5 108c-.7-.4-1-1-1.1-1.8z" class="st6"/><path d="M135.7 116.8s6.4-6.8 11-3.7c2.1-2.1 5.3-2.7 8.1-1.4 0 0-3.7 4.5-5.6 4.5s-4 14.4-13.5.6z" class="st3"/><ellipse cx="79.3" cy="146.4" class="st0" rx="13.2" ry="9.5" transform="rotate(-38.001 79.293 146.425)"/><path d="M150 79.8c.3 4.8 4.3 8.6 9.1 8.7l5.6-6.4 1.7-6.2v-3.5c-.6-2.3-2.9-3.7-5.2-3.3-4.9 2.1-8.8 5.9-11.2 10.7z" class="st7"/><path d="M139.9 124.6c1.3.6 2.7.8 4.1.6l1.9-.4 2.1-.8c-.3.7-.8 1.4-1.4 1.9-.6.6-1.4.9-2.3 1-1.9.2-3.6-.7-4.4-2.3z" class="st8"/><path d="M107 77.3s-3.9 5.2-.8 9.7c3.1 4.5 14.1 7.9 14.1 7.9s6.4 1 11-9.3c0 0-4.5-7.2-8.5-8.1-.1 0-14-2.3-15.8-.2z" class="st7"/><ellipse cx="122.7" cy="86.6" class="st9" rx="5.8" ry="6.4"/><ellipse cx="157.7" cy="80.1" class="st9" rx="5" ry="6" transform="rotate(-10.704 157.676 80.046)"/><path d="M164.3 199.9c-4.5-3.7-17.8-14.7-18.4-16.8l-18-19.9-13.2-14.9s-9.3-3.7-17.6-.6c0 0-16.1 6.8-10.5 16.8 0 0 6.2 7 9.3 7 2 2.5 4.9 4.1 8.1 4.3l7.4-5.2-1-3.3-1-2.5s2.5-3.3 5-1.2 21.9 33.7 35.2 46.7c3.8-1.9 7.5-4.2 11-6.8 1.3-1 2.6-2 3.7-3.1" class="st4"/><path d="M148.5 84.3c0-3 .7-6 2.1-8.7 1.6-2.7 3.9-5 6.6-6.6 2.8-1.4 5.9-2.1 9.1-2.1 2.8.3 5.7-.4 8.1-1.9-1.8 2.5-4.7 4.1-7.9 4.3-2.7.3-5.4 1.1-7.9 2.3-2.3 1.3-4.4 3.1-6 5.2-1.5 2.4-2.9 4.9-4.1 7.5zm-15.7 4.6c-1.4-3.1-3.5-5.8-6.2-7.9-2.6-2-5.8-3.3-9.1-3.7-3.2-.4-6.5 0-9.5 1-1.8.7-3.8 1.2-5.8 1.2-2.1-.2-4.1-1-5.6-2.5l2.5-1.4c.8 2.6 2 4.9 3.7 7 1.7 2.2 3.7 4.2 6 5.8 2.3 1.6 4.7 3.1 7.2 4.3l4.1 1.7 4.1 1.2-4.3-.6-4.3-1-4.1-1.4c-1.4-.6-2.7-1.4-3.9-2.3-2.7-1.5-5-3.5-6.8-6-2.2-2.3-3.8-5-4.5-8.1l-1.7-5.6 4.1 4.1c2.1 2.1 5.2 2.1 8.3.8 3.5-1.2 7.3-1.5 11-.8 3.7.6 7.1 2.3 9.7 5 2.5 2.6 4.2 5.7 5.1 9.2z" class="st10"/><path d="M165.7 70c.8 2 1.1 4.1 1 6.2-.2 2.1-.7 4.2-1.4 6.2l-1.7 2.9c-.8.6-1.4 1.7-2.3 2.3-1.7 1.4-3.7 2.3-5.8 2.7 1.7-1.1 3.2-2.5 4.5-3.9 1.4-1.3 2.4-3 3.1-4.8 1.7-3.6 2.5-7.6 2.6-11.6z" class="st11"/><path d="M108.2 166.8s2.5-6.6 6.8-2.3c0 0 24.6 37.2 33.9 46.1" class="st12"/><path d="M80.3 209.8L98.5 178l5.6-28.5c.2-1.9-.6-3.7-2.1-5-7.7-7.7-14.9-4.8-17.8-2.3-1.1 1.1-2.4 2-3.7 2.9-2.5 1.7-6.8 7-3.1 23.6 0 0 .2 7.2-11.4 32.9 4 3.8 8.6 6.8 13.6 9.1" class="st4"/><path d="M165.3 69.2c1.6-1.5 2.5-3.6 2.7-5.8-.8 2.1-4.3 3.9-4.3 3.9l1.6 1.9z" class="st11"/><path d="M66 201.6c11.8-25.8 12.2-32.7 12.2-32.7-3.5-16.8-.6-22.1 1.9-23.8 1.3-.8 2.6-1.8 3.7-2.9 2.9-2.5 10.1-5.4 17.8 2.3" class="st12"/><path d="M160.7 70c1.2-1.9 1.8-4.2 1.4-6.4-.8 1.8-2 3.5-3.5 4.8l2.1 1.6zm-54.3 8.7c-2.1-1.6-3.6-3.8-4.1-6.4 1.2 2.3 6.2 3.7 6.2 3.7l-2.1 2.7zm5.1-1.8c-1.9-1.5-3.2-3.5-3.9-5.8 1.4 1.6 3.2 2.9 5.2 3.7l-1.3 2.1z" class="st11"/><path d="M95.4 171.8c-11.8-5-11.4-11.4-8.1-16.3 4-5.6 10.5-8.9 17.4-8.9 2.5-.2 4.9.2 7.2 1 1.6.5 3.1 1.5 4.1 2.9 6.6 7.7 39.5 45.3 48 50" class="st12"/><path d="M105.3 109.1c1.4 17-6 22.5-6 22.5s-.6.4-.6.8c.4 4.5 3.7 25.8 23.4 24.4 0 0 10.5-.8 12-15.9 0 0-5.8-4.1-2.5-17l-26.3-14.8z" class="st4"/><path d="M93.5 166.6s2.3 8.1 7.7 9.5c1 .3 2.2.1 3.1-.4 2.1-1 4-2.2 5.8-3.7 1.3-1 1.5-2.8.5-4.1-.6-.7-1.4-1.1-2.3-1.1-3.1-.3-5.8 1.9-6.2 4.9v.5m-2.4 3.3l-19.8 34.7" class="st12"/><path d="M131.6 115.5c1.7.8 3.5 1.3 5.4 1.4" class="st13"/><path d="M105.3 117.2s9.5 16.8 25.8 18.2c0 0-1.2-5.6 0-6.8 1.3-1.3-20.2-5.8-25.8-11.4z" class="st14"/><circle cx="123.3" cy="86.6" r="2.3" class="st15"/><circle cx="125" cy="84.1" r="1.4" class="st7"/><circle cx="157.2" cy="80.2" r="2.3" class="st15"/><circle cx="158.7" cy="77.9" r="1.4" class="st7"/><path d="M238.5 142c-5.3 6.3-13.1 9.8-21.3 9.5-12 .4-2.5-48.4-4.3-55.2 0 0 13-2.9 12 9.5-.3 2.1-.4 4.3-.4 6.4 2.1-5 5.6-9.3 10.1-8.7 4.5.6 4.1 12.2-2.9 20.7l3.5-.4c10.3 0 9.7 10.3 3.3 18.2zm0-10.3c-.4-5.8-10.1-3.1-15.1 1-.2 7.7.2 13.9 1.4 14.7 1.3.8 13.9-5.8 13.7-15.7zm-14.9-5v.6c7.9-5.6 12.6-20.7 8.5-21.1-4.1-.4-7.9 17.2-8.5 20.5zm63.1-1.2s-6.6 22.7-20.7 22.7c-5.4 0-6-5.8-5.6-12.2-2.4 2.9-6.2 4.3-9.9 3.7-7-1.2-5.6-10.3.4-14.1 3.3-1.9 7.2-2.6 11-2.1 0-1.5 0-3-.2-4.5 0 0 11.6-2.5 10.5 8.7-1 11.2-.2 17.4 4.1 12.6 3.8-4.3 6.5-9.4 8.1-14.9h2.3zM261 131c0-1.3.2-2.6.4-3.9-2.1 0-8.3.4-8.5 5.2-.1 4.7 5 1.8 8.1-1.3z" class="st3"/><path d="M328.7 127.7s-7.4 27.3-22.1 27.3c-3.1-.2-4.5-4.3-5.4-10.5-3.3 4.1-7.9 7.4-12.6 7-4.8-.4-6.2-18-5.4-33.5h-7.4v-1.9h3.9l2.9-.4h1v-1.2c0-.4.2-2.3.2-3.1.4-7.7.8-13.6.2-15.5s11.6-2.7 10.8 8.5c-.2 1.7-.2 3.7-.4 6s-.2 2.5-.2 3.1v.6h7.9c.5-4.7.5-9.4.2-14.1 0 0 11.6-2.5 10.5 8.7 0 1.2-.2 2.9-.2 4.5h6.8v2.1h-1.9l-2.1.4-2.9.4h-.4v1.4c-.2 3.7-.4 7.9-.4 11.8 0 12 0 21.3 5.2 17 5.2-4.3 10.1-19.4 10.1-19.4l1.7.8zm-27.1-10.9l-3.9.4H294c-.2 2.7-.2 5.4-.2 7.9 0 12-.8 23 4.5 18.6 1-.9 1.9-2 2.7-3.1-.2-6.8 0-15.3.4-22.7 0-.4.1-.8.2-1.1z" class="st3"/><path d="M351.4 127.9c-11.6 21.5-34.3 27.5-30.8 7.2.7-7.4 7.3-12.8 14.7-12.1.6.1 1.3.2 1.9.3 2.7 1 5.2 4.3 2.1 9.1s-6.2 3.7-8.7 3.7c-1.9 16.3 17-4.3 19.4-9.3l1.4 1.1zm-20.7 6.4c2.7.5 5.5-.7 6.8-3.1.4-1 1-3.9-1.7-4.1s-3.8-.2-5.1 7.2z" class="st3"/><path d="M378.3 129c-.6 1.4-6.6 29.2-19.9 28.5-9.1-.4-4.1-19.4-3.1-29.2-15.1-.4-9.5-6-11-10.8 0 0 9.9-4.1 9.3 4.3-.2 1.9 2.7 1.9 2.9 1.9.2 0 10.1.2 9.1 9.3-1 9.1-3.3 22.3 2.1 16.5s8.5-21.7 8.5-21.7 2.7-.5 2.1 1.2zm-101.1 30h9.3c6.4 0 11 2.1 11 7.7.1 3.1-1.8 6-4.8 7 3.8.4 6.7 3.8 6.4 7.7 0 6.2-4.8 9.3-12 9.3h-9.9V159zm8.7 13.4c5.4 0 7.7-2.1 7.7-5.2s-2.7-5.2-7.4-5.2h-5v10.3h4.7zm.8 14.9c5.4 0 8.5-1.9 8.5-6.2 0-4.3-3.1-5.6-8.5-5.6h-5.6v11.8h5.6zm16.9-2.9c0-5 4.3-7.7 14.5-8.7 0-2.9-1-6-5-6-2.6.2-5 1.1-7 2.7l-1.4-2.9c2.7-1.8 5.9-2.8 9.1-2.9 5.8 0 8.3 3.7 8.3 9.5v14.5h-3.3l-.4-2.9c-2.1 2-4.9 3.3-7.9 3.5-3.5.2-6.6-2.4-6.8-6-.1-.2-.1-.5-.1-.8zm14.5.4v-6.4c-7.9.8-10.5 2.9-10.5 5.8s1.7 3.7 4.1 3.7c2.5-.1 4.8-1.3 6.4-3.1zm11.4-28.5h3.9v23.2l10.1-12.4h4.3l-7.9 9.5 8.9 14.1h-4.3l-6.8-11.4-4.3 5.2v6.2h-3.9v-34.4zm21.1 22.5c0-7.7 5.2-12.2 10.5-12.2s9.5 4.1 9.5 11c0 .8-.2 1.7-.2 2.3h-15.9c.4 5 3.5 8.1 7.9 8.1 2.1 0 4.1-.6 5.8-1.9l1.4 2.7c-2.3 1.5-4.9 2.4-7.7 2.5-6.1-.1-11.3-4.6-11.3-12.5zm16.5-1.9c0-4.8-2.1-7.2-5.8-7.2-3.7 0-6.2 2.7-6.8 7.2h12.6zm9.3-9.9h3.1l.4 4.3h.2a8.1 8.1 0 0 1 6.6-4.8c.8-.1 1.7.1 2.5.4l-.8 3.5-2.3-.4c-1.9 0-4.3 1.4-5.8 5.4v15.1h-3.9V167zm15.5 33.1l.8-3.1 1.7.4c2.7 0 4.3-2.1 5.4-5.2l.6-1.7-9.5-23.6h4.1l4.8 13c.8 2.1 1.4 4.5 2.3 6.6h.2c.6-2.1 1.2-4.5 2.1-6.6l4.1-13h3.9l-8.9 25.4c-1.7 4.8-4.1 8.3-8.9 8.3-.9.1-1.8-.1-2.7-.5zm-177.2-22.7v-14.9h3.9v14.3c0 4.3 1.2 6.2 4.3 6.2 3.1 0 4.1-1 6.4-3.9v-16.5h3.9V186H230l-.4-3.7a9.95 9.95 0 0 1-7.9 4.3c-4.9-.1-7-3.2-7-9.2zm26.5-14.9h3.3l.4 2.7c2-2 4.6-3.1 7.4-3.3 6.2 0 9.3 4.8 9.3 12s-4.8 12.6-10.1 12.6c-2.4-.2-4.6-1.1-6.4-2.7v12h-3.9v-33.3zm16.5 11.3c0-5.2-1.9-8.7-6.2-8.7-2.5.2-4.8 1.4-6.4 3.3v12.2c1.6 1.5 3.6 2.4 5.8 2.5 3.9.1 6.8-3.5 6.8-9.3z" class="st3"/><path d="M254.2 102.9s-8.5 5.4-7-.6c.2-1.1.6-2.2 1.2-3.1l3.3-4.8s-4.8 1.7-6-1.2c-.3-1.3.1-2.7 1.2-3.5 3.3-2.1 10.5-8.1 9.7-17.6 3.1 2 4.5 5.8 3.3 9.3 0 0 7.2-4.3 7.2.6l-.6 4.1c2.1-1.2 4.4-2 6.8-2.5 1.1 0 2.1 1 2 2.1 0 .3-.1.5-.2.8-1.7 3.1-5.2 10.3-6.6 10.1-1.3-.1-14.3 6.3-14.3 6.3z" class="st16"/><path d="M252.6 104.6l8.2 6.2 13.3-7.3.4-11.5z" class="st17"/><path d="M256.7 72.1s-1.4 11.4-9.7 17.6h6.2l5.8-11" class="st16"/><path d="M286.7 77.9l6.6 6m86.9-5.2l-7.9 4.4" class="st18"/><path d="M352.7 85.8l9.1 1.8" class="st19"/><path d="M305.7 75.2l4.6-8.1m25.8 26.7l7 5.8" class="st20"/><path d="M267.2 90.3l-7.4-3.3m50.7-1.7l6.6 6.2" class="st19"/><path d="M254.8 83.7l.2 8.7" class="st20"/><path d="M331.1 81l8.3-3.3" class="st18"/></g></svg>