<svg xmlns="http://www.w3.org/2000/svg" width="2.9in" height="144" viewBox="0 0 208.9 104.4"><path fill="#aaa" d="M10.8 43l-2.2-1.2c-2.4-1.8-3.8-4.1-3-5.2s3.4-.5 5.8 1.3a9.6 9.6 0 0 1 2.5 2.4"/><circle cx="60.9" cy="63.2" r="37.2" fill="#3d3d3d"/><path fill="#b6b6b6" d="M49.3 42.1C39 69.9 5.8 58.4 5.8 58.4c11 0 13.5-11.3 14.1-15.8a19.1 19.1 0 0 1 1.5-5.8C27.2 23.1 41.1 26 41.1 26v-.2A22.2 22.2 0 0 1 52 7.1c16.9-9.7 30 3.6 30 3.6 12.1 10.9-18.8 15.6-18.8 15.6-11.5 1.4-15.3 7.3-15.3 7.3z"/><path fill="#696969" d="M52.7 58.2s-19.5 4-21.8 27a34.2 34.2 0 0 0 22.3 14.4 37.7 37.7 0 0 0 38.1-15s-1.9-18.2-21.2-22.3"/><path fill="#e1e1e1" d="M82.4 19.4c3.2 1.8 3.6 12.1 3.5 17a22.1 22.1 0 0 1-.5 5.1c-2.4 10.1-6.1 14-8.2 15.5a4.8 4.8 0 0 1-3.1.8c-10.1-.6-19.8-7.9-19.8-7.9-5.3-3.4-7.1-12-7.1-12l-.8 1.3c-1.1 1.8-2.6.3-3.6-1.1a8.3 8.3 0 0 1-1.3-3.2 5.4 5.4 0 0 1 0-2.2 2.9 2.9 0 0 1 3-2.3 2.2 2.2 0 0 1 1.9 1.7s.4.9 1 .2l.8-1.2a38.1 38.1 0 0 1 14.1-5.2s12.9-1.9 16.6-4.5z"/><path fill="silver" d="M75.9 31.1a17.7 17.7 0 0 0 .4 5.2 18.3 18.3 0 0 0 .8 2.5 9.5 9.5 0 0 0 1.5 2l.9 1a1.9 1.9 0 0 1 .6 1.5 3 3 0 0 1-1.9 2.4 2.6 2.6 0 0 1-1.5 0l-.7-.3-.5-.4a3.6 3.6 0 0 0-2.5-.2 3.2 3.2 0 0 1 2.7-.2l.6.3.6.2a2.3 2.3 0 0 0 1.1-.2 2.1 2.1 0 0 0 1.2-1.6 1.8 1.8 0 0 0-.4-.9l-1-.9a7.5 7.5 0 0 1-1.5-2.4 11.2 11.2 0 0 1-.8-2.6 14 14 0 0 1 .4-5.4zm-66 14.8c-.3-1.8-.5-7.2 6.2-6.8l.8.2 29.6 20.9s-9.8.9-7.8 9.3L10.4 46.9a1.4 1.4 0 0 1-.5-1z"/><path fill="#696969" d="M71 51.1s3.1-3.3 5.3-1.8a3.5 3.5 0 0 1 3.9-.7s-1.7 2.2-2.6 2.2-2 7-6.6.3z"/><ellipse cx="43.7" cy="65.5" fill="#aaa" rx="6.4" ry="4.6" transform="rotate(-38 43.696 65.56)"/><path fill="#fff" d="M77.9 33.2a4.4 4.4 0 0 0 4.4 4.1l2.7-3 .8-3v-1.7a2.1 2.1 0 0 0-2.5-1.6s-3 1-5.4 5.2z"/><path fill="#ccc" d="M73 54.9a3.6 3.6 0 0 0 2 .3l1-.2 1-.4a2.3 2.3 0 0 1-.8.9 2.2 2.2 0 0 1-1.1.5 2.2 2.2 0 0 1-2.1-1.1z"/><path fill="#fff" d="M57.1 31.9s-1.9 2.6-.4 4.8 6.8 3.8 6.8 3.8 3.1.5 5.4-4.5c0 0-2.2-3.5-4.2-3.9 0 0-6.6-1.1-7.6-.2z"/><ellipse cx="64.7" cy="36.5" fill="#cbcbcb" rx="2.8" ry="3.1"/><ellipse cx="81.6" cy="33.4" fill="#cbcbcb" rx="2.4" ry="2.9" transform="rotate(-10.7 81.425 33.478)"/><path fill="#e1e1e1" d="M84.8 91.3c-2.2-1.8-8.6-7.2-8.8-8.1l-8.8-9.6-6.3-7.2s-4.5-1.9-8.6-.3c0 0-7.7 3.3-5.1 8 0 0 3 3.5 4.5 3.5a5.6 5.6 0 0 0 4 2.1l3.6-2.5-.5-1.7-.6-1.1s1.2-1.6 2.5-.6 10.6 16.3 16.9 22.6a40.5 40.5 0 0 0 5.4-3.3 10.7 10.7 0 0 0 1.7-1.5"/><path fill="#555" d="M77.3 35.4a7.9 7.9 0 0 1 1-4.2 7.6 7.6 0 0 1 3.2-3.2 8.3 8.3 0 0 1 4.3-1 6.6 6.6 0 0 0 3.9-.9 5.1 5.1 0 0 1-3.8 2.1 9.4 9.4 0 0 0-3.7 1.1 8.8 8.8 0 0 0-2.9 2.5 15.8 15.8 0 0 0-2 3.6zm-7.7 2.2a9.4 9.4 0 0 0-3-3.8 9 9 0 0 0-4.4-1.8 10.4 10.4 0 0 0-4.6.5 8.2 8.2 0 0 1-2.7.6 4.7 4.7 0 0 1-2.8-1.2l1.3-.7a11.2 11.2 0 0 0 1.8 3.4 14.8 14.8 0 0 0 2.8 2.8 21.2 21.2 0 0 0 3.6 2.1l1.9.8 2 .6-2.1-.3-2.1-.5a10.4 10.4 0 0 1-2-.8 6.9 6.9 0 0 1-1.9-1 13 13 0 0 1-3.3-2.9 10.7 10.7 0 0 1-2.2-3.9l-.8-2.7 2.1 2c.9 1 2.4 1 3.9.4a9.6 9.6 0 0 1 5.3-.4 8.2 8.2 0 0 1 4.7 2.4 8.9 8.9 0 0 1 2.5 4.4z"/><path fill="#545454" d="M85.5 28.5a7.3 7.3 0 0 1 .5 3 8.2 8.2 0 0 1-.7 3 5.7 5.7 0 0 1-.8 1.3 13.1 13.1 0 0 1-1.1 1.2 6.1 6.1 0 0 1-2.7 1.3l2.2-1.9a11.4 11.4 0 0 0 1.5-2.3 14.7 14.7 0 0 0 1.1-5.6z"/><path fill="none" stroke="silver" stroke-linecap="round" stroke-linejoin="round" d="M57.7 75.3s1.2-3.2 3.3-1.2c0 0 11.9 18 16.4 22.4"/><path fill="#e1e1e1" d="M44.2 96.1l8.9-15.4 2.6-13.8a2.8 2.8 0 0 0-1-2.4c-3.7-3.7-7.2-2.3-8.6-1.1a10.9 10.9 0 0 1-1.7 1.3c-1.3.9-3.4 3.5-1.6 11.5 0 0 .2 3.5-5.5 15.9a24 24 0 0 0 6.7 4.4"/><path fill="#545454" d="M85.3 28.1a4.6 4.6 0 0 0 1.3-2.8c-.3 1-2.1 1.9-2.1 1.9z"/><path fill="none" stroke="silver" stroke-linecap="round" stroke-linejoin="round" d="M37.3 92.1c5.7-12.5 6-15.8 6-15.8-1.8-8.1-.4-10.7.9-11.5l1.7-1.4c1.5-1.2 5-2.6 8.7 1.1"/><path fill="#545454" d="M83.2 28.5a4.8 4.8 0 0 0 .6-3.1c-.1 1-1.7 2.3-1.7 2.3zm-26.3 4.2a4.9 4.9 0 0 1-2-3.1c.6 1.1 2.9 1.8 2.9 1.8zm2.4-.9a5.2 5.2 0 0 1-1.8-2.8c.5 1 2.4 1.7 2.4 1.7z"/><path fill="none" stroke="silver" stroke-linecap="round" stroke-linejoin="round" d="M51.6 77.7c-5.8-2.4-5.6-5.5-3.9-7.9a10 10 0 0 1 8.3-4.3 8.4 8.4 0 0 1 3.5.5 4.9 4.9 0 0 1 2.1 1.4c3.2 3.7 19 21.9 23.1 24.2"/><path fill="#e1e1e1" d="M56.3 47.4c.7 8.1-2.9 10.9-2.9 10.9s-.3.2-.3.4c.3 2.2 1.9 12.5 11.4 11.8 0 0 5.1-.4 5.8-7.7 0 0-2.9-2-1.2-8.2z"/><path fill="none" stroke="silver" stroke-linecap="round" stroke-linejoin="round" d="M50.6 75.2s1.1 3.9 3.8 4.6a2.2 2.2 0 0 0 1.4-.2 19.2 19.2 0 0 0 2.9-1.8 1.5 1.5 0 0 0-1-2.5 2.6 2.6 0 0 0-2.9 2.6m-1.1 1.6L44 96.3"/><path fill="none" stroke="#696969" stroke-linecap="round" stroke-linejoin="round" stroke-width=".75" d="M69.1 50.5a7 7 0 0 0 2.5.6"/><path fill="silver" d="M56.3 51.3s4.7 8.1 12.6 8.8c0 0-.6-2.7 0-3.3S59 54 56.3 51.3z"/><circle cx="65.1" cy="36.4" r="1.1"/><circle cx="65.8" cy="35.3" r=".7" fill="#fff"/><circle cx="81.4" cy="33.4" r="1.1"/><circle cx="82.2" cy="32.3" r=".7" fill="#fff"/><path fill="#696969" d="M120.7 63.3a12.8 12.8 0 0 1-10.2 4.6c-5.9.2-1.3-23.4-2.2-26.7 0 0 6.3-1.4 5.8 4.6-.1.9-.1 1.9-.2 3 1.1-2.3 2.7-4.4 4.9-4.2s2 6-1.4 10.1l1.7-.2c5 0 4.7 5 1.6 8.8zm0-5c-.1-2.8-4.9-1.5-7.3.5-.1 3.7.1 6.7.7 7.1s6.7-2.8 6.6-7.6zm-7.2-2.4v.3c3.8-2.7 6.2-10 4.2-10.2s-3.9 8.3-4.2 9.9zm30.5-.6s-3.2 11-9.9 11c-2.6 0-3-2.8-2.8-5.9a5.2 5.2 0 0 1-4.8 1.8c-3.4-.6-2.6-5.1.2-6.8a8.2 8.2 0 0 1 5.3-1 5.1 5.1 0 0 0-.1-2.2s5.6-1.2 5.2 4.2-.1 8.4 1.9 6.1a18.6 18.6 0 0 0 3.9-7.2zM131.6 58c.1-.7.1-1.3.2-1.9s-4 .2-4 2.5 2.4.9 3.8-.6z"/><path fill="#696969" d="M164.3 56.4s-3.6 13.2-10.7 13.2c-1.5-.1-2.2-2.1-2.5-5.1-1.7 2-3.8 3.6-6.2 3.4s-2.9-8.7-2.6-16.2h-3.6v-.9h2l1.3-.2h.5V50c0-.2.1-1.1.1-1.5a53.2 53.2 0 0 0 .2-7.5s5.6-1.3 5.1 4.1c0 .8-.1 1.8-.2 2.9v1.8h3.7a39.4 39.4 0 0 0 .1-6.8s5.6-1.2 5.2 4.2c-.1.6-.1 1.4-.2 2.2h3.3v1.1h-.9l-1 .2-1.4.2h-.1a1.7 1.7 0 0 0-.1.7c-.1 1.8-.1 3.7-.2 5.7.1 5.7 0 10.3 2.6 8.2s4.9-9.4 4.9-9.4zm-13.1-5.3l-1.9.2h-1.8c-.1 1.2-.1 2.6-.1 3.8 0 5.8-.3 11.1 2.2 9a10.3 10.3 0 0 0 1.4-1.5 102.3 102.3 0 0 1 .2-11z"/><path fill="#696969" d="M175.3 56.5c-5.6 10.3-16.5 13.3-14.9 3.5a6.6 6.6 0 0 1 8-5.7c1.3.4 2.5 2.1 1.1 4.4s-3.1 1.8-4.3 1.8c-.9 7.9 8.3-2.1 9.4-4.5zm-10 3.1c2.2.2 3-.9 3.3-1.5s.5-1.9-.8-2-1.8-.1-2.5 3.5z"/><path fill="#696969" d="M188.3 56.9c-.2.8-3.2 14.1-9.6 13.9-4.3-.2-2-9.4-1.5-14.1-7.3-.2-4.5-2.9-5.2-5.2 0 0 4.7-2 4.4 2.1-.1.9 1.4.9 1.4.9s4.9.1 4.4 4.4-1.6 10.9 1 8.1 4.1-10.5 4.1-10.5 1.3-.3 1 .4zm-48.9 14.6h4.5c3.1 0 5.3 1 5.3 3.7a3.3 3.3 0 0 1-2.2 3.3 3.6 3.6 0 0 1 3.1 3.7c0 3-2.4 4.5-5.8 4.5h-4.9zm4.2 6.5c2.6 0 3.7-1 3.7-2.5s-1.2-2.5-3.6-2.5h-2.4v5zm.4 7.2c2.6 0 4.2-.9 4.2-3s-1.5-2.7-4.2-2.7h-2.7v5.7zm8.2-1.4c0-2.4 2.2-3.7 7-4.2 0-1.5-.5-2.9-2.3-2.9a6.1 6.1 0 0 0-3.4 1.3l-.8-1.4a9.6 9.6 0 0 1 4.5-1.4c2.7 0 3.9 1.8 3.9 4.6v7h-1.6v-1.4h-.1a6 6 0 0 1-3.8 1.7 3.1 3.1 0 0 1-3.4-3.3zm7 .2v-3.1c-3.8.4-5.1 1.4-5.1 2.8s.9 1.8 2 1.8a4.5 4.5 0 0 0 3.1-1.5zm5.5-13.8h1.9v11.2l4.9-6h2.1l-3.8 4.6 4.3 6.8H172l-3.3-5.5-2.1 2.5v3h-1.9zM175 81.1c0-3.7 2.5-5.9 5.1-5.9s4.5 2 4.5 5.3a3.7 3.7 0 0 1-.1 1.1h-7.6c.1 2.4 1.6 3.9 3.7 3.9a5 5 0 0 0 2.9-.9l.7 1.3a7.1 7.1 0 0 1-3.8 1.2c-3 0-5.4-2.3-5.4-6zm7.9-.9c0-2.3-1-3.5-2.8-3.5s-3 1.3-3.2 3.5zm4.5-4.8h1.6v2.1h.1a4 4 0 0 1 3.2-2.3 2.2 2.2 0 0 1 1.2.2l-.3 1.7-1.1-.2c-1 0-2.1.7-2.9 2.6v7.3h-1.9zm7.5 16l.4-1.5.9.2c1.3 0 2.1-1.1 2.5-2.5l.3-.8-4.6-11.4h2l2.3 6.3c.4 1 .8 2.2 1.1 3.2h.1c.4-1 .7-2.2 1-3.2l2-6.3h1.9l-4.3 12.3c-.8 2.3-2 4-4.2 4a2.9 2.9 0 0 1-1.4-.3zm-85.7-11v-7.2h1.9v6.9c0 2.1.7 3 2.2 3s1.9-.5 3-1.9v-8h1.9v11.3h-1.6v-1.8h-.1a4.6 4.6 0 0 1-3.7 2.1c-2.5 0-3.6-1.5-3.6-4.4zm12.8-7.2h1.6l.2 1.3h.1a5.7 5.7 0 0 1 3.6-1.6c2.9 0 4.5 2.3 4.5 5.8s-2.4 6.1-4.9 6.1a5.5 5.5 0 0 1-3.2-1.3v5.8h-2zm8 5.5c0-2.5-.9-4.2-3-4.2a4.3 4.3 0 0 0-3 1.6V82a4.2 4.2 0 0 0 2.7 1.2c1.9 0 3.3-1.7 3.3-4.5z"/><path fill="#cbcbcb" stroke="#cbcbcb" stroke-linecap="round" stroke-linejoin="round" d="M128.3 44.4s-4.1 2.6-3.4-.3a2.6 2.6 0 0 1 .7-1.5l1.5-2.3s-2.2.8-2.8-.6a1.4 1.4 0 0 1 .6-1.7c1.5-1 5.1-3.9 4.7-8.5a3.8 3.8 0 0 1 1.5 4.5s3.6-2.1 3.5.3l-.2 2a9.9 9.9 0 0 1 3.3-1.2.9.9 0 0 1 .8 1.3c-.7 1.6-2.5 5.1-3.2 5s-7 3-7 3z"/><path fill="#393939" d="M127.6 45.2l3.9 3 6.4-3.5.3-5.7-10.6 6.2z"/><path fill="#cbcbcb" stroke="#cbcbcb" stroke-linecap="round" stroke-linejoin="round" d="M129.6 29.5s-.8 5.5-4.7 8.5h2.9l2.8-5.3"/><path fill="none" stroke="#cbcbcb" stroke-linecap="round" stroke-linejoin="round" d="M144.1 30.1l3.2 3.2m42.1-.5l-4 1.9"/><path fill="none" stroke="#b6b6b6" stroke-linecap="round" stroke-linejoin="round" d="M175.9 35.6l4.3 1"/><path fill="none" stroke="#696969" stroke-linecap="round" stroke-linejoin="round" d="M153.5 29.3l2.3-3.7m11.8 13.5l3.3 2.9"/><path fill="none" stroke="#b6b6b6" stroke-linecap="round" stroke-linejoin="round" d="M134.9 38.3l-3.6-1.6m24.2-2.4l3.1 3.2"/><path fill="none" stroke="#696969" stroke-linecap="round" stroke-linejoin="round" d="M128.7 36.5l.1 4.2"/><path fill="none" stroke="#cbcbcb" stroke-linecap="round" stroke-linejoin="round" d="M165.5 32.7l4.2-1.4"/></svg>