<svg xmlns="http://www.w3.org/2000/svg" width="2.9in" height="1.4in" viewBox="0 0 212.3 104"><title>Batterupbakery</title><g id="ASSETS"><path d="M13,44a11.9,11.9,0,0,1-2.2-1.2C8.3,41,7,38.7,7.8,37.6s3.4-.5,5.8,1.3a14.4,14.4,0,0,1,2.5,2.4" fill="#cca285"/></g><g id="FINAL"><circle cx="63.1" cy="64.2" r="37.2" fill="#683e92"/><path d="M51.4,43.1C41.2,70.9,8,59.5,8,59.5c11,0,13.5-11.3,14-15.9a23.6,23.6,0,0,1,1.5-5.8c5.9-13.7,19.8-10.7,19.8-10.7v-.3A21.7,21.7,0,0,1,54.2,8.1c16.9-9.7,30,3.6,30,3.6,12.1,11-18.8,15.6-18.8,15.6C53.9,28.7,50,34.6,50,34.6Z" fill="#f6b24f"/><path d="M54.8,59.2s-19.5,4-21.7,27a34.2,34.2,0,0,0,22.3,14.4,37.7,37.7,0,0,0,38.1-15S91.6,67.4,72.2,63.3" fill="#ed257a"/><path d="M84.6,20.4c3.2,1.8,3.5,12.1,3.5,17a22.2,22.2,0,0,1-.6,5.1c-2.3,10.1-6,14-8.2,15.5a4.8,4.8,0,0,1-3.1.8c-10-.6-19.7-7.9-19.7-7.9-5.3-3.4-7.2-12-7.2-12l-.7,1.3c-1.2,1.8-2.7.3-3.6-1A8,8,0,0,1,43.7,36a4.4,4.4,0,0,1,0-2.3,2.9,2.9,0,0,1,3-2.3,2.2,2.2,0,0,1,1.9,1.7s.4.9,1,.3l.7-1.3a38.2,38.2,0,0,1,14.2-5.2S77.3,25,81.1,22.4Z" fill="#fcdac6"/><path d="M78.1,32.1a18.7,18.7,0,0,0,.4,5.3,11.3,11.3,0,0,0,.8,2.4,6.6,6.6,0,0,0,1.4,2l1,1a2.5,2.5,0,0,1,.6,1.5,2.8,2.8,0,0,1-1.9,2.4,2.6,2.6,0,0,1-1.5,0l-.7-.3c-.2-.2-.3-.3-.5-.3a3.2,3.2,0,0,0-2.5-.3,3,3,0,0,1,2.6-.2l.7.3.5.2a2,2,0,0,0,1.1-.2,1.8,1.8,0,0,0,1.2-1.6,1.2,1.2,0,0,0-.4-.9l-.9-.9a11.9,11.9,0,0,1-1.6-2.3,13.4,13.4,0,0,1-.7-2.7A14,14,0,0,1,78.1,32.1Z" fill="#f2b692"/><path d="M12.1,47c-.3-1.9-.5-7.3,6.2-6.9l.8.2L48.7,61.2s-9.9.9-7.9,9.3L12.6,47.9A1.4,1.4,0,0,1,12.1,47Z" fill="#e0b899"/><path d="M73.2,52.1s3.1-3.3,5.3-1.8a3.5,3.5,0,0,1,3.9-.7s-1.8,2.2-2.7,2.2S77.8,58.8,73.2,52.1Z" fill="#ed257a"/><ellipse cx="45.9" cy="66.5" rx="6.4" ry="4.6" transform="translate(-31.2 42.3) rotate(-38)" fill="#cca285"/><path d="M80.1,34.2a4.5,4.5,0,0,0,4.4,4.2l2.7-3.1.8-3V30.6A2.2,2.2,0,0,0,85.5,29,11.4,11.4,0,0,0,80.1,34.2Z" fill="#fff"/><path d="M75.2,55.9a3.5,3.5,0,0,0,2,.3l.9-.2,1-.4a2,2,0,0,1-.7.9,2.2,2.2,0,0,1-1.1.5A2.1,2.1,0,0,1,75.2,55.9Z" fill="#e0c2b8"/><path d="M59.3,33s-1.9,2.5-.4,4.7,6.8,3.8,6.8,3.8S68.8,42,71,37c0,0-2.2-3.5-4.1-3.9C66.9,33.1,60.2,32,59.3,33Z" fill="#fff"/><ellipse cx="66.9" cy="37.5" rx="2.8" ry="3.1" fill="#49c4d5"/><ellipse cx="83.8" cy="34.4" rx="2.4" ry="2.9" transform="translate(-4.9 16.1) rotate(-10.7)" fill="#49c4d5"/><path d="M87,92.3c-2.2-1.8-8.6-7.1-8.9-8.1l-8.7-9.6L63,67.4s-4.5-1.8-8.5-.3c0,0-7.8,3.3-5.1,8.1,0,0,3,3.4,4.5,3.4a5.5,5.5,0,0,0,3.9,2.1l3.6-2.5-.5-1.6-.5-1.2s1.2-1.6,2.4-.6,10.6,16.3,17,22.6a35.6,35.6,0,0,0,5.3-3.3,17.7,17.7,0,0,0,1.8-1.5" fill="#fcdac6"/><path d="M79.4,36.4a9,9,0,0,1,1-4.2A8.9,8.9,0,0,1,83.6,29,9.8,9.8,0,0,1,88,28a6.2,6.2,0,0,0,3.9-.9,5.1,5.1,0,0,1-3.8,2.1,11.9,11.9,0,0,0-3.8,1.1,9.9,9.9,0,0,0-2.9,2.5A20.8,20.8,0,0,0,79.4,36.4Z" fill="#9b6c4d"/><path d="M71.8,38.6a10.4,10.4,0,0,0-3-3.8A9,9,0,0,0,64.4,33a10.1,10.1,0,0,0-4.6.5,8.2,8.2,0,0,1-2.8.6,4.5,4.5,0,0,1-2.7-1.2l1.2-.7a10.2,10.2,0,0,0,1.8,3.4,12.8,12.8,0,0,0,2.9,2.8,25,25,0,0,0,3.5,2.1l2,.8,2,.6-2.1-.3-2.1-.5-2-.7a11.8,11.8,0,0,1-1.9-1.1,10.2,10.2,0,0,1-3.3-2.9,8.8,8.8,0,0,1-2.2-3.9l-.8-2.7,2,2c1,1,2.5,1,4,.4a10.6,10.6,0,0,1,5.3-.4,8.5,8.5,0,0,1,4.7,2.4A9.7,9.7,0,0,1,71.8,38.6Z" fill="#9b6c4d"/><path d="M87.7,29.5a7.3,7.3,0,0,1,.5,3,10.9,10.9,0,0,1-.7,3l-.8,1.4c-.4.3-.7.8-1.1,1.1a6,6,0,0,1-2.8,1.3A13.7,13.7,0,0,0,85,37.4a6.5,6.5,0,0,0,1.5-2.3A14.8,14.8,0,0,0,87.7,29.5Z" fill="#9b6c4c"/><path d="M59.9,76.3s1.2-3.2,3.3-1.1c0,0,11.9,18,16.4,22.3" fill="none" stroke="#f2b692" stroke-linecap="round" stroke-linejoin="round"/><path d="M46.4,97.1l8.8-15.4,2.7-13.8a2.8,2.8,0,0,0-1-2.4c-3.7-3.7-7.2-2.3-8.6-1.1a12.4,12.4,0,0,1-1.8,1.4c-1.2.8-3.3,3.4-1.5,11.4,0,0,.1,3.5-5.5,15.9a24.4,24.4,0,0,0,6.6,4.4" fill="#fcdac6"/><path d="M87.5,29.1a4.4,4.4,0,0,0,1.3-2.8c-.4,1-2.1,1.9-2.1,1.9Z" fill="#9b6c4c"/><path d="M39.5,93.1c5.7-12.5,5.9-15.8,5.9-15.8-1.7-8.1-.3-10.7.9-11.5a12.4,12.4,0,0,0,1.8-1.4c1.4-1.2,4.9-2.6,8.6,1.1" fill="none" stroke="#f2b692" stroke-linecap="round" stroke-linejoin="round"/><path d="M85.3,29.5a4.5,4.5,0,0,0,.7-3.1,6,6,0,0,1-1.7,2.3Z" fill="#9b6c4c"/><path d="M59,33.7a5.2,5.2,0,0,1-2-3.1c.6,1.1,3,1.8,3,1.8Z" fill="#9b6c4c"/><path d="M61.5,32.8A5.7,5.7,0,0,1,59.6,30a6.5,6.5,0,0,0,2.5,1.8Z" fill="#9b6c4c"/><path d="M53.7,78.7c-5.7-2.4-5.5-5.5-3.9-7.9a10.3,10.3,0,0,1,8.4-4.3,8.4,8.4,0,0,1,3.5.5,4.1,4.1,0,0,1,2,1.4c3.2,3.7,19.1,21.9,23.2,24.2" fill="none" stroke="#f2b692" stroke-linecap="round" stroke-linejoin="round"/><path d="M58.5,48.4c.7,8.2-2.9,10.9-2.9,10.9s-.3.2-.3.4c.2,2.2,1.8,12.5,11.3,11.8,0,0,5.1-.4,5.8-7.7,0,0-2.8-2-1.2-8.2Z" fill="#fcdac6"/><path d="M52.8,76.2s1.1,3.9,3.7,4.6a2,2,0,0,0,1.5-.2,13.1,13.1,0,0,0,2.8-1.8,1.4,1.4,0,0,0-.9-2.5,2.7,2.7,0,0,0-3,2.6" fill="none" stroke="#f2b692" stroke-linecap="round" stroke-linejoin="round"/><line x1="55.8" y1="80.5" x2="46.2" y2="97.3" fill="none" stroke="#f2b692" stroke-linecap="round" stroke-linejoin="round"/><path d="M71.2,51.5a7,7,0,0,0,2.6.7" fill="none" stroke="#ed257a" stroke-linecap="round" stroke-linejoin="round" stroke-width="0.75"/><path d="M58.5,52.3s4.6,8.1,12.5,8.8c0,0-.6-2.7,0-3.3S61.2,55,58.5,52.3Z" fill="#f3b692"/><circle cx="67.2" cy="37.5" r="1.1" fill="#211e1f"/><circle cx="68" cy="36.3" r="0.7" fill="#fff"/><circle cx="83.6" cy="34.4" r="1.1" fill="#211e1f"/><circle cx="84.3" cy="33.3" r="0.7" fill="#fff"/><path d="M122.9,64.3a12.9,12.9,0,0,1-10.3,4.6c-5.8.2-1.2-23.4-2.1-26.7,0,0,6.3-1.4,5.8,4.6a26.9,26.9,0,0,0-.2,3.1c1-2.4,2.7-4.5,4.9-4.2s2,5.9-1.4,10l1.7-.2C126.3,55.5,126,60.5,122.9,64.3Zm0-5c-.2-2.8-4.9-1.5-7.3.5-.1,3.7.1,6.7.7,7.1S123,64.1,122.9,59.3Zm-7.2-2.4v.3c3.8-2.7,6.1-10,4.1-10.2S116,55.3,115.7,56.9Z" fill="#ed257a"/><path d="M146.2,56.3s-3.2,11-10,11c-2.6,0-2.9-2.8-2.7-5.9a5.2,5.2,0,0,1-4.8,1.8c-3.4-.6-2.7-5,.2-6.8a8.2,8.2,0,0,1,5.3-1,14.1,14.1,0,0,0-.1-2.2s5.6-1.2,5.1,4.2-.1,8.4,2,6.1a18.6,18.6,0,0,0,3.9-7.2ZM133.8,59a11.1,11.1,0,0,1,.2-1.9c-1,0-4,.2-4.1,2.5S132.3,60.5,133.8,59Z" fill="#ed257a"/><path d="M166.5,57.4s-3.6,13.2-10.7,13.2c-1.5-.1-2.2-2.1-2.6-5.1-1.6,2-3.8,3.6-6.1,3.4s-3-8.7-2.6-16.2h-3.6V51.8h1.9l1.4-.2h.5V51c0-.2.1-1.1.1-1.5.2-3.7.4-6.6.1-7.5s5.6-1.3,5.2,4.1c-.1.8-.1,1.8-.2,2.9s-.1,1.2-.1,1.5v.3h3.8a39.4,39.4,0,0,0,.1-6.8s5.6-1.2,5.1,4.2c0,.6-.1,1.4-.1,2.2h3.3v1h-.9l-1,.2-1.4.2h-.2v.7c-.1,1.8-.2,3.8-.2,5.7,0,5.8,0,10.3,2.5,8.2s4.9-9.4,4.9-9.4Zm-13.1-5.3-1.9.2h-1.8c-.1,1.3-.1,2.6-.1,3.8,0,5.8-.4,11.1,2.2,9a10,10,0,0,0,1.3-1.5c-.1-3.3,0-7.4.2-11A1.8,1.8,0,0,1,153.4,52.1Z" fill="#ed257a"/><path d="M177.5,57.5c-5.6,10.4-16.6,13.3-14.9,3.5a6.5,6.5,0,0,1,8-5.7c1.3.5,2.5,2.1,1,4.4s-3,1.8-4.2,1.8c-.9,7.9,8.2-2.1,9.4-4.5Zm-10,3.1a3.1,3.1,0,0,0,3.3-1.5c.2-.5.5-1.9-.8-2S168.1,57,167.5,60.6Z" fill="#ed257a"/><path d="M190.5,58c-.3.7-3.2,14.1-9.6,13.8-4.4-.2-2-9.4-1.5-14.1-7.3-.2-4.6-2.9-5.3-5.2,0,0,4.8-2,4.5,2.1-.1.9,1.3.9,1.4.9s4.9.1,4.4,4.5-1.6,10.8,1,8,4.1-10.5,4.1-10.5S190.8,57.2,190.5,58Z" fill="#ed257a"/><path d="M141.6,72.5h4.5c3.1,0,5.3,1,5.3,3.7a3.5,3.5,0,0,1-2.3,3.4h0a3.5,3.5,0,0,1,3.1,3.7c0,3-2.3,4.5-5.8,4.5h-4.8Zm4.2,6.5c2.6,0,3.7-1,3.7-2.5s-1.3-2.5-3.6-2.5h-2.4v5Zm.4,7.2c2.6,0,4.1-.9,4.1-3s-1.5-2.7-4.1-2.7h-2.7v5.7Z" fill="#ed257a"/><path d="M154.4,84.8c0-2.4,2.1-3.7,7-4.2,0-1.4-.5-2.9-2.4-2.9a6.4,6.4,0,0,0-3.4,1.3l-.7-1.4a8.8,8.8,0,0,1,4.4-1.4c2.8,0,4,1.8,4,4.6v7h-1.6l-.2-1.4h0a6.3,6.3,0,0,1-3.8,1.7A3.1,3.1,0,0,1,154.4,84.8Zm7,.2V81.9c-3.8.4-5.1,1.4-5.1,2.8s.8,1.8,2,1.8A4.5,4.5,0,0,0,161.4,85Z" fill="#ed257a"/><path d="M166.9,71.2h1.9V82.4h0l4.9-6h2.1L172,81l4.3,6.8h-2.1l-3.3-5.5-2.1,2.5v3h-1.9Z" fill="#ed257a"/><path d="M177.1,82.1c0-3.7,2.5-5.9,5.1-5.9s4.6,2,4.6,5.3c0,.4-.1.8-.1,1.1H179c.2,2.4,1.7,3.9,3.8,3.9a4.5,4.5,0,0,0,2.8-.9l.7,1.3a7.1,7.1,0,0,1-3.7,1.2C179.6,88.1,177.1,85.9,177.1,82.1Zm8-.9c0-2.3-1-3.5-2.8-3.5s-3,1.3-3.3,3.5Z" fill="#ed257a"/><path d="M189.6,76.4h1.5l.2,2.1h.1a3.9,3.9,0,0,1,3.2-2.3,2.3,2.3,0,0,1,1.2.2l-.4,1.7-1.1-.2c-.9,0-2.1.7-2.8,2.6v7.3h-1.9Z" fill="#ed257a"/><path d="M197.1,92.4l.4-1.5.8.2c1.3,0,2.1-1,2.6-2.5l.3-.8-4.6-11.4h2l2.3,6.3c.4,1,.7,2.2,1.1,3.2h.1c.3-1,.6-2.2,1-3.2l2-6.3H207l-4.3,12.3c-.8,2.3-2,4-4.3,4A2.8,2.8,0,0,1,197.1,92.4Z" fill="#ed257a"/><path d="M111.4,81.4V74.2h1.9v6.9c0,2.1.6,3,2.1,3s2-.5,3.1-1.9v-8h1.9V85.5h-1.6l-.2-1.8h0a4.8,4.8,0,0,1-3.8,2.1C112.4,85.8,111.4,84.3,111.4,81.4Z" fill="#ed257a"/><path d="M124.2,74.2h1.6l.2,1.3h0a5.7,5.7,0,0,1,3.6-1.6c3,0,4.5,2.3,4.5,5.8s-2.3,6.1-4.9,6.1a5.2,5.2,0,0,1-3.1-1.3v5.8h-1.9Zm8,5.5c0-2.5-.9-4.2-3-4.2a4.5,4.5,0,0,0-3.1,1.6V83a4.4,4.4,0,0,0,2.8,1.2C130.8,84.2,132.2,82.5,132.2,79.7Z" fill="#ed257a"/><path d="M130.5,45.4s-4.1,2.6-3.4-.3a3.4,3.4,0,0,1,.6-1.5l1.6-2.3s-2.3.8-2.9-.6A1.6,1.6,0,0,1,127,39c1.6-1,5.1-3.9,4.7-8.5a3.9,3.9,0,0,1,1.6,4.5s3.5-2.1,3.5.3l-.3,2a11,11,0,0,1,3.3-1.2,1,1,0,0,1,.9,1.4c-.8,1.5-2.5,5-3.2,4.9S130.5,45.4,130.5,45.4Z" fill="#49c4d5" stroke="#49c4d5" stroke-linecap="round" stroke-linejoin="round"/><polygon points="129.7 46.2 133.7 49.2 140.1 45.7 140.3 40.1 129.7 46.2" fill="#693990"/><path d="M131.7,30.5S131,36,127,39h3l2.8-5.3" fill="#49c4d5" stroke="#49c4d5" stroke-linecap="round" stroke-linejoin="round"/><line x1="146.2" y1="33.3" x2="149.4" y2="36.2" fill="none" stroke="#4dc4d3" stroke-linecap="round" stroke-linejoin="round"/><line x1="191.4" y1="33.7" x2="187.6" y2="35.8" fill="none" stroke="#4dc4d3" stroke-linecap="round" stroke-linejoin="round"/><line x1="178.1" y1="37.1" x2="182.5" y2="38" fill="none" stroke="#f6b24f" stroke-linecap="round" stroke-linejoin="round"/><line x1="155.4" y1="32" x2="157.6" y2="28.1" fill="none" stroke="#ed257a" stroke-linecap="round" stroke-linejoin="round"/><line x1="170.1" y1="41" x2="173.5" y2="43.8" fill="none" stroke="#ed257a" stroke-linecap="round" stroke-linejoin="round"/><line x1="136.8" y1="39.3" x2="133.2" y2="37.7" fill="none" stroke="#f6b24f" stroke-linecap="round" stroke-linejoin="round"/><line x1="157.7" y1="36.9" x2="160.9" y2="39.9" fill="none" stroke="#f6b24f" stroke-linecap="round" stroke-linejoin="round"/><line x1="130.8" y1="36.1" x2="130.9" y2="40.3" fill="none" stroke="#ed257a" stroke-linecap="round" stroke-linejoin="round"/><line x1="167.7" y1="34.8" x2="171.7" y2="33.2" fill="none" stroke="#4dc4d3" stroke-linecap="round" stroke-linejoin="round"/></g></svg>