<?xml version="1.0" encoding="utf-8"?>
<!-- Generator: Adobe Illustrator 22.1.0, SVG Export Plug-In . SVG Version: 6.00 Build 0)  -->
<svg version="1.1" id="Layer_1" xmlns="http://www.w3.org/2000/svg" xmlns:xlink="http://www.w3.org/1999/xlink" x="0px" y="0px"
	 viewBox="0 0 413 237" style="enable-background:new 0 0 413 237;" xml:space="preserve">
<style type="text/css">
	.st0{fill:#CCA285;}
	.st1{fill:#683E92;}
	.st2{fill:#F6B24F;}
	.st3{fill:#ED257A;}
	.st4{fill:#FCDAC6;}
	.st5{fill:#F2B692;}
	.st6{fill:#E0B899;}
	.st7{fill:#FFFFFF;}
	.st8{fill:#E0C2B8;}
	.st9{fill:#49C4D5;}
	.st10{fill:#9B6C4D;}
	.st11{fill:#9B6C4C;}
	.st12{fill:none;stroke:#F2B692;stroke-linecap:round;stroke-linejoin:round;}
	.st13{fill:none;stroke:#F2B692;stroke-width:0.75;stroke-linecap:round;stroke-linejoin:round;}
	.st14{fill:#F3B692;}
	.st15{fill:#211E1F;}
	.st16{fill:#49C4D5;stroke:#49C4D5;stroke-linecap:round;stroke-linejoin:round;}
	.st17{fill:#693990;}
	.st18{fill:none;stroke:#4DC4D3;stroke-width:2;stroke-linecap:round;stroke-linejoin:round;}
	.st19{fill:none;stroke:#F6B24F;stroke-width:2;stroke-linecap:round;stroke-linejoin:round;}
	.st20{fill:none;stroke:#ED257A;stroke-width:2;stroke-linecap:round;stroke-linejoin:round;}
</style>
<path class="st0" d="M11.2,100.4c-1.6-0.7-3.1-1.5-4.5-2.5c-5.2-3.7-7.9-8.5-6.2-10.8s7-1,12,2.7c1.9,1.4,3.7,3.1,5.2,5"/>
<circle class="st1" cx="115" cy="142.2" r="77"/>
<path class="st2" d="M90.7,98.6c-21.1,57.6-89.8,33.9-89.8,33.9c22.7,0,27.9-23.4,29-32.9c0.5-4.1,1.6-8.1,3.1-12
	c12.2-28.3,41-22.1,41-22.1v-0.6c0.1-16,8.7-30.7,22.5-38.8c35-20.1,62.1,7.4,62.1,7.4c25,22.7-39,32.3-39,32.3
	c-23.8,2.9-31.8,15.1-31.8,15.1L90.7,98.6z"/>
<path class="st3" d="M97.8,131.9c0,0-40.4,8.3-45,55.9c10.7,15.7,27.4,26.5,46.2,29.8c30.1,6.1,61-6.1,78.9-31
	c0,0-3.9-37.7-44.1-46.2"/>
<path class="st4" d="M159.5,51.5c6.6,3.7,7.2,25,7.2,35.3c0,3.6-0.4,7.1-1.2,10.5c-4.8,20.9-12.4,29-17,32.1
	c-1.9,1.3-4.1,1.9-6.4,1.7c-20.7-1.2-40.8-16.3-40.8-16.3c-11-7-14.9-24.8-14.9-24.8L85,92.7c-2.5,3.7-5.6,0.6-7.4-2.1
	c-1.4-2-2.3-4.2-2.7-6.6c-0.4-1.6-0.4-3.2,0-4.8c0.6-2.9,3.2-4.9,6.2-4.8c1.9,0.2,3.5,1.6,3.9,3.5c0,0,0.8,1.9,2.1,0.6l1.4-2.7
	c9-5.5,19-9.2,29.4-10.8c0,0,26.5-3.9,34.3-9.3L159.5,51.5L159.5,51.5z"/>
<ellipse class="st4" cx="110.4" cy="169.2" rx="0.7" ry="0.9"/>
<path class="st5" d="M146.1,75.7c-0.2,3.7,0,7.4,0.8,11c0.4,1.7,0.9,3.4,1.7,5c0.7,1.5,1.7,2.9,2.9,4.1l2.1,2.1
	c0.7,0.9,1.2,2,1.2,3.1c-0.2,2.3-1.8,4.2-3.9,5c-1,0.3-2.1,0.3-3.1,0l-1.4-0.6c-0.4-0.4-0.6-0.6-1-0.6c-1.6-0.9-3.4-1.1-5.2-0.6
	c1.6-1,3.6-1.1,5.4-0.4l1.4,0.6l1,0.4c0.8,0.1,1.6-0.1,2.3-0.4c1.4-0.5,2.4-1.8,2.5-3.3c0-0.7-0.3-1.4-0.8-1.9l-1.9-1.9
	c-1.3-1.4-2.4-3-3.3-4.8c-0.7-1.8-1.2-3.7-1.4-5.6C144.8,83.1,145.1,79.3,146.1,75.7z"/>
<path class="st6" d="M9.4,106.6c-0.6-3.9-1-15.1,12.8-14.3l1.7,0.4L85.2,136c0,0-20.5,1.9-16.3,19.2l-58.4-46.8
	C9.8,108,9.5,107.4,9.4,106.6z"/>
<path class="st3" d="M135.9,117.2c0,0,6.4-6.8,11-3.7c2.1-2.1,5.3-2.7,8.1-1.4c0,0-3.7,4.5-5.6,4.5
	C147.5,116.6,145.4,131,135.9,117.2z"/>
<ellipse transform="matrix(0.788 -0.6157 0.6157 0.788 -73.5437 80.0029)" class="st0" cx="79.4" cy="146.8" rx="13.2" ry="9.5"/>
<path class="st7" d="M150.2,80.1c0.3,4.8,4.3,8.6,9.1,8.7l5.6-6.4l1.7-6.2v-3.5c-0.6-2.3-2.9-3.7-5.2-3.3
	C156.5,71.5,152.6,75.3,150.2,80.1L150.2,80.1z"/>
<path class="st8" d="M140.1,125c1.3,0.6,2.7,0.8,4.1,0.6l1.9-0.4l2.1-0.8c-0.3,0.7-0.8,1.4-1.4,1.9c-0.6,0.6-1.4,0.9-2.3,1
	C142.6,127.5,140.9,126.6,140.1,125L140.1,125z"/>
<path class="st7" d="M107.2,77.6c0,0-3.9,5.2-0.8,9.7s14.1,7.9,14.1,7.9s6.4,1,11-9.3c0,0-4.5-7.2-8.5-8.1
	C122.9,77.8,109,75.5,107.2,77.6L107.2,77.6z"/>
<ellipse class="st9" cx="122.9" cy="87" rx="5.8" ry="6.4"/>
<ellipse transform="matrix(0.9826 -0.1857 0.1857 0.9826 -12.1836 30.7199)" class="st9" cx="157.9" cy="80.4" rx="5" ry="6"/>
<path class="st4" d="M164.5,200.4c-4.5-3.7-17.8-14.7-18.4-16.8l-18-19.9l-13.2-14.9c0,0-9.3-3.7-17.6-0.6c0,0-16.1,6.8-10.5,16.8
	c0,0,6.2,7,9.3,7c2,2.5,4.9,4.1,8.1,4.3l7.4-5.2l-2.7-4.6l0.1-1.2c0,0,3.1-3.3,5.6-1.2s21.9,33.7,35.3,46.8c3.8-1.9,7.5-4.2,11-6.8
	c1.3-1,2.6-2,3.7-3.1"/>
<path class="st10" d="M148.7,84.7c0-3,0.7-6,2.1-8.7c1.6-2.7,3.9-5,6.6-6.6c2.8-1.4,5.9-2.1,9.1-2.1c2.8,0.3,5.7-0.4,8.1-1.9
	c-1.8,2.5-4.7,4.1-7.9,4.3c-2.7,0.3-5.4,1.1-7.9,2.3c-2.3,1.3-4.4,3.1-6,5.2C151.3,79.5,149.9,82,148.7,84.7L148.7,84.7z M133,89.3
	c-1.4-3.1-3.5-5.8-6.2-7.9c-2.6-2-5.8-3.3-9.1-3.7c-3.2-0.4-6.5,0-9.5,1c-1.8,0.7-3.8,1.2-5.8,1.2c-2.1-0.2-4.1-1-5.6-2.5l2.5-1.4
	c0.8,2.6,2,4.9,3.7,7c1.7,2.2,3.7,4.2,6,5.8c2.3,1.6,4.7,3.1,7.2,4.3l4.1,1.7l4.1,1.2l-4.3-0.6l-4.3-1l-4.1-1.4
	c-1.4-0.6-2.7-1.4-3.9-2.3c-2.7-1.5-5-3.5-6.8-6c-2.2-2.3-3.8-5-4.5-8.1L94.8,71l4.1,4.1c2.1,2.1,5.2,2.1,8.3,0.8
	c3.5-1.2,7.3-1.5,11-0.8c3.7,0.6,7.1,2.3,9.7,5C130.4,82.6,132.1,85.8,133,89.3L133,89.3z"/>
<path class="st11" d="M165.9,70.3c0.8,2,1.1,4.1,1,6.2c-0.2,2.1-0.7,4.2-1.4,6.2l-1.7,2.9c-0.8,0.6-1.4,1.7-2.3,2.3
	c-1.7,1.4-3.7,2.3-5.8,2.7c1.7-1.1,3.2-2.5,4.5-3.9c1.4-1.3,2.4-3,3.1-4.8C165,78.3,165.8,74.3,165.9,70.3L165.9,70.3z"/>
<path class="st12" d="M108.4,167.3c0,0,2.5-6.6,6.8-2.3c0,0,25.4,37,34.7,45.9"/>
<path class="st4" d="M80.4,210.3l18.2-31.8l5.6-28.5c0.2-1.9-0.6-3.7-2.1-5c-7.7-7.7-14.9-4.8-17.8-2.3c-1.1,1.1-2.4,2-3.7,2.9
	c-2.5,1.7-6.8,7-3.1,23.6c0,0,0,7.3-11.6,33c4,3.8,8.8,6.7,13.8,9"/>
<path class="st11" d="M165.5,69.5c1.6-1.5,2.5-3.6,2.7-5.8c-0.8,2.1-4.3,3.9-4.3,3.9L165.5,69.5z"/>
<path class="st12" d="M66.1,202.1c11.8-25.8,12.2-32.7,12.2-32.7c-3.5-16.8-0.6-22.1,1.9-23.8c1.3-0.8,2.6-1.8,3.7-2.9
	c2.9-2.5,10.1-5.4,17.8,2.3"/>
<path class="st11" d="M160.9,70.3c1.2-1.9,1.8-4.2,1.4-6.4c-0.8,1.8-2,3.5-3.5,4.8L160.9,70.3z M106.6,79c-2.1-1.6-3.6-3.8-4.1-6.4
	c1.2,2.3,6.2,3.7,6.2,3.7L106.6,79z M111.7,77.2c-1.9-1.5-3.2-3.5-3.9-5.8c1.4,1.6,3.2,2.9,5.2,3.7C113,75.1,111.7,77.2,111.7,77.2z
	"/>
<path class="st12" d="M95.5,172.3c-11.8-5-11.4-11.4-8.1-16.3c4-5.6,10.5-8.9,17.4-8.9c2.5-0.2,4.9,0.2,7.2,1
	c1.6,0.5,3.1,1.5,4.1,2.9c6.6,7.7,40.2,45.1,48.7,49.8"/>
<path class="st4" d="M105.5,109.5c1.4,17-6,22.5-6,22.5s-0.6,0.4-0.6,0.8c0.4,4.5,3.7,25.8,23.4,24.4c0,0,10.5-0.8,12-15.9
	c0,0-5.8-4.1-2.5-17L105.5,109.5z"/>
<path class="st13" d="M130.3,115.8c1.7,0.8,3.5,1.3,5.4,1.4"/>
<path class="st14" d="M105.5,117.6c0,0,9.5,16.8,25.8,18.2c0,0-1.2-5.6,0-6.8C132.6,127.7,111.1,123.2,105.5,117.6z"/>
<circle class="st15" cx="123.5" cy="87" r="2.3"/>
<circle class="st7" cx="125.2" cy="84.5" r="1.4"/>
<circle class="st15" cx="157.4" cy="80.5" r="2.3"/>
<circle class="st7" cx="158.9" cy="78.2" r="1.4"/>
<path class="st4" d="M96.7,173.6c0,0,4,3.6,5.8,3.1l4.4-1.9"/>
<path class="st3" d="M238.8,142.4c-5.3,6.3-13.1,9.8-21.3,9.5c-12,0.4-2.5-48.5-4.3-55.3c0,0,13-2.9,12,9.5
	c-0.3,2.1-0.4,4.3-0.4,6.4c2.1-5,5.6-9.3,10.1-8.7c4.5,0.6,4.1,12.2-2.9,20.7l3.5-0.4C245.9,124.2,245.3,134.5,238.8,142.4
	L238.8,142.4z M238.8,132.1c-0.4-5.8-10.1-3.1-15.1,1c-0.2,7.7,0.2,13.9,1.4,14.7C226.4,148.6,239,142,238.8,132.1L238.8,132.1z
	 M223.9,127.1v0.6c7.9-5.6,12.6-20.7,8.5-21.1C228.3,106.2,224.5,123.8,223.9,127.1z M287.1,125.9c0,0-6.6,22.7-20.7,22.7
	c-5.4,0-6-5.8-5.6-12.2c-2.4,2.9-6.2,4.3-9.9,3.7c-7-1.2-5.6-10.3,0.4-14.1c3.3-1.9,7.2-2.6,11-2.1c0-1.5,0-3-0.2-4.5
	c0,0,11.6-2.5,10.5,8.7c-1,11.2-0.2,17.4,4.1,12.6c3.8-4.3,6.5-9.4,8.1-14.9L287.1,125.9L287.1,125.9z M261.4,131.4
	c0-1.3,0.2-2.6,0.4-3.9c-2.1,0-8.3,0.4-8.5,5.2C253.2,137.4,258.3,134.5,261.4,131.4z"/>
<path class="st3" d="M329.2,128.1c0,0-7.4,27.3-22.1,27.3c-3.1-0.2-4.5-4.3-5.4-10.5c-3.3,4.1-7.9,7.4-12.6,7
	c-4.8-0.4-6.2-18-5.4-33.5h-7.4v-1.9h3.9l2.9-0.4h1v-1.2c0-0.4,0.2-2.3,0.2-3.1c0.4-7.7,0.8-13.6,0.2-15.5
	c-0.6-1.9,11.6-2.7,10.8,8.5c-0.2,1.7-0.2,3.7-0.4,6c-0.2,2.3-0.2,2.5-0.2,3.1v0.6h7.9c0.5-4.7,0.5-9.4,0.2-14.1
	c0,0,11.6-2.5,10.5,8.7c0,1.2-0.2,2.9-0.2,4.5h6.8v2.1H318l-2.1,0.4l-2.9,0.4h-0.4v1.4c-0.2,3.7-0.4,7.9-0.4,11.8
	c0,12,0,21.3,5.2,17s10.1-19.4,10.1-19.4L329.2,128.1L329.2,128.1z M302,117.2l-3.9,0.4h-3.7c-0.2,2.7-0.2,5.4-0.2,7.9
	c0,12-0.8,23,4.5,18.6c1-0.9,1.9-2,2.7-3.1c-0.2-6.8,0-15.3,0.4-22.7C301.8,117.9,301.9,117.5,302,117.2z"/>
<path class="st3" d="M351.9,128.3c-11.6,21.5-34.3,27.5-30.8,7.2c0.7-7.4,7.3-12.8,14.7-12.1l1.9,0.3c2.7,1,5.2,4.3,2.1,9.1
	s-6.2,3.7-8.7,3.7c-1.9,16.3,17-4.3,19.4-9.3L351.9,128.3z M331.2,134.7c2.7,0.5,5.5-0.7,6.8-3.1c0.4-1,1-3.9-1.7-4.1
	C333.6,127.3,332.5,127.3,331.2,134.7L331.2,134.7z"/>
<path class="st3" d="M378.9,129.4c-0.6,1.4-6.6,29.2-19.9,28.5c-9.1-0.4-4.1-19.4-3.1-29.2c-15.1-0.4-9.5-6-11-10.8
	c0,0,9.9-4.1,9.3,4.3c-0.2,1.9,2.7,1.9,2.9,1.9c0.2,0,10.1,0.2,9.1,9.3s-3.3,22.3,2.1,16.5s8.5-21.7,8.5-21.7
	S379.5,127.7,378.9,129.4z M277.6,159.5h9.3c6.4,0,11,2.1,11,7.7c0.1,3.1-1.8,6-4.8,7c3.8,0.4,6.7,3.8,6.4,7.7c0,6.2-4.8,9.3-12,9.3
	h-9.9V159.5z M286.3,172.9c5.4,0,7.7-2.1,7.7-5.2c0-3.1-2.7-5.2-7.4-5.2h-5v10.3L286.3,172.9L286.3,172.9z M287.1,187.8
	c5.4,0,8.5-1.9,8.5-6.2s-3.1-5.6-8.5-5.6h-5.6v11.8H287.1z M304,184.9c0-5,4.3-7.7,14.5-8.7c0-2.9-1-6-5-6c-2.6,0.2-5,1.1-7,2.7
	l-1.4-2.9c2.7-1.8,5.9-2.8,9.1-2.9c5.8,0,8.3,3.7,8.3,9.5v14.5h-3.3l-0.4-2.9c-2.1,2-4.9,3.3-7.9,3.5c-3.5,0.2-6.6-2.4-6.8-6
	C304,185.5,304,185.2,304,184.9L304,184.9z M318.6,185.3v-6.4c-7.9,0.8-10.5,2.9-10.5,5.8c0,2.9,1.7,3.7,4.1,3.7
	C314.7,188.3,317,187.1,318.6,185.3z M330,156.8h3.9V180l10.1-12.4h4.3l-7.9,9.5l8.9,14.1H345l-6.8-11.4l-4.3,5.2v6.2H330V156.8
	L330,156.8z M351.1,179.3c0-7.7,5.2-12.2,10.5-12.2s9.5,4.1,9.5,11c0,0.8-0.2,1.7-0.2,2.3H355c0.4,5,3.5,8.1,7.9,8.1
	c2.1,0,4.1-0.6,5.8-1.9l1.4,2.7c-2.3,1.5-4.9,2.4-7.7,2.5C356.3,191.7,351.1,187.2,351.1,179.3L351.1,179.3z M367.6,177.4
	c0-4.8-2.1-7.2-5.8-7.2c-3.7,0-6.2,2.7-6.8,7.2H367.6L367.6,177.4z M376.9,167.5h3.1l0.4,4.3h0.2c1.2-2.7,3.7-4.5,6.6-4.8
	c0.8-0.1,1.7,0.1,2.5,0.4l-0.8,3.5l-2.3-0.4c-1.9,0-4.3,1.4-5.8,5.4V191h-3.9L376.9,167.5L376.9,167.5z M392.5,200.6l0.8-3.1
	l1.7,0.4c2.7,0,4.3-2.1,5.4-5.2l0.6-1.7l-9.5-23.6h4.1l4.8,13c0.8,2.1,1.4,4.5,2.3,6.6h0.2c0.6-2.1,1.2-4.5,2.1-6.6l4.1-13h3.9
	l-8.9,25.4c-1.7,4.8-4.1,8.3-8.9,8.3C394.3,201.2,393.4,201,392.5,200.6L392.5,200.6z M215,177.9V163h3.9v14.3
	c0,4.3,1.2,6.2,4.3,6.2s4.1-1,6.4-3.9v-16.5h3.9v23.4h-3.2l-0.4-3.7c-1.8,2.6-4.7,4.2-7.9,4.3C217.1,187,215,183.9,215,177.9
	L215,177.9z M241.6,163h3.3l0.4,2.7c2-2,4.6-3.1,7.4-3.3c6.2,0,9.3,4.8,9.3,12s-4.8,12.6-10.1,12.6c-2.4-0.2-4.6-1.1-6.4-2.7v12
	h-3.9V163L241.6,163z M258.1,174.3c0-5.2-1.9-8.7-6.2-8.7c-2.5,0.2-4.8,1.4-6.4,3.3v12.2c1.6,1.5,3.6,2.4,5.8,2.5
	C255.2,183.7,258.1,180.1,258.1,174.3z"/>
<path class="st16" d="M254.6,103.3c0,0-8.5,5.4-7-0.6c0.2-1.1,0.6-2.2,1.2-3.1l3.3-4.8c0,0-4.8,1.7-6-1.2c-0.3-1.3,0.1-2.7,1.2-3.5
	c3.3-2.1,10.5-8.1,9.7-17.6c3.1,2,4.5,5.8,3.3,9.3c0,0,7.2-4.3,7.2,0.6l-0.6,4.1c2.1-1.2,4.4-2,6.8-2.5c1.1,0,2.1,1,2,2.1
	c0,0.3-0.1,0.5-0.2,0.8c-1.7,3.1-5.2,10.3-6.6,10.1C267.6,96.9,254.6,103.3,254.6,103.3L254.6,103.3z"/>
<path class="st17" d="M253,105l8.2,6.2l13.3-7.3l0.4-11.5L253,105z"/>
<path class="st16" d="M257.1,72.4c0,0-1.4,11.4-9.7,17.6h6.2l5.8-11"/>
<path class="st18" d="M287.1,78.2l6.6,6 M380.8,79l-7.9,4.4"/>
<path class="st19" d="M353.2,86.2l9.1,1.8"/>
<path class="st20" d="M306.1,75.5l4.6-8.1 M336.6,94.2l7,5.8"/>
<path class="st19" d="M267.6,90.7l-7.4-3.3 M311,85.7l6.6,6.2"/>
<path class="st20" d="M255.2,84l0.2,8.7"/>
<path class="st18" d="M331.6,81.3l8.3-3.3"/>
<path class="st12" d="M93.6,167.1c0,0,2.3,8.1,7.7,9.5c1,0.3,2.2,0.1,3.1-0.4c2.1-1,4-2.2,5.8-3.7c1.3-1,1.5-2.8,0.5-4.1
	c-0.6-0.7-1.4-1.1-2.3-1.1c-3.1-0.3-5.8,1.9-6.2,4.9v0.5 M99.6,175.9l-19.5,35.3"/>
</svg>
