<?xml version="1.0" encoding="utf-8"?>
<!-- Generator: Adobe Illustrator 22.1.0, SVG Export Plug-In . SVG Version: 6.00 Build 0)  -->
<svg version="1.1" id="Layer_1" xmlns="http://www.w3.org/2000/svg" xmlns:xlink="http://www.w3.org/1999/xlink" x="0px" y="0px"
	 viewBox="0 0 847.4 386.8" style="enable-background:new 0 0 847.4 386.8;" xml:space="preserve">
<style type="text/css">
	.st0{fill:#A5CE6F;}
	.st1{font-family:'Roboto-Regular';}
	.st2{font-size:61px;}
	.st3{font-size:36.9193px;}
	.st4{fill:#E96870;}
	.st5{font-family:'Roboto-Medium';}
	.st6{fill:#717071;}
	.st7{font-family:'Roboto-Bold';}
	.st8{font-size:13.9639px;}
	.st9{fill:#FFFFFF;}
	.st10{font-size:17.2015px;}
</style>
<text transform="matrix(1 0 0 1 112.7703 62.5547)"><tspan x="0" y="0" class="st0 st1 st2">Aa</tspan><tspan x="-89.9" y="44.3" class="st0 st1 st3">Roboto Regular</tspan></text>
<text transform="matrix(1 0 0 1 403.5504 62.5545)"><tspan x="0" y="0" class="st4 st5 st2">Aa</tspan><tspan x="-95.1" y="44.3" class="st4 st1 st3">Roboto Medium</tspan></text>
<text transform="matrix(1 0 0 1 686.7731 62.5545)"><tspan x="0" y="0" class="st6 st7 st2">Aa</tspan><tspan x="-63.9" y="44.3" class="st6 st1 st3">Roboto Bold</tspan></text>
<text transform="matrix(1 0 0 1 34.1878 144.0113)"><tspan x="0" y="0" class="st6 st1 st8">ABCDEFGHIJKLMNOPQRSTUVWXYZ</tspan><tspan x="24.5" y="16.8" class="st6 st1 st8">abcdefghijklmnopqrstuvwxyz</tspan><tspan x="78.6" y="33.5" class="st6 st1 st8">!@#$%^&amp;*()</tspan></text>
<text transform="matrix(1 0 0 1 317.695 144.0111)"><tspan x="0" y="0" class="st6 st5 st8">ABCDEFGHIJKLMNOPQRSTUVWXYZ</tspan><tspan x="23.6" y="16.8" class="st6 st5 st8">abcdefghijklmnopqrstuvwxyz</tspan><tspan x="78.9" y="33.5" class="st6 st5 st8">!@#$%^&amp;*()</tspan></text>
<text transform="matrix(1 0 0 1 607.293 144.0112)"><tspan x="0" y="0" class="st6 st7 st8">ABCDEFGHIJKLMNOPQRSTUVWXYZ</tspan><tspan x="24.2" y="16.8" class="st6 st7 st8">abcdefghijklmnopqrstuvwxyz</tspan><tspan x="79.2" y="33.5" class="st6 st7 st8">!@#$%^&amp;*()</tspan></text>
<rect x="27.8" y="232.3" class="st0" width="133.2" height="133.2"/>
<rect x="186.1" y="232.3" class="st4" width="133.2" height="133.2"/>
<rect x="344.4" y="232.3" class="st6" width="133.2" height="133.2"/>
<g>
	
		<image style="overflow:visible;" width="29" height="26" id="fjtDtz_1_" xlink:href="64B00F42AD6AD70D.png"  transform="matrix(1 0 0 1 557.4364 241.281)">
	</image>
</g>
<g>
	
		<image style="overflow:visible;" width="25" height="25" id="dqxhaz_1_" xlink:href="64B00F42AD6AD70F.png"  transform="matrix(1 0 0 1 605.6455 241.781)">
	</image>
</g>
<g>
	
		<image style="overflow:visible;" width="27" height="27" id="rzFe6p_1_" xlink:href="64B00F42AD6AD70A.png"  transform="matrix(1 0 0 1 645.0787 240.781)">
	</image>
</g>
<g>
	
		<image style="overflow:visible;" width="19" height="17" id="GSLkP0_1_" xlink:href="64B00F42AD6AD70B.png"  transform="matrix(1.179 0 0 1.179 686.512 246.7387)">
	</image>
</g>
<g>
	
		<image style="overflow:visible;" width="20" height="18" id="IyHcWF_1_" xlink:href="64B00F42AD6AD715.png"  transform="matrix(1 0 0 1 721.6819 245.281)">
	</image>
</g>
<g>
	
		<image style="overflow:visible;" width="23" height="23" id="IUt8dU_1_" xlink:href="64B00F42AD6AD717.png"  transform="matrix(1 0 0 1 754.4517 242.781)">
	</image>
</g>
<g>
	
		<image style="overflow:visible;" width="24" height="24" id="UDnyzi_1_" xlink:href="64B00F42AD6AD71A.png"  transform="matrix(1 0 0 1 794.0475 242.281)">
	</image>
</g>
<text transform="matrix(1 0 0 1 54.7146 305.4183)" class="st9 st5 st10">#A5CE6F</text>
<text transform="matrix(1 0 0 1 218.2408 305.4183)" class="st9 st5 st10">#E96870</text>
<text transform="matrix(1 0 0 1 376.4015 305.4187)" class="st9 st5 st10">#717071</text>
</svg>
