<svg xmlns="http://www.w3.org/2000/svg"><symbol id="batterupbakery-01" viewBox="0 0 412.4 236.2"><style>.st0{fill:#cca285}.st1{fill:#683e92}.st2{fill:#f6b24f}.st3{fill:#ed257a}.st4{fill:#fcdac6}.st5{fill:#f2b692}.st6{fill:#e0b899}.st7{fill:#fff}.st8{fill:#e0c2b8}.st9{fill:#49c4d5}.st10{fill:#9b6c4d}.st11{fill:#9b6c4c}.st12,.st13{fill:none;stroke:#f2b692;stroke-linecap:round;stroke-linejoin:round}.st13{stroke:#ed257a;stroke-width:.75}.st14{fill:#f3b692}.st15{fill:#211e1f}.st16{fill:#49c4d5;stroke:#49c4d5;stroke-linecap:round;stroke-linejoin:round}.st17{fill:#693990}.st18{stroke:#4dc4d3}.st18,.st19,.st20{fill:none;stroke-width:2;stroke-linecap:round;stroke-linejoin:round}.st19{stroke:#f6b24f}.st20{stroke:#ed257a}</style><path id="ASSETS" d="M11.2 100c-1.6-.7-3.1-1.5-4.5-2.5C1.5 93.8-1.2 89 .5 86.7c1.7-2.3 7-1 12 2.7 1.9 1.4 3.7 3.1 5.2 5" class="st0"/><g id="FINAL"><circle cx="114.8" cy="141.8" r="76.9" class="st1"/><path d="M90.6 98.2C69.5 155.7.9 132.1.9 132.1c22.7 0 27.9-23.4 29-32.9.5-4.1 1.6-8.1 3.1-12 12.2-28.3 40.9-22.1 40.9-22.1v-.6c.1-16 8.7-30.7 22.5-38.7 34.9-20.1 62 7.4 62 7.4 25 22.7-38.9 32.3-38.9 32.3-23.8 2.9-31.8 15.1-31.8 15.1l2.9 17.6z" class="st2"/><path d="M97.7 131.5s-40.3 8.3-44.9 55.8c10.7 15.7 27.4 26.5 46.1 29.8 30.1 6.1 60.9-6.1 78.8-31 0 0-3.9-37.6-44-46.1" class="st3"/><path d="M159.3 51.2c6.6 3.7 7.2 25 7.2 35.2 0 3.6-.4 7.1-1.2 10.5-4.8 20.9-12.4 29-17 32.1-1.9 1.3-4.1 1.9-6.4 1.7-20.7-1.2-40.7-16.3-40.7-16.3-11-7-14.9-24.8-14.9-24.8l-1.4 2.7c-2.5 3.7-5.6.6-7.4-2.1-1.4-2-2.3-4.2-2.7-6.6-.4-1.6-.4-3.2 0-4.8.6-2.9 3.2-4.9 6.2-4.8 1.9.2 3.5 1.6 3.9 3.5 0 0 .8 1.9 2.1.6l1.4-2.7c9-5.5 19-9.2 29.4-10.8 0 0 26.5-3.9 34.3-9.3l7.2-4.1z" class="st4"/><path d="M145.9 75.4c-.2 3.7 0 7.4.8 11 .4 1.7.9 3.4 1.7 5 .7 1.5 1.7 2.9 2.9 4.1l2.1 2.1c.7.9 1.2 2 1.2 3.1-.2 2.3-1.8 4.2-3.9 5-1 .3-2.1.3-3.1 0l-1.4-.6c-.4-.4-.6-.6-1-.6-1.6-.9-3.4-1.1-5.2-.6 1.6-1 3.6-1.1 5.4-.4l1.4.6 1 .4c.8.1 1.6-.1 2.3-.4 1.4-.5 2.4-1.8 2.5-3.3 0-.7-.3-1.4-.8-1.9l-1.9-1.9c-1.3-1.4-2.4-3-3.3-4.8-.7-1.8-1.2-3.7-1.4-5.6-.6-3.8-.3-7.6.7-11.2z" class="st5"/><path d="M9.4 106.2c-.6-3.9-1-15.1 12.8-14.3l1.7.4 61.2 43.2s-20.5 1.9-16.3 19.2L10.5 108c-.7-.4-1-1-1.1-1.8z" class="st6"/><path d="M135.7 116.8s6.4-6.8 11-3.7c2.1-2.1 5.3-2.7 8.1-1.4 0 0-3.7 4.5-5.6 4.5s-4 14.4-13.5.6z" class="st3"/><ellipse cx="79.3" cy="146.4" class="st0" rx="13.2" ry="9.5" transform="rotate(-38.001 79.293 146.425)"/><path d="M150 79.8c.3 4.8 4.3 8.6 9.1 8.7l5.6-6.4 1.7-6.2v-3.5c-.6-2.3-2.9-3.7-5.2-3.3-4.9 2.1-8.8 5.9-11.2 10.7z" class="st7"/><path d="M139.9 124.6c1.3.6 2.7.8 4.1.6l1.9-.4 2.1-.8c-.3.7-.8 1.4-1.4 1.9-.6.6-1.4.9-2.3 1-1.9.2-3.6-.7-4.4-2.3z" class="st8"/><path d="M107 77.3s-3.9 5.2-.8 9.7c3.1 4.5 14.1 7.9 14.1 7.9s6.4 1 11-9.3c0 0-4.5-7.2-8.5-8.1-.1 0-14-2.3-15.8-.2z" class="st7"/><ellipse cx="122.7" cy="86.6" class="st9" rx="5.8" ry="6.4"/><ellipse cx="157.7" cy="80.1" class="st9" rx="5" ry="6" transform="rotate(-10.704 157.676 80.046)"/><path d="M164.3 199.9c-4.5-3.7-17.8-14.7-18.4-16.8l-18-19.9-13.2-14.9s-9.3-3.7-17.6-.6c0 0-16.1 6.8-10.5 16.8 0 0 6.2 7 9.3 7 2 2.5 4.9 4.1 8.1 4.3l7.4-5.2-1-3.3-1-2.5s2.5-3.3 5-1.2 21.9 33.7 35.2 46.7c3.8-1.9 7.5-4.2 11-6.8 1.3-1 2.6-2 3.7-3.1" class="st4"/><path d="M148.5 84.3c0-3 .7-6 2.1-8.7 1.6-2.7 3.9-5 6.6-6.6 2.8-1.4 5.9-2.1 9.1-2.1 2.8.3 5.7-.4 8.1-1.9-1.8 2.5-4.7 4.1-7.9 4.3-2.7.3-5.4 1.1-7.9 2.3-2.3 1.3-4.4 3.1-6 5.2-1.5 2.4-2.9 4.9-4.1 7.5zm-15.7 4.6c-1.4-3.1-3.5-5.8-6.2-7.9-2.6-2-5.8-3.3-9.1-3.7-3.2-.4-6.5 0-9.5 1-1.8.7-3.8 1.2-5.8 1.2-2.1-.2-4.1-1-5.6-2.5l2.5-1.4c.8 2.6 2 4.9 3.7 7 1.7 2.2 3.7 4.2 6 5.8 2.3 1.6 4.7 3.1 7.2 4.3l4.1 1.7 4.1 1.2-4.3-.6-4.3-1-4.1-1.4c-1.4-.6-2.7-1.4-3.9-2.3-2.7-1.5-5-3.5-6.8-6-2.2-2.3-3.8-5-4.5-8.1l-1.7-5.6 4.1 4.1c2.1 2.1 5.2 2.1 8.3.8 3.5-1.2 7.3-1.5 11-.8 3.7.6 7.1 2.3 9.7 5 2.5 2.6 4.2 5.7 5.1 9.2z" class="st10"/><path d="M165.7 70c.8 2 1.1 4.1 1 6.2-.2 2.1-.7 4.2-1.4 6.2l-1.7 2.9c-.8.6-1.4 1.7-2.3 2.3-1.7 1.4-3.7 2.3-5.8 2.7 1.7-1.1 3.2-2.5 4.5-3.9 1.4-1.3 2.4-3 3.1-4.8 1.7-3.6 2.5-7.6 2.6-11.6z" class="st11"/><path d="M108.2 166.8s2.5-6.6 6.8-2.3c0 0 24.6 37.2 33.9 46.1" class="st12"/><path d="M80.3 209.8L98.5 178l5.6-28.5c.2-1.9-.6-3.7-2.1-5-7.7-7.7-14.9-4.8-17.8-2.3-1.1 1.1-2.4 2-3.7 2.9-2.5 1.7-6.8 7-3.1 23.6 0 0 .2 7.2-11.4 32.9 4 3.8 8.6 6.8 13.6 9.1" class="st4"/><path d="M165.3 69.2c1.6-1.5 2.5-3.6 2.7-5.8-.8 2.1-4.3 3.9-4.3 3.9l1.6 1.9z" class="st11"/><path d="M66 201.6c11.8-25.8 12.2-32.7 12.2-32.7-3.5-16.8-.6-22.1 1.9-23.8 1.3-.8 2.6-1.8 3.7-2.9 2.9-2.5 10.1-5.4 17.8 2.3" class="st12"/><path d="M160.7 70c1.2-1.9 1.8-4.2 1.4-6.4-.8 1.8-2 3.5-3.5 4.8l2.1 1.6zm-54.3 8.7c-2.1-1.6-3.6-3.8-4.1-6.4 1.2 2.3 6.2 3.7 6.2 3.7l-2.1 2.7zm5.1-1.8c-1.9-1.5-3.2-3.5-3.9-5.8 1.4 1.6 3.2 2.9 5.2 3.7l-1.3 2.1z" class="st11"/><path d="M95.4 171.8c-11.8-5-11.4-11.4-8.1-16.3 4-5.6 10.5-8.9 17.4-8.9 2.5-.2 4.9.2 7.2 1 1.6.5 3.1 1.5 4.1 2.9 6.6 7.7 39.5 45.3 48 50" class="st12"/><path d="M105.3 109.1c1.4 17-6 22.5-6 22.5s-.6.4-.6.8c.4 4.5 3.7 25.8 23.4 24.4 0 0 10.5-.8 12-15.9 0 0-5.8-4.1-2.5-17l-26.3-14.8z" class="st4"/><path d="M93.5 166.6s2.3 8.1 7.7 9.5c1 .3 2.2.1 3.1-.4 2.1-1 4-2.2 5.8-3.7 1.3-1 1.5-2.8.5-4.1-.6-.7-1.4-1.1-2.3-1.1-3.1-.3-5.8 1.9-6.2 4.9v.5m-2.4 3.3l-19.8 34.7" class="st12"/><path d="M131.6 115.5c1.7.8 3.5 1.3 5.4 1.4" class="st13"/><path d="M105.3 117.2s9.5 16.8 25.8 18.2c0 0-1.2-5.6 0-6.8 1.3-1.3-20.2-5.8-25.8-11.4z" class="st14"/><circle cx="123.3" cy="86.6" r="2.3" class="st15"/><circle cx="125" cy="84.1" r="1.4" class="st7"/><circle cx="157.2" cy="80.2" r="2.3" class="st15"/><circle cx="158.7" cy="77.9" r="1.4" class="st7"/><path d="M238.5 142c-5.3 6.3-13.1 9.8-21.3 9.5-12 .4-2.5-48.4-4.3-55.2 0 0 13-2.9 12 9.5-.3 2.1-.4 4.3-.4 6.4 2.1-5 5.6-9.3 10.1-8.7 4.5.6 4.1 12.2-2.9 20.7l3.5-.4c10.3 0 9.7 10.3 3.3 18.2zm0-10.3c-.4-5.8-10.1-3.1-15.1 1-.2 7.7.2 13.9 1.4 14.7 1.3.8 13.9-5.8 13.7-15.7zm-14.9-5v.6c7.9-5.6 12.6-20.7 8.5-21.1-4.1-.4-7.9 17.2-8.5 20.5zm63.1-1.2s-6.6 22.7-20.7 22.7c-5.4 0-6-5.8-5.6-12.2-2.4 2.9-6.2 4.3-9.9 3.7-7-1.2-5.6-10.3.4-14.1 3.3-1.9 7.2-2.6 11-2.1 0-1.5 0-3-.2-4.5 0 0 11.6-2.5 10.5 8.7-1 11.2-.2 17.4 4.1 12.6 3.8-4.3 6.5-9.4 8.1-14.9h2.3zM261 131c0-1.3.2-2.6.4-3.9-2.1 0-8.3.4-8.5 5.2-.1 4.7 5 1.8 8.1-1.3z" class="st3"/><path d="M328.7 127.7s-7.4 27.3-22.1 27.3c-3.1-.2-4.5-4.3-5.4-10.5-3.3 4.1-7.9 7.4-12.6 7-4.8-.4-6.2-18-5.4-33.5h-7.4v-1.9h3.9l2.9-.4h1v-1.2c0-.4.2-2.3.2-3.1.4-7.7.8-13.6.2-15.5s11.6-2.7 10.8 8.5c-.2 1.7-.2 3.7-.4 6s-.2 2.5-.2 3.1v.6h7.9c.5-4.7.5-9.4.2-14.1 0 0 11.6-2.5 10.5 8.7 0 1.2-.2 2.9-.2 4.5h6.8v2.1h-1.9l-2.1.4-2.9.4h-.4v1.4c-.2 3.7-.4 7.9-.4 11.8 0 12 0 21.3 5.2 17 5.2-4.3 10.1-19.4 10.1-19.4l1.7.8zm-27.1-10.9l-3.9.4H294c-.2 2.7-.2 5.4-.2 7.9 0 12-.8 23 4.5 18.6 1-.9 1.9-2 2.7-3.1-.2-6.8 0-15.3.4-22.7 0-.4.1-.8.2-1.1z" class="st3"/><path d="M351.4 127.9c-11.6 21.5-34.3 27.5-30.8 7.2.7-7.4 7.3-12.8 14.7-12.1.6.1 1.3.2 1.9.3 2.7 1 5.2 4.3 2.1 9.1s-6.2 3.7-8.7 3.7c-1.9 16.3 17-4.3 19.4-9.3l1.4 1.1zm-20.7 6.4c2.7.5 5.5-.7 6.8-3.1.4-1 1-3.9-1.7-4.1s-3.8-.2-5.1 7.2z" class="st3"/><path d="M378.3 129c-.6 1.4-6.6 29.2-19.9 28.5-9.1-.4-4.1-19.4-3.1-29.2-15.1-.4-9.5-6-11-10.8 0 0 9.9-4.1 9.3 4.3-.2 1.9 2.7 1.9 2.9 1.9.2 0 10.1.2 9.1 9.3-1 9.1-3.3 22.3 2.1 16.5s8.5-21.7 8.5-21.7 2.7-.5 2.1 1.2zm-101.1 30h9.3c6.4 0 11 2.1 11 7.7.1 3.1-1.8 6-4.8 7 3.8.4 6.7 3.8 6.4 7.7 0 6.2-4.8 9.3-12 9.3h-9.9V159zm8.7 13.4c5.4 0 7.7-2.1 7.7-5.2s-2.7-5.2-7.4-5.2h-5v10.3h4.7zm.8 14.9c5.4 0 8.5-1.9 8.5-6.2 0-4.3-3.1-5.6-8.5-5.6h-5.6v11.8h5.6zm16.9-2.9c0-5 4.3-7.7 14.5-8.7 0-2.9-1-6-5-6-2.6.2-5 1.1-7 2.7l-1.4-2.9c2.7-1.8 5.9-2.8 9.1-2.9 5.8 0 8.3 3.7 8.3 9.5v14.5h-3.3l-.4-2.9c-2.1 2-4.9 3.3-7.9 3.5-3.5.2-6.6-2.4-6.8-6-.1-.2-.1-.5-.1-.8zm14.5.4v-6.4c-7.9.8-10.5 2.9-10.5 5.8s1.7 3.7 4.1 3.7c2.5-.1 4.8-1.3 6.4-3.1zm11.4-28.5h3.9v23.2l10.1-12.4h4.3l-7.9 9.5 8.9 14.1h-4.3l-6.8-11.4-4.3 5.2v6.2h-3.9v-34.4zm21.1 22.5c0-7.7 5.2-12.2 10.5-12.2s9.5 4.1 9.5 11c0 .8-.2 1.7-.2 2.3h-15.9c.4 5 3.5 8.1 7.9 8.1 2.1 0 4.1-.6 5.8-1.9l1.4 2.7c-2.3 1.5-4.9 2.4-7.7 2.5-6.1-.1-11.3-4.6-11.3-12.5zm16.5-1.9c0-4.8-2.1-7.2-5.8-7.2-3.7 0-6.2 2.7-6.8 7.2h12.6zm9.3-9.9h3.1l.4 4.3h.2a8.1 8.1 0 0 1 6.6-4.8c.8-.1 1.7.1 2.5.4l-.8 3.5-2.3-.4c-1.9 0-4.3 1.4-5.8 5.4v15.1h-3.9V167zm15.5 33.1l.8-3.1 1.7.4c2.7 0 4.3-2.1 5.4-5.2l.6-1.7-9.5-23.6h4.1l4.8 13c.8 2.1 1.4 4.5 2.3 6.6h.2c.6-2.1 1.2-4.5 2.1-6.6l4.1-13h3.9l-8.9 25.4c-1.7 4.8-4.1 8.3-8.9 8.3-.9.1-1.8-.1-2.7-.5zm-177.2-22.7v-14.9h3.9v14.3c0 4.3 1.2 6.2 4.3 6.2 3.1 0 4.1-1 6.4-3.9v-16.5h3.9V186H230l-.4-3.7a9.95 9.95 0 0 1-7.9 4.3c-4.9-.1-7-3.2-7-9.2zm26.5-14.9h3.3l.4 2.7c2-2 4.6-3.1 7.4-3.3 6.2 0 9.3 4.8 9.3 12s-4.8 12.6-10.1 12.6c-2.4-.2-4.6-1.1-6.4-2.7v12h-3.9v-33.3zm16.5 11.3c0-5.2-1.9-8.7-6.2-8.7-2.5.2-4.8 1.4-6.4 3.3v12.2c1.6 1.5 3.6 2.4 5.8 2.5 3.9.1 6.8-3.5 6.8-9.3z" class="st3"/><path d="M254.2 102.9s-8.5 5.4-7-.6c.2-1.1.6-2.2 1.2-3.1l3.3-4.8s-4.8 1.7-6-1.2c-.3-1.3.1-2.7 1.2-3.5 3.3-2.1 10.5-8.1 9.7-17.6 3.1 2 4.5 5.8 3.3 9.3 0 0 7.2-4.3 7.2.6l-.6 4.1c2.1-1.2 4.4-2 6.8-2.5 1.1 0 2.1 1 2 2.1 0 .3-.1.5-.2.8-1.7 3.1-5.2 10.3-6.6 10.1-1.3-.1-14.3 6.3-14.3 6.3z" class="st16"/><path d="M252.6 104.6l8.2 6.2 13.3-7.3.4-11.5z" class="st17"/><path d="M256.7 72.1s-1.4 11.4-9.7 17.6h6.2l5.8-11" class="st16"/><path d="M286.7 77.9l6.6 6m86.9-5.2l-7.9 4.4" class="st18"/><path d="M352.7 85.8l9.1 1.8" class="st19"/><path d="M305.7 75.2l4.6-8.1m25.8 26.7l7 5.8" class="st20"/><path d="M267.2 90.3l-7.4-3.3m50.7-1.7l6.6 6.2" class="st19"/><path d="M254.8 83.7l.2 8.7" class="st20"/><path d="M331.1 81l8.3-3.3" class="st18"/></g></symbol><symbol id="batterupbakery-02" viewBox="0 0 208.9 104.4"><path fill="#aaa" d="M10.8 43l-2.2-1.2c-2.4-1.8-3.8-4.1-3-5.2s3.4-.5 5.8 1.3a9.6 9.6 0 0 1 2.5 2.4"/><circle cx="60.9" cy="63.2" r="37.2" fill="#3d3d3d"/><path fill="#b6b6b6" d="M49.3 42.1C39 69.9 5.8 58.4 5.8 58.4c11 0 13.5-11.3 14.1-15.8a19.1 19.1 0 0 1 1.5-5.8C27.2 23.1 41.1 26 41.1 26v-.2A22.2 22.2 0 0 1 52 7.1c16.9-9.7 30 3.6 30 3.6 12.1 10.9-18.8 15.6-18.8 15.6-11.5 1.4-15.3 7.3-15.3 7.3z"/><path fill="#696969" d="M52.7 58.2s-19.5 4-21.8 27a34.2 34.2 0 0 0 22.3 14.4 37.7 37.7 0 0 0 38.1-15s-1.9-18.2-21.2-22.3"/><path fill="#e1e1e1" d="M82.4 19.4c3.2 1.8 3.6 12.1 3.5 17a22.1 22.1 0 0 1-.5 5.1c-2.4 10.1-6.1 14-8.2 15.5a4.8 4.8 0 0 1-3.1.8c-10.1-.6-19.8-7.9-19.8-7.9-5.3-3.4-7.1-12-7.1-12l-.8 1.3c-1.1 1.8-2.6.3-3.6-1.1a8.3 8.3 0 0 1-1.3-3.2 5.4 5.4 0 0 1 0-2.2 2.9 2.9 0 0 1 3-2.3 2.2 2.2 0 0 1 1.9 1.7s.4.9 1 .2l.8-1.2a38.1 38.1 0 0 1 14.1-5.2s12.9-1.9 16.6-4.5z"/><path fill="silver" d="M75.9 31.1a17.7 17.7 0 0 0 .4 5.2 18.3 18.3 0 0 0 .8 2.5 9.5 9.5 0 0 0 1.5 2l.9 1a1.9 1.9 0 0 1 .6 1.5 3 3 0 0 1-1.9 2.4 2.6 2.6 0 0 1-1.5 0l-.7-.3-.5-.4a3.6 3.6 0 0 0-2.5-.2 3.2 3.2 0 0 1 2.7-.2l.6.3.6.2a2.3 2.3 0 0 0 1.1-.2 2.1 2.1 0 0 0 1.2-1.6 1.8 1.8 0 0 0-.4-.9l-1-.9a7.5 7.5 0 0 1-1.5-2.4 11.2 11.2 0 0 1-.8-2.6 14 14 0 0 1 .4-5.4zm-66 14.8c-.3-1.8-.5-7.2 6.2-6.8l.8.2 29.6 20.9s-9.8.9-7.8 9.3L10.4 46.9a1.4 1.4 0 0 1-.5-1z"/><path fill="#696969" d="M71 51.1s3.1-3.3 5.3-1.8a3.5 3.5 0 0 1 3.9-.7s-1.7 2.2-2.6 2.2-2 7-6.6.3z"/><ellipse cx="43.7" cy="65.5" fill="#aaa" rx="6.4" ry="4.6" transform="rotate(-38 43.696 65.56)"/><path fill="#fff" d="M77.9 33.2a4.4 4.4 0 0 0 4.4 4.1l2.7-3 .8-3v-1.7a2.1 2.1 0 0 0-2.5-1.6s-3 1-5.4 5.2z"/><path fill="#ccc" d="M73 54.9a3.6 3.6 0 0 0 2 .3l1-.2 1-.4a2.3 2.3 0 0 1-.8.9 2.2 2.2 0 0 1-1.1.5 2.2 2.2 0 0 1-2.1-1.1z"/><path fill="#fff" d="M57.1 31.9s-1.9 2.6-.4 4.8 6.8 3.8 6.8 3.8 3.1.5 5.4-4.5c0 0-2.2-3.5-4.2-3.9 0 0-6.6-1.1-7.6-.2z"/><ellipse cx="64.7" cy="36.5" fill="#cbcbcb" rx="2.8" ry="3.1"/><ellipse cx="81.6" cy="33.4" fill="#cbcbcb" rx="2.4" ry="2.9" transform="rotate(-10.7 81.425 33.478)"/><path fill="#e1e1e1" d="M84.8 91.3c-2.2-1.8-8.6-7.2-8.8-8.1l-8.8-9.6-6.3-7.2s-4.5-1.9-8.6-.3c0 0-7.7 3.3-5.1 8 0 0 3 3.5 4.5 3.5a5.6 5.6 0 0 0 4 2.1l3.6-2.5-.5-1.7-.6-1.1s1.2-1.6 2.5-.6 10.6 16.3 16.9 22.6a40.5 40.5 0 0 0 5.4-3.3 10.7 10.7 0 0 0 1.7-1.5"/><path fill="#555" d="M77.3 35.4a7.9 7.9 0 0 1 1-4.2 7.6 7.6 0 0 1 3.2-3.2 8.3 8.3 0 0 1 4.3-1 6.6 6.6 0 0 0 3.9-.9 5.1 5.1 0 0 1-3.8 2.1 9.4 9.4 0 0 0-3.7 1.1 8.8 8.8 0 0 0-2.9 2.5 15.8 15.8 0 0 0-2 3.6zm-7.7 2.2a9.4 9.4 0 0 0-3-3.8 9 9 0 0 0-4.4-1.8 10.4 10.4 0 0 0-4.6.5 8.2 8.2 0 0 1-2.7.6 4.7 4.7 0 0 1-2.8-1.2l1.3-.7a11.2 11.2 0 0 0 1.8 3.4 14.8 14.8 0 0 0 2.8 2.8 21.2 21.2 0 0 0 3.6 2.1l1.9.8 2 .6-2.1-.3-2.1-.5a10.4 10.4 0 0 1-2-.8 6.9 6.9 0 0 1-1.9-1 13 13 0 0 1-3.3-2.9 10.7 10.7 0 0 1-2.2-3.9l-.8-2.7 2.1 2c.9 1 2.4 1 3.9.4a9.6 9.6 0 0 1 5.3-.4 8.2 8.2 0 0 1 4.7 2.4 8.9 8.9 0 0 1 2.5 4.4z"/><path fill="#545454" d="M85.5 28.5a7.3 7.3 0 0 1 .5 3 8.2 8.2 0 0 1-.7 3 5.7 5.7 0 0 1-.8 1.3 13.1 13.1 0 0 1-1.1 1.2 6.1 6.1 0 0 1-2.7 1.3l2.2-1.9a11.4 11.4 0 0 0 1.5-2.3 14.7 14.7 0 0 0 1.1-5.6z"/><path fill="none" stroke="silver" stroke-linecap="round" stroke-linejoin="round" d="M57.7 75.3s1.2-3.2 3.3-1.2c0 0 11.9 18 16.4 22.4"/><path fill="#e1e1e1" d="M44.2 96.1l8.9-15.4 2.6-13.8a2.8 2.8 0 0 0-1-2.4c-3.7-3.7-7.2-2.3-8.6-1.1a10.9 10.9 0 0 1-1.7 1.3c-1.3.9-3.4 3.5-1.6 11.5 0 0 .2 3.5-5.5 15.9a24 24 0 0 0 6.7 4.4"/><path fill="#545454" d="M85.3 28.1a4.6 4.6 0 0 0 1.3-2.8c-.3 1-2.1 1.9-2.1 1.9z"/><path fill="none" stroke="silver" stroke-linecap="round" stroke-linejoin="round" d="M37.3 92.1c5.7-12.5 6-15.8 6-15.8-1.8-8.1-.4-10.7.9-11.5l1.7-1.4c1.5-1.2 5-2.6 8.7 1.1"/><path fill="#545454" d="M83.2 28.5a4.8 4.8 0 0 0 .6-3.1c-.1 1-1.7 2.3-1.7 2.3zm-26.3 4.2a4.9 4.9 0 0 1-2-3.1c.6 1.1 2.9 1.8 2.9 1.8zm2.4-.9a5.2 5.2 0 0 1-1.8-2.8c.5 1 2.4 1.7 2.4 1.7z"/><path fill="none" stroke="silver" stroke-linecap="round" stroke-linejoin="round" d="M51.6 77.7c-5.8-2.4-5.6-5.5-3.9-7.9a10 10 0 0 1 8.3-4.3 8.4 8.4 0 0 1 3.5.5 4.9 4.9 0 0 1 2.1 1.4c3.2 3.7 19 21.9 23.1 24.2"/><path fill="#e1e1e1" d="M56.3 47.4c.7 8.1-2.9 10.9-2.9 10.9s-.3.2-.3.4c.3 2.2 1.9 12.5 11.4 11.8 0 0 5.1-.4 5.8-7.7 0 0-2.9-2-1.2-8.2z"/><path fill="none" stroke="silver" stroke-linecap="round" stroke-linejoin="round" d="M50.6 75.2s1.1 3.9 3.8 4.6a2.2 2.2 0 0 0 1.4-.2 19.2 19.2 0 0 0 2.9-1.8 1.5 1.5 0 0 0-1-2.5 2.6 2.6 0 0 0-2.9 2.6m-1.1 1.6L44 96.3"/><path fill="none" stroke="#696969" stroke-linecap="round" stroke-linejoin="round" stroke-width=".75" d="M69.1 50.5a7 7 0 0 0 2.5.6"/><path fill="silver" d="M56.3 51.3s4.7 8.1 12.6 8.8c0 0-.6-2.7 0-3.3S59 54 56.3 51.3z"/><circle cx="65.1" cy="36.4" r="1.1"/><circle cx="65.8" cy="35.3" r=".7" fill="#fff"/><circle cx="81.4" cy="33.4" r="1.1"/><circle cx="82.2" cy="32.3" r=".7" fill="#fff"/><path fill="#696969" d="M120.7 63.3a12.8 12.8 0 0 1-10.2 4.6c-5.9.2-1.3-23.4-2.2-26.7 0 0 6.3-1.4 5.8 4.6-.1.9-.1 1.9-.2 3 1.1-2.3 2.7-4.4 4.9-4.2s2 6-1.4 10.1l1.7-.2c5 0 4.7 5 1.6 8.8zm0-5c-.1-2.8-4.9-1.5-7.3.5-.1 3.7.1 6.7.7 7.1s6.7-2.8 6.6-7.6zm-7.2-2.4v.3c3.8-2.7 6.2-10 4.2-10.2s-3.9 8.3-4.2 9.9zm30.5-.6s-3.2 11-9.9 11c-2.6 0-3-2.8-2.8-5.9a5.2 5.2 0 0 1-4.8 1.8c-3.4-.6-2.6-5.1.2-6.8a8.2 8.2 0 0 1 5.3-1 5.1 5.1 0 0 0-.1-2.2s5.6-1.2 5.2 4.2-.1 8.4 1.9 6.1a18.6 18.6 0 0 0 3.9-7.2zM131.6 58c.1-.7.1-1.3.2-1.9s-4 .2-4 2.5 2.4.9 3.8-.6z"/><path fill="#696969" d="M164.3 56.4s-3.6 13.2-10.7 13.2c-1.5-.1-2.2-2.1-2.5-5.1-1.7 2-3.8 3.6-6.2 3.4s-2.9-8.7-2.6-16.2h-3.6v-.9h2l1.3-.2h.5V50c0-.2.1-1.1.1-1.5a53.2 53.2 0 0 0 .2-7.5s5.6-1.3 5.1 4.1c0 .8-.1 1.8-.2 2.9v1.8h3.7a39.4 39.4 0 0 0 .1-6.8s5.6-1.2 5.2 4.2c-.1.6-.1 1.4-.2 2.2h3.3v1.1h-.9l-1 .2-1.4.2h-.1a1.7 1.7 0 0 0-.1.7c-.1 1.8-.1 3.7-.2 5.7.1 5.7 0 10.3 2.6 8.2s4.9-9.4 4.9-9.4zm-13.1-5.3l-1.9.2h-1.8c-.1 1.2-.1 2.6-.1 3.8 0 5.8-.3 11.1 2.2 9a10.3 10.3 0 0 0 1.4-1.5 102.3 102.3 0 0 1 .2-11z"/><path fill="#696969" d="M175.3 56.5c-5.6 10.3-16.5 13.3-14.9 3.5a6.6 6.6 0 0 1 8-5.7c1.3.4 2.5 2.1 1.1 4.4s-3.1 1.8-4.3 1.8c-.9 7.9 8.3-2.1 9.4-4.5zm-10 3.1c2.2.2 3-.9 3.3-1.5s.5-1.9-.8-2-1.8-.1-2.5 3.5z"/><path fill="#696969" d="M188.3 56.9c-.2.8-3.2 14.1-9.6 13.9-4.3-.2-2-9.4-1.5-14.1-7.3-.2-4.5-2.9-5.2-5.2 0 0 4.7-2 4.4 2.1-.1.9 1.4.9 1.4.9s4.9.1 4.4 4.4-1.6 10.9 1 8.1 4.1-10.5 4.1-10.5 1.3-.3 1 .4zm-48.9 14.6h4.5c3.1 0 5.3 1 5.3 3.7a3.3 3.3 0 0 1-2.2 3.3 3.6 3.6 0 0 1 3.1 3.7c0 3-2.4 4.5-5.8 4.5h-4.9zm4.2 6.5c2.6 0 3.7-1 3.7-2.5s-1.2-2.5-3.6-2.5h-2.4v5zm.4 7.2c2.6 0 4.2-.9 4.2-3s-1.5-2.7-4.2-2.7h-2.7v5.7zm8.2-1.4c0-2.4 2.2-3.7 7-4.2 0-1.5-.5-2.9-2.3-2.9a6.1 6.1 0 0 0-3.4 1.3l-.8-1.4a9.6 9.6 0 0 1 4.5-1.4c2.7 0 3.9 1.8 3.9 4.6v7h-1.6v-1.4h-.1a6 6 0 0 1-3.8 1.7 3.1 3.1 0 0 1-3.4-3.3zm7 .2v-3.1c-3.8.4-5.1 1.4-5.1 2.8s.9 1.8 2 1.8a4.5 4.5 0 0 0 3.1-1.5zm5.5-13.8h1.9v11.2l4.9-6h2.1l-3.8 4.6 4.3 6.8H172l-3.3-5.5-2.1 2.5v3h-1.9zM175 81.1c0-3.7 2.5-5.9 5.1-5.9s4.5 2 4.5 5.3a3.7 3.7 0 0 1-.1 1.1h-7.6c.1 2.4 1.6 3.9 3.7 3.9a5 5 0 0 0 2.9-.9l.7 1.3a7.1 7.1 0 0 1-3.8 1.2c-3 0-5.4-2.3-5.4-6zm7.9-.9c0-2.3-1-3.5-2.8-3.5s-3 1.3-3.2 3.5zm4.5-4.8h1.6v2.1h.1a4 4 0 0 1 3.2-2.3 2.2 2.2 0 0 1 1.2.2l-.3 1.7-1.1-.2c-1 0-2.1.7-2.9 2.6v7.3h-1.9zm7.5 16l.4-1.5.9.2c1.3 0 2.1-1.1 2.5-2.5l.3-.8-4.6-11.4h2l2.3 6.3c.4 1 .8 2.2 1.1 3.2h.1c.4-1 .7-2.2 1-3.2l2-6.3h1.9l-4.3 12.3c-.8 2.3-2 4-4.2 4a2.9 2.9 0 0 1-1.4-.3zm-85.7-11v-7.2h1.9v6.9c0 2.1.7 3 2.2 3s1.9-.5 3-1.9v-8h1.9v11.3h-1.6v-1.8h-.1a4.6 4.6 0 0 1-3.7 2.1c-2.5 0-3.6-1.5-3.6-4.4zm12.8-7.2h1.6l.2 1.3h.1a5.7 5.7 0 0 1 3.6-1.6c2.9 0 4.5 2.3 4.5 5.8s-2.4 6.1-4.9 6.1a5.5 5.5 0 0 1-3.2-1.3v5.8h-2zm8 5.5c0-2.5-.9-4.2-3-4.2a4.3 4.3 0 0 0-3 1.6V82a4.2 4.2 0 0 0 2.7 1.2c1.9 0 3.3-1.7 3.3-4.5z"/><path fill="#cbcbcb" stroke="#cbcbcb" stroke-linecap="round" stroke-linejoin="round" d="M128.3 44.4s-4.1 2.6-3.4-.3a2.6 2.6 0 0 1 .7-1.5l1.5-2.3s-2.2.8-2.8-.6a1.4 1.4 0 0 1 .6-1.7c1.5-1 5.1-3.9 4.7-8.5a3.8 3.8 0 0 1 1.5 4.5s3.6-2.1 3.5.3l-.2 2a9.9 9.9 0 0 1 3.3-1.2.9.9 0 0 1 .8 1.3c-.7 1.6-2.5 5.1-3.2 5s-7 3-7 3z"/><path fill="#393939" d="M127.6 45.2l3.9 3 6.4-3.5.3-5.7-10.6 6.2z"/><path fill="#cbcbcb" stroke="#cbcbcb" stroke-linecap="round" stroke-linejoin="round" d="M129.6 29.5s-.8 5.5-4.7 8.5h2.9l2.8-5.3"/><path fill="none" stroke="#cbcbcb" stroke-linecap="round" stroke-linejoin="round" d="M144.1 30.1l3.2 3.2m42.1-.5l-4 1.9"/><path fill="none" stroke="#b6b6b6" stroke-linecap="round" stroke-linejoin="round" d="M175.9 35.6l4.3 1"/><path fill="none" stroke="#696969" stroke-linecap="round" stroke-linejoin="round" d="M153.5 29.3l2.3-3.7m11.8 13.5l3.3 2.9"/><path fill="none" stroke="#b6b6b6" stroke-linecap="round" stroke-linejoin="round" d="M134.9 38.3l-3.6-1.6m24.2-2.4l3.1 3.2"/><path fill="none" stroke="#696969" stroke-linecap="round" stroke-linejoin="round" d="M128.7 36.5l.1 4.2"/><path fill="none" stroke="#cbcbcb" stroke-linecap="round" stroke-linejoin="round" d="M165.5 32.7l4.2-1.4"/></symbol><symbol id="instagram-logo-01" viewBox="0 0 64.9 64.4"><style>.st0,.st1{stroke:#dba7b4;stroke-miterlimit:10}.st0{stroke-width:6;fill:none}.st1{fill:#dba7b4}</style><path d="M47.1 61.3H18c-8.1 0-14.7-6.6-14.7-14.7V17.5C3.3 9.4 9.9 2.8 18 2.8h29.1c8.1 0 14.7 6.6 14.7 14.7v29.1c-.1 8.1-6.6 14.7-14.7 14.7z" class="st0"/><circle cx="32.2" cy="32.6" r="15.6" class="st0"/><circle cx="50" cy="15.3" r="3" class="st1"/></symbol><symbol id="logo-email" viewBox="0 0 64.9 64.4"><path fill="#dba7b4" stroke="#dba7b4" stroke-miterlimit="10" d="M56.8 8.9H8.1A8.1 8.1 0 0 0 0 17v32.4a8.2 8.2 0 0 0 8.1 8.2h48.7a8.2 8.2 0 0 0 8.1-8.2V17a8.1 8.1 0 0 0-8.1-8.1zM43.4 30.5l17.2-14.7a5 5 0 0 1 .2 1.2v32.4c0 .3-.1.6-.1.8zm13.4-17.6l.7.2-25 21.5L7.4 13.1l.7-.2zM4.2 50.2c0-.2-.1-.5-.1-.8V17a5 5 0 0 1 .2-1.2l17.2 14.7zm3.9 3.3L7 53.3l17.5-20.1 6.6 5.6a2.4 2.4 0 0 0 1.4.5 2.4 2.4 0 0 0 1.3-.5l6.6-5.6 17.5 20.1-1.1.2z"/></symbol><symbol id="logo-vimeo" viewBox="0 0 64.9 64.4"><rect width="64.4" height="64.4" x=".2" fill="#dba7b4" stroke="#dba7b4" stroke-miterlimit="10" rx="12.9" ry="12.9"/><path fill="#fff" fill-rule="evenodd" d="M52.8 21.4c.4-2 .4-4.1-.9-5.6s-5.3-2.2-7.8-1.9-8.9 3.4-11.2 10.6c4.1-.3 6.3.3 5.9 4.9a16.9 16.9 0 0 1-2.2 6c-1.2 2.3-3.6 6.8-6.6 3.5s-2.6-8.5-3.2-12.3a41.1 41.1 0 0 0-1.4-6.8c-.6-1.9-1.9-4.1-3.6-4.6s-4 .3-5.3 1c-4.1 2.5-7.3 5.9-10.8 8.8v.2c.7.7.9 1.8 1.9 2 2.5.3 4.8-2.3 6.4.4s1.3 3.6 2 5.4 1.5 5 2.2 7.8c1.2 4.7 2.6 11.8 6.7 13.5 2.1.9 5.2-.3 6.8-1.2a39.7 39.7 0 0 0 10.4-10c6.6-8.8 10.2-18.9 10.7-21.7z"/></symbol><symbol id="logo-02" viewBox="0 0 216 151.2"><style>.st0{fill:#fff;stroke:#fdfefe;stroke-width:2;stroke-miterlimit:10}</style><path d="M15.5 24.7c.5 1.6.9 3.3 1 5 .3 1.5.4 3.1.4 4.7.2 2.3.2 4.6 0 6.9-.1 1.9 0 2.8.2 3 .7-1.4 1.1-2.9 1.5-4.4.8-2.8 1.8-5.6 2.9-8.3.8-1.8 1.7-3.5 2.8-5.1.8-1.3 2-2.3 3.4-2.9 1.6-.4 3.3-.1 4.7.8 1.6.9 3 2.1 4 3.6.6.8 1 1.7 1.2 2.7.3.7.4 1.5.4 2.3v.4c-.2 2.3-1 4.6-2.2 6.6-1.3 2.3-2.8 4.5-4.6 6.5-2.4 3-5.2 5.6-8.3 7.9-2.8 2.2-4.7 3.1-5.7 2.8-.1 3.4.1 6.8.5 10.2.4 3 .5 5.9.3 8.9 0 .7-.6 1.4-1.3 1.4h-.2c-1.1 0-2.2-.3-3.2-.8-.9-.4-1.7-1-2.4-1.7-.6-.5-1-1.3-1-2.1-.3-4.1-.5-8.2-.6-12.1v-2c0-3.2.1-6.3.2-9.2.3-6.4.8-11.9 1.5-16.4.5-2.9.7-5.9.7-8.8.1-1 .5-1.6 1.1-1.6h.6c.9.3 1.6 1 2.1 1.7zm1.8 29.7c.2.4.5.6.9.6l1.1-.3c.7-.4 1.4-.8 2.1-1.3 1.6-1.4 2.8-3.1 3.7-5 1.2-2.2 2.3-4.5 3.1-7 .5-1.3.9-2.6 1.2-3.9.3-1.3.6-2.6.8-3.8.3-1.4.4-2.9.4-4.4v-1.5c-.2-1.7-.7-2.7-1.7-3h.1c-.7 0-2 1.2-3.5 3.8-1.9 3.4-3.4 7-4.7 10.7-.9 2.4-1.6 4.9-2.2 7.4-.5 2.6-1 5.2-1.3 7.7zm25.6-31c.2-.5.7-.9 1.2-.8l1.1.3c1 .6 1.7 1.2 1.8 2 .2 1.1.4 2.2.4 3.3.2 1.5.3 3.1.4 4.8.1 1.7.2 5 .3 7.3 0 1.2.1 2.4.3 3.5.1-.2.2-.6.4-1.2s.3-1.2.5-2.1c.2-.8 1-3.2 1.7-5.3.7-1.9 1.4-3.9 2.3-5.7.8-1.7 1.8-3.2 2.9-4.7.7-1.1 1.9-1.8 3.2-1.9 2.3.1 4 1.6 5.3 4.4 1.4 3.3 2.3 6.7 2.7 10.3.3 2.2.6 4.6.7 7l.3 7.4v10.7c-.1 3.5-.1 6.3-.2 8.7v3.3c0 .6 0 1.3.2 1.9-.7 1-1.8 1.6-3 1.5h-1c-1.7 0-3.2-.9-3.9-2.4-.5-3.3-.7-6.6-.6-10 0-1.8.1-3.5.1-5.4h-.7c-2.3.2-4.6.6-6.9 1.2l-2.7.7v.4c.4 3.7.7 8 .9 12.7-.3.9-1.6 1.1-3.6.8-2.1-.3-3.3-1.3-3.7-2.9-.8-4.2-1.3-8.5-1.7-12.8-.2-3.5-.3-6.7-.3-9.9v-2c0-5.8.4-11.6 1.1-17.3.8-4.7 1-7.3.5-7.8zm10 36.3c2.4-.5 4.7-.8 7.1-1.1h.1c0-2.1.1-4.3.2-6.4.1-2.2.2-4.8.2-7.2s.2-4.7.2-6.9c0-3.9 0-7.3-.2-10s-.5-4-1.2-4.2c-.7-.1-1.6.8-2.6 2.7-1.2 2.1-2.2 4.2-3 6.4-1.3 3-2.3 6.1-3.2 9.2-.8 2-1.3 4.2-1.6 6.3.2 4.5.4 8.4.7 11.8l3.3-.6zm35.4 17.7h-.4c-4.4.2-8.5-1.8-11-5.4-.8-1.1-1.5-2.4-1.9-3.7-.5-1.3-1-2.7-1.2-4-.5-2.7-.8-5.5-.8-8.3 0-.3-.1-.6-.1-.8 0-2.6.1-5 .3-7.3.2-2.3.4-4.7.7-6.9.4-2.1.9-4.2 1.6-6.2 1-3.3 2.9-6.3 5.4-8.6 2.3-1.8 5.1-2.7 8-2.6H91c1.1.2 2.2.7 3 1.5 1.1.9 2 2 2.7 3.2 1.8 3 3.2 6.2 3.9 9.7 1 3.9 1.6 7.8 1.7 11.8v.5c0 2-.1 4.1-.4 6.1-.3 2.2-.7 4.5-1.2 6.6-.9 3.6-2.5 7-4.7 10.1-1.7 2.5-4.6 4.2-7.7 4.3zm10.6-27.8v-.2c0-1.7-.1-3.3-.3-5-.2-1.9-.5-3.8-.9-5.7-.5-3.2-1.5-6.3-2.7-9.3-1.2-2.8-2.5-4.2-3.7-4.4H91c-1.6 0-3 1.2-4.4 3.6-1.6 2.9-2.7 6-3.5 9.2-.5 1.9-.9 3.9-1.1 5.8-.3 1.9-.5 3.8-.5 5.7-.1.7-.1 1.3-.1 2 0 1 0 2.2.1 3.3.1 1.1.2 3.9.4 6 .4 3.5 1.2 6.9 2.3 10.3 1.1 3 2.6 4.7 4.6 4.8h.5c2.5 0 4.4-1.3 5.7-4 1.5-3.2 2.6-6.6 3.1-10.2.3-2.1.5-4.2.7-6.2s.1-4 .1-5.7zm11.6-26c.3-.5.9-.8 1.5-.8.7.1 1.3.3 1.9.6 1.6 1.1 2.7 2.9 2.9 4.9.6 2.8.9 5.6 1 8.4.2 3.2.2 6.5.1 10s-.1 4.4-.2 6.6c-.1 2.3-.3 4.4-.5 6.4-.3 3.7-.6 7.1-1 10-.1 1.8-.4 3.5-.7 5.3l6.2-.7c1.4-.3 2.9-.2 4.4.1.4.2.5.4.5.7 0 .3-.1.5-.3.6h-2.7l-3.9.2-2.1.3-1.7.4c-.6.3-1.3.6-2 .7l-2.2.5h-1.3c-.8 0-1.6-.2-2.4-.4-1-.1-1.8-.9-2.1-1.9 1.3-12.8 2.6-23.6 3.6-32.5 1-8.8 1.6-15.1 1-19.4zm31.9 0c.5 0 .7.2.6.5-.1.3-.3.6-.5.8h-3.2c-.5-.1-1.1-.1-1.7 0 .5 3.3 1 6.5 1.6 9.6.5 3 .9 6 1.3 8.9.8 5.4 1.3 10.7 1.8 15.9.3 5.4.2 10.8-.3 16.2.7 0 1.3.1 2 .2l3.1.4c.2.1.4.2.4.4s-.1.1-.1.2c-.2.3-.4.5-.6.6l-9.8-.8c-2.4-.2-4.7-.2-7.1.1-.2-.2-.3-.5-.2-.7 0-.2 0-.5.2-.6h4.5c-.1-3.4-.3-7-.3-10.5V54c.1-6.4.2-12.3.3-17.5.2-3.9.1-7.8-.2-11.6h-5.4c-.3-.2-.4-.3-.3-.6 0-.2.1-.5.3-.6l13.6-.1zm9.4.3c.4-.9 1.4-1.6 2.4-1.6h.6c1.2.2 2.3 1.1 2.7 2.3.5 4.6.8 9.1.8 13.7.1 3.3 0 6.6-.2 9.9l.6-1.6c.2-.8.6-1.8 1-2.9.4-1.1 2.1-4.7 3.6-7.5 1.8-3.1 3.9-6.1 6.3-8.7.4-.4 1-.8 1.6-1h1.8c1.1.2 2.2.9 2.9 1.8.9.8 1.4 1.9 1.6 3.1.2 1.8.4 3.5.4 5.3 0 1.9 0 3.7-.1 5.7-.1 3.6-.3 7.4-.7 11-.4 3.6-.6 7.1-.7 10.1-.1 2.2 0 4.3.3 6.4.1 1.4.7 2.8 1.8 3.7.1.2.1.5.1.7 0 .2 0 .5-.1.7-.1.4-.3.8-.6 1-.7.8-1.8 1.2-2.9 1.1h-.6c-1.4 0-2.7-.6-3.5-1.8-1.2-2-2-4.8-2.2-8.5-.1-3.9 0-7.8.3-11.7.4-4.2.8-8.2 1.3-12 .5-3.8 1-7.2 1.3-9.7.3-2.5.2-2.3.2-3.1s-.2-1.1-.4-1.1-2.5 1.1-4.4 3.9c-1.9 2.9-3.5 6-4.9 9.1-1 2.1-1.9 4.2-2.6 6.3-.6 1.6-1.1 3.2-1.5 4.9v3.2c0 1.3.1 2.8.2 4.3s.1 5.4.2 8.1c.1 1.9-.1 3.8-.4 5.6-.6 1-1.9 1.6-3.7 1.3-1.7-.1-3.1-1.2-3.6-2.8-.6-3-.9-6.1-.8-9.1 0-3.9.1-8.1.4-12.5.1-2.3.3-4.6.4-6.9s.3-4.4.5-6.4c.3-3.8.5-7.2.7-9.8s.1-4.2-.1-4.5zm31.6-.5c.2-.5.7-.9 1.2-.8l1.1.3c1 .6 1.7 1.2 1.8 2 .2 1.1.4 2.2.4 3.3.2 1.5.3 3.1.4 4.8.1 1.7.2 5 .3 7.3 0 1.2.1 2.4.3 3.5.1-.2.2-.6.4-1.2s.3-1.2.5-2.1c.2-.8 1-3.2 1.7-5.3.7-1.9 1.4-3.9 2.3-5.7.8-1.7 1.8-3.2 2.9-4.7.7-1.1 1.9-1.8 3.2-1.9 2.3.1 4 1.6 5.3 4.4 1.4 3.3 2.3 6.7 2.7 10.3.3 2.2.6 4.6.7 7l.3 7.4v10.7c-.1 3.5-.1 6.3-.2 8.7v3.3c0 .6 0 1.3.2 1.9-.7 1-1.8 1.6-3 1.5h-1c-1.7 0-3.2-.9-3.9-2.4-.5-3.3-.7-6.6-.6-10 0-1.8.1-3.5.1-5.4h-.7c-2.3.2-4.7.6-7 1.2l-2.6.7v.4c.4 3.7.7 8 .9 12.7-.3.9-1.6 1.1-3.6.8-2.1-.3-3.3-1.3-3.7-2.9-.8-4.2-1.3-8.5-1.7-12.8-.2-3.5-.3-6.7-.3-9.9v-2c0-5.8.4-11.6 1.1-17.3.7-4.7.9-7.3.5-7.8zm10 36.3c2.4-.5 4.7-.8 7.1-1.1h.1c0-2.1.1-4.3.2-6.4.1-2.2.2-4.8.2-7.2s.2-4.7.2-6.9c0-3.9 0-7.3-.2-10s-.5-4-1.2-4.2c-.7-.1-1.6.8-2.6 2.7-1.2 2.1-2.2 4.2-3 6.4-1.3 3-2.3 6.1-3.2 9.2-.8 2-1.3 4.2-1.6 6.3.2 4.5.4 8.4.7 11.8l3.3-.6zM25.8 82.1c.3-.7 1.1-1.2 1.9-1.1h.8c1.3.3 2.5 1.1 3 2.4.1 1.6.2 3.5.4 5.8s.1 4.7.2 7.1c.1 2.4.3 6.7.3 9.7 0 2.9.2 4.5.2 4.8.4-2 .8-4 1.3-5.9.7-2.9 1.7-5.9 2.6-8.9.5-1.9 1.2-3.7 2-5.5.4-1.4 1.1-2.7 1.9-3.8.5-.6 1.3-.9 2.1-.8 1 0 1.9.4 2.7 1 .4.4.8.9 1 1.3.3.7.5 1.4.6 2.1.1 1.2.1 3 .1 5.5s.1 4.9.1 7.7 0 2.8.1 4.3v4.2c0 2.4.1 4.4.1 6s.1 2.5.1 2.6c.2-.3.4-.7.4-1 .3-.7.5-1.5.6-2.3.4-1.9 1-4.2 1.8-7.1.7-2.9 1.7-5.7 2.7-8.7 1.1-3 2.4-5.8 3.9-8.6 1.2-2.4 2.9-4.5 5.1-6.1 1-.8 2.5-.8 3.5 0 1.3.7 2.3 1.8 2.7 3.2.2 1.5.3 3 .3 4.6V97c-.1 3-.3 6.4-.6 10l-.6 5.8c-.1 2-.3 3.9-.4 5.8-.3 3.6-.6 6.9-.7 9.9-.2 2.2 0 4.3.4 6.4.1 1.2-.5 2-2 2.2h-.7c-1.2 0-2.3-.4-3.2-1.2-.4-.3-.7-.7-.9-1.1-.3-.5-.5-1-.6-1.6-.2-4.6-.2-9 0-13.1.3-4 .6-7.8 1-11.2.6-5 1.5-10 2.7-14.8.9-3.6 1.1-5.5.8-5.7-.3-.2-1.9.4-2.9 2-1.3 2-2.4 4.1-3.3 6.2-.6 1.5-1.2 2.9-1.8 4.5-.5 1.6-1.2 3.2-1.8 4.9-.5 1.7-2 6.2-2.8 9.3-.8 3.1-1.6 5.8-2 8-.1.6-.4 1.1-.7 1.6-.3.4-.7.7-1.1.9-1 .3-2.1.2-3-.3-.9-.4-1.6-1.2-1.9-2.2a25 25 0 0 1-.9-7.7c-.1-2.9-.1-5.9 0-8.8.1-2.9.2-5.7.4-8.3.2-2.6.3-4.7.3-6.2 0-.7-.1-1.4-.2-2.1 0-.5-.2-.7-.4-.7s-1.3 1.1-2.4 3.8c-1 2.7-2.1 5.8-3 9l-2.1 7.7c-.4 1.6-.7 3.3-.8 5 .1 2.3.3 4.5.4 6.3s.3 4 .4 6.3l-.6 1.9c-.3.6-.6 1.1-1 1.6-1.2 1.3-2.7 2.1-4.5 2.4-1.7.2-2.5-.4-2.7-1.8-.5-3.1-.8-6.2-.7-9.3-.1-1-.1-2.1-.1-3.1s.1-5.1.2-7.7c.2-4.5.4-8.8.7-13s.6-7.7.7-10.5c.1-2.8.1-2.7.1-3.7.2-1.2.1-1.8-.2-2.3zm57.9.6c.5 0 .7.2.6.5-.1.3-.3.6-.5.8h-4.9c.5 3.3 1 6.5 1.5 9.6.4 3 1 6 1.5 8.9.8 5.4 1.3 10.7 1.8 15.9.3 5.4.2 10.8-.3 16.2.7 0 1.3.1 2 .2l3 .4c.3.1.4.2.4.4v.2l-.6.6-9.9-.8c-2.3-.2-4.6-.2-7 .1-.2-.2-.3-.5-.3-.7 0-.2.1-.5.3-.6h4.5c-.2-3.4-.3-7-.3-10.5v-10.8c.1-6.4.2-12.3.2-17.5.2-3.9.2-7.8-.1-11.6-.8.1-1.6.1-2.4 0h-3c-.3-.2-.4-.3-.4-.6s.2-.4.4-.6h13.5zm32.9 11.1c-.4.8-1.2 1.4-2.1 1.5-.7 0-1.2-.4-1.5-1.6.3-1.3.4-2.6.2-3.9-.1-1.4-.6-2.8-1.5-3.9-.4-.6-1-1-1.7-1.3-.7-.4-1.5-.6-2.3-.5-.9 0-1.9.2-2.7.6-.8.4-1.5.9-2.2 1.6-1.2 1.2-2.1 2.7-2.7 4.3-.6 1.4-1 3-1.1 4.6 0 1 .2 2 .5 2.9.4 1 .8 1.9 1.5 2.8 1.2 2.1 2.7 4 4.3 5.8 1.7 2 3.3 4.1 4.8 6.3 1.2 1.9 2.2 3.8 3 5.9.8 2.2 1 4.5.8 6.7 0 1.2-.3 2.4-.8 3.5s-1.1 2.1-1.9 3c-1.4 1.7-3.2 3-5.3 3.8-1.8.8-3.8 1.2-5.8 1.3h-.1c-3.7-.1-6.5-1.5-8.4-4-1.3-2-2-4.4-1.9-6.7 0-1.5.2-3.1.5-4.6 1.3-1.3 2.6-1.7 3.7-1s1.3 1.9.7 3.3c-.6 1.5-.9 3.2-.7 4.9.1 1.6.7 3.2 1.7 4.6.5.7 1.2 1.3 2 1.7.9.3 1.8.5 2.7.6.9 0 1.7-.2 2.5-.6.7-.3 1.4-.8 1.9-1.5 1.2-1.2 2-2.7 2.6-4.3.5-1.5.8-3 1-4.6 0-1.1-.1-2.2-.4-3.2-.4-1.1-.9-2.2-1.5-3.2-1.3-2.2-2.8-4.2-4.5-6.1-1.8-2-3.4-4-4.9-6.2-1.2-1.8-2.3-3.6-3.1-5.6-.7-1.9-1-4-.8-6 .1-3.6 2-7 5-9 2.9-1.9 6.2-2.9 9.7-2.9 2.8-.2 5.6 1.2 7.1 3.6 1.2 1.7 1.9 3.8 1.9 5.9-.1.4-.2 1-.2 1.5zm27.8 0c-.3.8-1.1 1.4-2 1.5-.8 0-1.3-.4-1.6-1.6.3-1.3.4-2.6.2-3.9-.1-1.4-.6-2.8-1.5-3.9-.4-.6-1-1-1.7-1.3-.7-.4-1.5-.6-2.3-.5-.9 0-1.8.2-2.6.6-.8.4-1.5.9-2.2 1.6-1.3 1.2-2.2 2.6-2.8 4.3-.6 1.5-1 3-1.1 4.6 0 1 .2 2 .5 2.9.4 1 .9 1.9 1.5 2.8 1.3 2 2.7 4 4.3 5.8 1.8 2 3.4 4.1 4.8 6.3 1.2 1.9 2.2 3.8 3 5.9.7 2.2 1.1 4.5.9 6.7-.1 1.2-.4 2.4-.8 3.5-.5 1.1-1.1 2.1-1.9 3-1.4 1.7-3.2 3-5.3 3.8-1.9.8-3.9 1.2-5.9 1.3h-.2c-3.7-.1-6.5-1.5-8.3-4-1.3-2-2-4.4-1.9-6.7 0-1.5.1-3.1.4-4.6 1.3-1.3 2.6-1.7 3.7-1 1.1.6 1.5 2 .9 3.1 0 .1-.1.1-.1.2-.6 1.6-.8 3.2-.6 4.9 0 1.7.6 3.3 1.7 4.6.5.7 1.1 1.2 1.9 1.7.9.3 1.8.5 2.7.6.9 0 1.7-.2 2.5-.6.7-.3 1.4-.8 1.9-1.5 1.2-1.2 2.1-2.6 2.6-4.3.5-1.5.9-3 1-4.6.1-1.1-.1-2.2-.4-3.2-.3-1.1-.8-2.2-1.5-3.2-1.2-2.2-2.7-4.2-4.4-6.1-1.8-1.9-3.4-4-4.9-6.2-1.3-1.7-2.4-3.6-3.1-5.6-.8-1.9-1.1-4-.9-6 .1-3.6 2-7 5-9 2.9-1.9 6.2-2.9 9.7-2.9 2.8-.2 5.6 1.2 7.1 3.6 1.2 1.7 1.9 3.8 1.9 5.9-.1.4-.1 1-.2 1.5zm15.1-11.1c.6 0 .8.2.6.5-.1.3-.3.6-.5.8h-4.9c.5 3.3 1 6.5 1.6 9.6.5 3 .9 6 1.5 8.9.7 5.4 1.3 10.7 1.7 15.9.4 5.4.3 10.8-.3 16.2.7 0 1.4.1 2.1.2l3 .4c.3.1.4.2.4.4v.2c-.2.3-.4.5-.6.6l-9.8-.8c-2.3-.2-4.6-.2-7 .1-.2-.2-.3-.5-.3-.7 0-.2.1-.5.3-.6h4.5c-.2-3.4-.3-7-.4-10.5v-10.8c.1-6.4.2-12.3.3-17.5.1-5.3.1-9.2-.1-11.6-.8.1-1.7.1-2.5 0h-3c-.2-.1-.3-.4-.3-.6 0-.2.1-.5.3-.6h13.6-.2zm20 53.8h-.3c-2.3.1-4.5-.4-6.5-1.5-1.8-1-3.3-2.3-4.6-3.9-.8-1.1-1.5-2.4-1.9-3.7-.5-1.3-1-2.7-1.2-4-.5-2.8-.8-5.6-.8-8.4v-.7c0-2.6 0-5 .2-7.3s.4-4.7.7-6.9c.4-2.1.9-4.2 1.6-6.2 1.1-3.3 2.9-6.2 5.4-8.6 2.3-1.8 5.1-2.7 8-2.6h2.2c1.1.2 2.2.7 3 1.5 1.1.9 2 2 2.7 3.2 1.8 3 3.2 6.2 3.9 9.7 1.1 3.9 1.6 7.8 1.7 11.8v.5c0 2-.1 4.1-.4 6.1-.2 2.2-.7 4.5-1.2 6.6-.9 3.6-2.5 7-4.7 10.1-1.8 2.5-4.7 4.2-7.8 4.3zm10.6-27.8v-.2c-.1-1.6-.2-3.2-.4-5-.1-1.9-.4-3.8-.8-5.7-.6-3.2-1.6-6.3-2.8-9.3-1.1-2.8-2.4-4.3-3.7-4.4h-.4c-1.5 0-2.9 1.2-4.4 3.6-1.5 2.9-2.7 6-3.4 9.2-.5 1.9-.9 3.9-1.2 5.8-.3 1.9-.5 3.8-.5 5.7 0 .6-.1 1.2-.1 2 0 .7.1 2.2.1 3.3 0 1.1.2 3.9.5 6 .3 3.5 1.1 7 2.3 10.3 1 3 2.6 4.7 4.5 4.8h.6c2.4 0 4.3-1.3 5.7-4 1.5-3.2 2.5-6.7 3-10.2.3-2.1.6-4.2.7-6.2s.3-4 .3-5.7z" class="st0"/></symbol><symbol id="placeholder-1by1" viewBox="0 0 800 800"><path fill="#e2e2e2" d="M2 2h796v796H2z"/><path fill="#666" d="M796 4v792H4V4zm4-4H0v800h800z"/><path fill="none" stroke="#666" stroke-miterlimit="10" stroke-width="4" d="M0 0l800 800m0-800L0 800"/></symbol><symbol id="versions-batter" viewBox="0 0 453.6 115.2"><style>.st0{fill:#aaa}.st1{fill:#3d3d3d}.st2{fill:#b6b6b6}.st3{fill:#696969}.st4{fill:#e1e1e1}.st5{fill:silver}.st6{fill:#fff}.st7{fill:#ccc}.st8{fill:#cbcbcb}.st9{fill:#555}.st10{fill:#545454}.st11{fill:none;stroke:silver}.st11,.st12,.st13{stroke-linecap:round;stroke-linejoin:round}.st12{stroke-width:.75;fill:none;stroke:#696969}.st13{fill:#cbcbcb;stroke:#cbcbcb}.st14{fill:#393939}.st15{stroke:#cbcbcb}.st15,.st16,.st17{fill:none;stroke-linecap:round;stroke-linejoin:round}.st16{stroke:#b6b6b6}.st17{stroke:#696969}.st18{fill:#ed257a}.st19{fill:#49c4d5;stroke:#49c4d5;stroke-linecap:round;stroke-linejoin:round}.st20{fill:#693990}.st21{stroke:#4dc4d3}.st21,.st22,.st23{fill:none;stroke-linecap:round;stroke-linejoin:round}.st22{stroke:#f6b24f}.st23{stroke:#ed257a}.st24{fill:#cca285}.st25{fill:#683e92}.st26{fill:#f6b24f}.st27{fill:#fcdac6}.st28{fill:#f2b692}.st29{fill:#e0b899}.st30{fill:#f1b692}.st31{fill:#49c4d5}.st32{fill:#9b6c4d}.st33{fill:#9b6c4c}.st34,.st35{fill:none;stroke:#f2b692;stroke-linecap:round;stroke-linejoin:round}.st35{stroke:#ed257a;stroke-width:.75}.st36{fill:#f3b692}.st37{fill:#211e1f}</style><path id="ASSETS" d="M133.5 49.9c-.8-.4-1.6-.8-2.4-1.3-2.6-1.9-4-4.4-3.2-5.6.8-1.2 3.6-.5 6.2 1.4 1 .7 1.9 1.6 2.7 2.6" class="st0"/><circle cx="186.7" cy="71.4" r="39.5" class="st1"/><path d="M174.3 49c-10.8 29.5-46.2 17.4-46.2 17.4 11.7 0 14.4-12 15-16.8.2-2.2.7-4.3 1.6-6.3 6.2-14.6 21-11.4 21-11.4v-.3c.2-8.2 4.6-15.7 11.6-19.9 18-10.3 31.9 3.8 31.9 3.8 12.9 11.7-20 16.7-20 16.7-12.2 1.5-16.3 7.7-16.3 7.7l1.4 9.1z" class="st2"/><path d="M178 66.1s-20.8 4.3-23.1 28.6c5.5 8.1 14.1 13.7 23.7 15.5 0 0 23.9 6.1 40.5-16.1 0 0-2-19.3-22.5-23.7" class="st3"/><path d="M209.7 24.8c3.4 2 3.8 12.9 3.8 18.1-.1 1.8-.3 3.7-.7 5.5-2.5 10.7-6.5 14.9-8.7 16.4-.9.7-2.1 1-3.3.9-10.6-.6-21-8.3-21-8.3-5.7-3.7-7.6-12.8-7.6-12.8l-.8 1.4c-1.2 1.9-2.8.3-3.8-1.1-.8-1-1.3-2.2-1.5-3.5-.2-.8-.2-1.6 0-2.4.3-1.5 1.7-2.5 3.2-2.4 1 .1 1.9.8 2.1 1.8 0 0 .4.9 1.1.3l.8-1.3c4.6-2.9 9.7-4.8 15-5.6 0 0 13.7-2.1 17.7-4.8l3.7-2.2z" class="st4"/><path d="M202.7 37.2c-.1 1.9 0 3.7.4 5.6.2.9.5 1.8.9 2.7.3.8.9 1.5 1.5 2.1l1 1.1c.4.4.7 1 .7 1.6-.2 1.1-.9 2.1-2 2.5-.5.2-1.1.2-1.6 0l-.8-.3-.5-.4c-.8-.4-1.8-.5-2.7-.2.8-.5 1.9-.6 2.8-.2l.7.3.6.2c.4.1.8 0 1.2-.1.7-.3 1.2-1 1.3-1.8 0-.4-.1-.7-.4-1-.2-.3-.7-.6-1-1-.7-.7-1.3-1.5-1.7-2.5-.4-.9-.6-1.8-.8-2.8-.2-1.9 0-3.9.4-5.8zM132.5 53c-.3-1.9-.5-7.6 6.7-7.2l.8.2 31.5 22.2s-10.4.9-8.3 9.9L133 54c-.3-.2-.5-.6-.5-1z" class="st5"/><path d="M197.5 58.5s3.4-3.5 5.7-1.9c1.1-1.1 2.7-1.4 4.2-.8 0 0-1.9 2.4-2.8 2.4-1 0-2.2 7.5-7.1.3z" class="st3"/><ellipse cx="168.5" cy="73.8" class="st0" rx="6.9" ry="4.9" transform="rotate(-38.001 168.453 73.789)"/><path d="M204.8 39.4c.2 2.5 2.3 4.4 4.8 4.5l2.8-3.2.9-3.3v-1.8c-.3-1.1-1.4-1.8-2.6-1.7 0 .1-3.3 1.2-5.9 5.5z" class="st6"/><path d="M199.7 62.7c.7.2 1.4.3 2.1.3.4 0 .8-.1 1.1-.3l1-.4-.3.5c-.1.2-.3.3-.5.4-.3.3-.7.5-1.2.5-.9.1-1.8-.3-2.2-1z" class="st7"/><path d="M182.7 38.1s-1.9 2.8-.4 5.1 7.2 4.1 7.2 4.1 3.4.5 5.8-4.8c0 0-2.4-3.8-4.5-4.2 0 0-7-1.2-8.1-.2z" class="st6"/><ellipse cx="190.8" cy="43" class="st8" rx="3" ry="3.3"/><ellipse cx="208.8" cy="39.5" class="st8" rx="2.6" ry="3.1" transform="rotate(-10.704 208.766 39.497)"/><path d="M212.2 101.3c-2.3-1.9-9.1-7.5-9.4-8.6l-9.2-10.2-6.8-7.5s-4.8-2-9.1-.4c0 0-8.2 3.5-5.5 8.5 0 0 3.3 3.7 4.9 3.7 1 1.3 2.5 2.1 4.2 2.3l3.9-2.7-.6-1.8-.6-1.2s1.4-1.7 2.7-.6 11.2 17.3 18 23.9c2-1 3.9-2.2 5.8-3.5.7-.5 1.3-1 1.9-1.6" class="st4"/><path d="M204.1 41.9c0-1.6.4-3.2 1.2-4.6.7-1.4 1.9-2.6 3.4-3.3 1.4-.8 3-1.2 4.6-1.1 1.5.1 3-.3 4.2-1.1-1 1.3-2.4 2.2-4.1 2.3-1.4.1-2.8.5-4 1.2-1.2.6-2.3 1.6-3.1 2.7-.9 1.2-1.6 2.5-2.2 3.9zm-8 2.3c-.8-1.6-1.9-3-3.3-4.2-1.3-1-2.9-1.7-4.6-1.9-1.7-.2-3.4.1-5 .6-1 .4-2 .6-3 .6-1.1-.1-2.1-.5-2.9-1.3l1.3-.7c.4 1.3 1 2.6 1.9 3.7.9 1.1 2 2.1 3.1 3 1.2.9 2.4 1.6 3.8 2.2l2.1.8 2.2.7-2.3-.3-2.2-.5c-.7-.3-1.5-.6-2.2-.9l-2-1.1c-1.3-.8-2.5-1.8-3.5-3.1-1.1-1.2-1.9-2.6-2.4-4.2l-.8-2.7 2.1 2.1c1 1 2.7 1 4.3.3 1.8-.5 3.8-.7 5.7-.4 1.9.3 3.6 1.2 5 2.6 1.3 1.3 2.2 2.9 2.7 4.7z" class="st9"/><path d="M213 34.5c.4 1 .5 2.1.5 3.2-.1 1.1-.3 2.2-.8 3.2-.2.5-.5 1-.8 1.5-.3.4-.7.8-1.2 1.2-.8.7-1.8 1.2-2.9 1.4.9-.6 1.7-1.2 2.4-2 .6-.7 1.2-1.6 1.6-2.5.7-2 1.1-4 1.2-6z" class="st10"/><path d="M183.4 84.3s1.3-3.5 3.5-1.3c0 0 12.7 19.2 17.5 23.8" class="st11"/><path d="M169 106.4l9.4-16.5 2.9-14.6c.1-1-.3-1.9-1.1-2.6-4-3.9-7.6-2.5-9.1-1.2l-1.9 1.5c-1.3.8-3.6 3.6-1.7 12.1 0 0 .2 3.8-5.9 17 2.1 1.9 4.5 3.5 7.1 4.6" class="st4"/><path d="M212.8 34.1c.8-.8 1.3-1.8 1.4-2.9-.4 1-2.3 1.9-2.3 1.9l.9 1z" class="st10"/><path d="M161.6 102.2c6.1-13.3 6.4-16.8 6.4-16.8-1.9-8.6-.4-11.4 1-12.3.7-.4 1.3-.9 1.9-1.5 1.5-1.3 5.3-2.7 9.1 1.2" class="st11"/><path d="M210.5 34.5c.6-1 .8-2.1.7-3.3-.4 1-1 1.8-1.8 2.5l1.1.8zm-28 4.4c-1.1-.8-1.9-1.9-2.2-3.3.7 1.2 3.2 1.9 3.2 1.9l-1 1.4zm2.6-.9c-.9-.8-1.6-1.9-2-3.1.7.8 1.6 1.5 2.6 1.9l-.6 1.2z" class="st10"/><path d="M176.8 86.8c-6.1-2.5-5.9-5.9-4.2-8.3 2.1-2.9 5.4-4.6 8.9-4.7 1.2 0 2.5.2 3.7.6.9.3 1.6.8 2.2 1.5 3.5 4 20.4 23.3 24.6 25.7" class="st11"/><path d="M181.9 54.6c.8 8.6-3.1 11.5-3.1 11.5-.2.1-.3.3-.3.5.3 2.4 2 13.3 12.1 12.5 0 0 5.4-.4 6.2-8.2 0 0-3.1-2.1-1.3-8.6l-13.6-7.7z" class="st4"/><path d="M175.8 84.2s1.2 4.1 4 4.9c.5.1 1.1 0 1.6-.2 1.1-.5 2.1-1.2 3-2 .6-.6.6-1.5.1-2.1-.3-.3-.7-.5-1.1-.5-1.5-.2-2.9.8-3.1 2.4v.3m-1.2 1.8l-10.2 17.8" class="st11"/><path d="M195.5 57.9c.8.4 1.8.6 2.7.7" class="st12"/><path d="M181.9 58.7s5 8.6 13.4 9.4c0 0-.7-2.9 0-3.5s-10.5-3-13.4-5.9z" class="st5"/><circle cx="191.2" cy="43" r="1.2"/><circle cx="192" cy="41.7" r=".8" class="st6"/><circle cx="208.6" cy="39.7" r="1.2"/><circle cx="209.4" cy="38.5" r=".8" class="st6"/><path d="M250.4 71.5c-2.7 3.2-6.7 5-10.9 4.9-6.2.2-1.3-24.8-2.3-28.4 0 0 6.7-1.5 6.2 5-.1 1-.1 2-.2 3.2 1.2-2.5 2.9-4.7 5.3-4.5 2.4.2 2.1 6.4-1.5 10.7l1.8-.2c5.2 0 4.9 5.3 1.6 9.3zm0-5.3c-.2-3-5.3-1.7-7.7.5-.1 4 .1 7.1.7 7.5.5.5 7.1-2.9 7-8zm-7.6-2.6v.3c4-2.9 6.6-10.6 4.4-10.8-2.3-.2-4.1 8.9-4.4 10.5zm32.3-.5s-3.4 11.7-10.5 11.7c-2.8 0-3.1-3-2.9-6.4-1.3 1.5-3.2 2.2-5.2 1.9-3.6-.6-2.8-5.4.2-7.2 1.7-1 3.7-1.4 5.7-1 .1-.8.1-1.5-.1-2.3 0 0 6-1.4 5.5 4.4-.5 5.8-.1 8.9 2.1 6.5 1.9-2.2 3.3-4.8 4.2-7.5l1-.1zM262 65.8c0-.7.1-1.3.2-2-1 0-4.3.2-4.3 2.6s2.5 1.1 4.1-.6z" class="st3"/><path d="M296.8 64.1s-3.9 14.1-11.4 14.1c-1.5-.1-2.3-2.3-2.7-5.5-1.8 2.1-4 3.8-6.6 3.6-2.6-.2-3.1-9.2-2.7-17.2h-3.9v-1h2.1l1.4-.1h.6v-.4c0-.5 0-1.1.1-1.6.2-3.9.4-7 .1-7.9s6-1.3 5.6 4.4c-.1.9-.2 2-.3 3.2v1.8h1.6l2.1-.2h.2c.2-2.4.3-4.8.1-7.1 0 0 6-1.4 5.5 4.4 0 .7-.1 1.5-.1 2.5h3.5v.9h-1l-1.1.2-1.4.2h-.2v.7c-.2 2-.2 4.1-.3 6.2.1 6.1 0 11 2.7 8.7 2.7-2.3 5.3-10 5.3-10l.8.1zm-13.9-5.5h-4c-.1 1.3-.1 2.7-.1 4.1 0 6.2-.4 11.7 2.4 9.5.5-.5 1-1 1.4-1.6-.2-3.5 0-7.8.2-11.7 0-.1 0-.2.1-.3z" class="st3"/><path d="M308.5 64.3c-6 10.9-17.6 14.1-15.9 3.7 1.1-6.3 6.8-6.7 8.5-6.1s2.7 2.2 1.1 4.7-3.3 1.9-4.5 1.9c-1 8.3 8.7-2.3 10-4.8l.8.6zm-10.6 3.3c2.3.1 3.2-1 3.5-1.7s.6-2-.8-2.1c-1.4-.1-2-.1-2.7 3.8z" class="st3"/><path d="M322.3 64.7c-.2.9-3.4 15-10.2 14.7-4.6-.2-2.1-9.9-1.6-15-7.7-.1-4.8-3.1-5.6-5.5 0 0 5.1-2.2 4.8 2.3-.1.9 1.4.9 1.5.9s5.2.1 4.7 4.8-1.7 11.5 1 8.5 4.4-11.2 4.4-11.2 1.3-.3 1 .5zm-52 15.5h4.9c3.3 0 5.6 1.1 5.6 4 .1 1.6-.9 3-2.4 3.5 2 .3 3.4 2 3.4 4 0 3.2-2.6 4.8-6.3 4.8h-5.2V80.2zm4.4 6.9c2.8 0 4-1 4-2.6s-1.3-2.7-3.9-2.7h-2.5v5.3h2.4zm.4 7.7c2.9 0 4.5-1 4.5-3.2s-1.6-2.9-4.5-2.9h-2.8v6.1h2.8zm8.9-1.5c0-2.6 2.2-4 7.3-4.5 0-1.6-.5-3.1-2.5-3.1-1.3.1-2.5.5-3.6 1.3l-.8-1.4c1.4-1 3.1-1.5 4.8-1.6 2.9 0 4.2 2 4.2 5v7.4h-1.7l-.2-1.5h-.1c-1.1 1.1-2.5 1.7-4 1.8-1.8.1-3.4-1.3-3.5-3.1.1 0 .1-.1.1-.3zm7.3.2v-3.4c-4 .5-5.4 1.5-5.4 3.1s.9 1.9 2.1 1.9c1.2 0 2.1-.6 3.3-1.6zm5.9-14.7h2v11.9h.1l5.2-6.4h2.3l-4.1 4.9 4.6 7.2H305l-3.6-5.9-2.3 2.7v3.2h-2V78.8zm10.9 11.7c0-3.9 2.7-6.4 5.5-6.4s4.9 2.2 4.9 5.7c0 .5-.1.9-.1 1.2h-8.1c.1 2.6 1.7 4.2 4 4.2 1.1 0 2.1-.3 3-.9l.8 1.3c-1.2.8-2.6 1.3-4 1.3-3.4-.1-6-2.5-6-6.4zm8.4-1c0-2.4-1.1-3.7-3-3.7s-3.2 1.3-3.4 3.7h6.4zm4.8-5.1h1.7l.2 2.2h.1c.6-1.4 1.9-2.3 3.4-2.5.4 0 .9.1 1.3.3l-.4 1.8c-.3-.2-.7-.2-1.1-.2-1.1 0-2.3.7-3.1 2.8v7.7h-2.1V84.4zm8 17.1l.4-1.7.9.2c1.4 0 2.3-1.1 2.8-2.6l.3-.9-4.9-12.1h2.1l2.5 6.8c.4 1 .8 2.3 1.2 3.4h.1l1-3.4 2.2-6.8h2l-4.6 13.1c-.9 2.4-2.1 4.2-4.6 4.2l-1.4-.2zm-91.1-11.8V82h2v7.3c0 2.3.7 3.3 2.3 3.3s2.1-.7 3.3-2.1V82h2v12.1H246v-2h-.1c-.9 1.4-2.4 2.2-4 2.3-2.6 0-3.7-1.7-3.7-4.7zm13.6-7.7h1.7l.2 1.4h.1c1-1 2.4-1.6 3.8-1.7 3.2 0 4.9 2.4 4.9 6.2s-2.5 6.6-5.3 6.6c-1.3-.1-2.4-.6-3.4-1.5v6.3h-2.1l.1-17.3zm8.4 5.9c0-2.7-.9-4.5-3.2-4.5-1.2.2-2.4.8-3.2 1.7v6.4c.8.7 1.8 1.1 2.9 1.2 2.1-.1 3.5-1.8 3.5-4.8z" class="st3"/><path d="M258.4 51.3s-4.3 2.8-3.6-.3c.1-.6.4-1.1.7-1.6l1.7-2.4s-2.5.8-3.1-.7c-.2-.7.1-1.4.7-1.8 1.6-1.1 5.4-4.2 5-8.9 1.6.9 2.3 2.9 1.6 4.7 0 0 3.8-2.3 3.8.4l-.3 2.1c1.1-.6 2.3-1.1 3.6-1.3.6.1 1 .6 1 1.2 0 .1 0 .2-.1.3-.8 1.6-2.7 5.3-3.4 5.2-.7-.1-7.6 3.1-7.6 3.1z" class="st13"/><path d="M257.6 52.2l4.3 3.2 6.8-3.7.3-6z" class="st14"/><path d="M259.8 35.6s-.8 5.8-5 8.9h3.1l3-5.7" class="st13"/><path d="M275.3 36.2l3.3 3.3m44.8-.4l-4.2 2" class="st15"/><path d="M309.1 42l4.6 1.1" class="st16"/><path d="M285.3 35.3l2.4-3.9m12.6 14.3l3.5 3.2" class="st17"/><path d="M265.5 44.9l-3.9-1.7m25.7-2.5l3.3 3.3" class="st16"/><path d="M258.9 43l.1 4.5" class="st17"/><path d="M298.1 39l4.4-1.6" class="st15"/><path d="M26.3 65.6c-2.9 3.6-7.2 5.6-11.8 5.4C7.7 71 13 43.7 12 39.8c0 0 7.2-1.6 6.7 5.5 0 1-.1 2.2-.2 3.5 1.3-2.7 3.2-5.2 5.8-4.9s2.3 6.9-1.7 11.7c.6-.2 1.3-.3 2-.3 5.6 0 5.3 5.9 1.7 10.3zm0-5.9c-.1-3.2-5.7-1.7-8.4.6 0 4.3.2 7.8.9 8.2.6.4 7.7-3.2 7.5-8.8zM18 57v.2c4.4-3.1 7.1-11.5 4.8-11.7-2.4-.2-4.5 9.6-4.8 11.5zm35.4-.7S49.6 69 41.9 69c-3.1 0-3.4-3.2-3.2-6.9-1.4 1.6-3.5 2.4-5.7 2.1-3.9-.7-3-5.9.3-7.9 1.9-1.1 4-1.5 6.2-1.1 0-.9 0-1.7-.1-2.6 0 0 6.5-1.4 6 4.9s-.2 9.7 2.3 7.1c2.1-2.4 3.6-5.2 4.5-8.2h1.2zm-14.4 3l.3-2.1c-1.2 0-4.7.2-4.8 2.8-.1 2.6 2.8 1.2 4.5-.7z" class="st18"/><path d="M76.9 57.5s-4.2 15.3-12.4 15.3c-1.7 0-2.6-2.4-3-5.9-1.9 2.3-4.4 4.1-7.1 3.9-2.8-.2-3.4-10-3-18.7h-4.2V51h.3l.8-.2h1.2l1.5-.2h.6v-.4c0-.2.1-1.2.2-1.8.2-4.2.4-7.5.1-8.6s6.6-1.4 6.1 4.8c-.1 1-.2 2.1-.3 3.4-.1 1.3-.1 1.5-.1 1.8v.3h1.9l2.3-.2h.2c.2-3.8.4-6.9.1-7.8s6.5-1.4 6 4.9c0 .7-.1 1.7-.1 2.6h3.9v1.3h-1.1l-1.3.1-1.6.2h-.2v.8c-.1 2.1-.2 4.4-.3 6.7.1 6.7 0 12 3 9.5s5.7-10.8 5.7-10.8l.8.1zm-15.2-6.1l-2.2.2h-2.1c-.1 1.4-.1 3-.1 4.5 0 6.7-.4 12.8 2.6 10.3.6-.5 1.1-1.1 1.5-1.7-.1-4.3 0-8.5.3-12.8v-.5z" class="st18"/><path d="M89.6 57.7c-6.5 11.9-19.2 15.4-17.3 4 .5-4.2 4.3-7.2 8.5-6.7.3 0 .6.1.8.1 1.5.5 2.9 2.4 1.2 5.1-1.7 2.7-3.6 2.1-4.9 2.1-1.1 9.1 9.5-2.5 10.8-5.2l.9.6zm-11.5 3.6c2.5.2 3.5-1.1 3.8-1.8.3-.7.6-2.3-.9-2.3s-2.2-.1-2.9 4.1z" class="st18"/><path d="M104.8 58.2c-.4.9-3.8 16.3-11.2 16-5.1-.2-2.3-10.8-1.7-16.3-8.4-.2-5.4-3.5-6.2-6.1 0 0 5.6-2.4 5.2 2.5-.1 1 1.6 1 1.7 1s5.7.1 5.1 5.2c-.6 5.1-1.9 12.6 1.1 9.3 3-3.3 4.8-12.2 4.8-12.2s1.5-.4 1.2.6zM48 75h5.3c3.6 0 6.1 1.3 6.1 4.4.1 1.7-1 3.3-2.6 3.9 2.2.2 3.8 2.1 3.7 4.3 0 3.5-2.8 5.2-6.8 5.2H48V75zm4.9 7.5c3.1 0 4.3-1.1 4.3-2.9 0-1.8-1.4-2.9-4.2-2.9h-2.7v5.8h2.6zm.5 8.5c3 0 4.8-1.1 4.8-3.5s-1.7-3.2-4.8-3.2h-3.1V91h3.1zm9.5-1.6c0-2.9 2.5-4.4 8-5 0-1.7-.6-3.3-2.7-3.3-1.4.1-2.8.5-4 1.4l-.8-1.5c1.5-1.1 3.3-1.7 5.2-1.8 3.2 0 4.6 2.2 4.6 5.5v8h-1.9l-.2-1.6H71c-1.1 1.1-2.7 1.8-4.3 1.9-2.2.1-3.8-1.2-3.8-3.6zm8 .2v-3.7c-4.4.5-5.9 1.6-5.9 3.3s1 2.1 2.3 2.1c1.4-.1 2.7-.7 3.6-1.7zm6.4-16.1h2.3v13l5.7-6.9h2.5l-4.5 5.3 5 7.8h-2.4L82 86.4l-2.4 2.9v3.5h-2.3V73.5zm12 12.7c0-4.3 2.9-7 5.9-7 3 0 5.3 2.5 5.3 6.2 0 .4 0 .9-.1 1.3h-8.8c.1 2.8 1.8 4.6 4.4 4.6 1.2 0 2.3-.4 3.3-1l.8 1.5c-1.3.8-2.8 1.3-4.4 1.3-3.6 0-6.4-2.6-6.4-6.9zm9.2-1.1c0-2.6-1.2-4.1-3.2-4.1s-3.6 1.5-3.8 4.1h7zm5.1-5.4h1.9l.2 2.4h.1c.9-1.7 2.2-2.8 3.7-2.8.5 0 1 .1 1.4.3l-.4 2c-.4-.2-.9-.2-1.3-.2-1.1 0-2.4.8-3.3 3v8.4h-2.3V79.7zm8.9 18.4l.4-1.7 1 .2c1.5 0 2.5-1.2 3-2.9l.3-1-5.3-13.1h2.3l2.7 7.2 1.3 3.7h.1c.4-1.2.8-2.5 1.1-3.7l2.4-7.2h2.2l-5 14.2c-1 2.6-2.3 4.6-5 4.6-.6.1-1.1 0-1.5-.3zM13 85.3V77h2.3v8c0 2.5.7 3.5 2.5 3.5s2.3-.6 3.5-2.2V77h2.3v13.2h-1.9l-.2-2.1h-.1c-1.2 1.4-2.5 2.4-4.3 2.4-1.9 0-4.1-1.8-4.1-5.2zM27.9 77h1.9l.2 1.5c1.2-1.1 2.7-1.7 4.3-1.8 3.4 0 5.2 2.6 5.2 6.7s-2.7 7.1-5.7 7.1c-1.4-.1-2.6-.6-3.7-1.5v6.7h-2.2V77zm9.2 6.4c0-3-1-4.9-3.5-4.9-1.3.1-2.6.8-3.5 1.8v6.9c.9.8 2 1.3 3.2 1.4 2.2 0 3.8-2 3.8-5.2z" class="st18"/><path d="M32.8 39s-4.7 3-4-.4c.2-.6.4-1.2.8-1.7l1.8-2.7s-2.6 1-3.3-.7c-.2-.7.1-1.5.7-2 1.8-1.2 5.9-4.5 5.5-9.7 1.8 1.1 2.5 3.2 1.8 5.2 0 0 4.1-2.5 4.1.4l-.3 2.3c1.2-.7 2.5-1.2 3.9-1.4.6 0 1.1.6 1 1.2 0 .1-.1.3-.1.4-.8 1.7-2.9 5.8-3.7 5.7S32.8 39 32.8 39z" class="st19"/><path d="M31.9 39.9l4.7 3.5 7.3-4 .3-6.6z" class="st20"/><path d="M34.3 21.8s-.9 6.4-5.5 9.7h3.4l3.3-6.2" class="st19"/><path d="M53.4 29.6l3.7 3.4m48.8-3l-4.5 2.5" class="st21"/><path d="M90.4 34.1l5.1.9" class="st22"/><path d="M64.1 28l2.5-4.4m14.5 15l3.9 3.1" class="st23"/><path d="M40.2 31.9L36 30m30.7 3.8l3.8 3.5" class="st22"/><path d="M33.2 28.2l.2 4.9" class="st23"/><path d="M78.3 31.3l4.7-1.9" class="st21"/><path d="M349.1 49.9c-.8-.4-1.6-.9-2.4-1.4-2.6-1.9-4-4.3-3.2-5.5.8-1.2 3.6-.5 6.2 1.3 1 .8 1.8 1.6 2.6 2.6" class="st24"/><circle cx="402.1" cy="71.1" r="39.4" class="st25"/><path d="M389.8 48.8c-10.8 29.5-46.1 17.4-46.1 17.4 11.7 0 14.3-12 14.9-16.8.3-2.1.8-4.2 1.6-6.2 6.3-14.5 21-11.4 21-11.4v-.3c.1-8.2 4.5-15.7 11.6-19.8 17.9-10.3 31.7 3.8 31.7 3.8 12.9 11.6-19.9 16.6-19.9 16.6-12.2 1.5-16.3 7.7-16.3 7.7l1.5 9z" class="st26"/><path d="M393.3 66s-20.7 4.2-22.9 28.5c5.5 8.1 13.9 13.6 23.5 15.4 15.4 3.1 31.2-3.2 40.4-16 0 0-2-19.3-22.5-23.6" class="st18"/><path d="M424.9 24.7c3.4 2 3.8 12.9 3.8 18.1 0 1.8-.2 3.6-.7 5.4-2.5 10.7-6.4 14.8-8.6 16.4-.9.7-2.1 1-3.3.9-10.6-.7-21-8.3-21-8.3-5.7-3.7-7.5-12.8-7.5-12.8l-.8 1.5c-1.3 1.8-2.9.2-3.8-1.2-.8-1-1.3-2.1-1.5-3.4-.2-.8-.2-1.6 0-2.4.3-1.5 1.7-2.5 3.2-2.4 1 .1 1.8.8 2.1 1.8.1.3.4.5.7.5.2 0 .3-.1.4-.3l.7-1.3c4.6-2.8 9.7-4.7 15-5.5 0 0 13.7-2.1 17.6-4.8l3.7-2.2z" class="st27"/><path d="M418.1 37.2c-.1 1.9 0 3.7.3 5.6.2.9.5 1.7.9 2.6.4.8.9 1.5 1.5 2.2l1.1 1c.4.5.6 1 .6 1.6-.1 1.2-.9 2.2-2 2.5-.5.2-1.1.2-1.6.1l-.7-.4-.6-.3c-.8-.4-1.8-.6-2.7-.3.9-.5 1.9-.5 2.9-.2l.7.3.6.2c.4.1.8.1 1.2-.1.7-.3 1.2-1 1.2-1.8 0-.4-.1-.7-.4-1l-1-.9c-.7-.7-1.2-1.6-1.6-2.5-.4-.9-.7-1.9-.8-2.9-.3-2-.2-3.9.4-5.7z" class="st28"/><path d="M348.1 52.9c-.3-2-.5-7.7 6.7-7.3l.8.3L386.9 68s-10.4.9-8.3 9.8l-30-24c-.3-.2-.5-.5-.5-.9z" class="st29"/><path d="M412.8 58.3s3.3-3.5 5.7-1.9c1.1-1.1 2.8-1.3 4.2-.7 0 0-1.9 2.3-2.9 2.3s-2.1 7.5-7 .3z" class="st18"/><ellipse cx="383.9" cy="73.6" class="st24" rx="6.9" ry="4.9" transform="rotate(-38.001 383.879 73.557)"/><path d="M420.2 39.3c.2 2.5 2.2 4.4 4.7 4.5l2.9-3.3.8-3.2v-1.8c-.3-1.1-1.3-1.8-2.5-1.7-.1.1-3.5 1.2-5.9 5.5z" class="st6"/><path d="M414.9 62.4c.7.3 1.4.5 2.2.4.3-.1.7-.2 1-.3l1.1-.4-.3.5-.5.4c-.3.3-.7.5-1.2.5-.9.1-1.8-.3-2.3-1.1z" class="st30"/><path d="M398.1 38.1s-2 2.8-.4 5.1 7.1 4 7.1 4 3.4.5 5.7-4.8c0 0-2.3-3.7-4.4-4.2.1 0-7-1.1-8-.1z" class="st6"/><ellipse cx="406.2" cy="42.8" class="st31" rx="3" ry="3.3"/><ellipse cx="424" cy="39.4" class="st31" rx="2.6" ry="3.1" transform="rotate(-10.704 423.9 39.377)"/><path d="M427.4 100.9c-2.3-1.9-9-7.5-9.3-8.5l-9.2-10.2-6.8-7.5s-4.8-2-9.1-.4c0 0-8.1 3.6-5.4 8.6 0 0 3.2 3.6 4.8 3.6 1 1.3 2.5 2.1 4.2 2.3l3.9-2.7-.6-1.8-.6-1.2s1.4-1.7 2.7-.6 11.2 17.2 18 23.9c2-1 3.9-2.2 5.7-3.5.7-.5 1.3-1 1.9-1.6" class="st27"/><path d="M419.5 41.7c0-1.6.3-3.1 1.1-4.5s2-2.6 3.4-3.4c1.4-.7 3.1-1.1 4.7-1 1.4.1 2.9-.2 4.1-1-1 1.3-2.5 2.1-4.1 2.2-1.4.1-2.8.5-4 1.2-1.2.6-2.3 1.6-3.1 2.7-1 1.2-1.7 2.5-2.1 3.8zm-8.2 2.4c-.7-1.6-1.8-3-3.2-4.2-1.3-1-2.9-1.7-4.6-1.9-1.7-.2-3.4 0-5 .6-.9.4-1.9.6-2.9.6-1.1-.1-2.1-.6-2.9-1.3l1.2-.7c.5 1.3 1.1 2.6 2 3.7.9 1.1 1.9 2.1 3 3 1.2.8 2.5 1.6 3.8 2.2l2.1.8 2.2.7-2.3-.3-2.2-.6-2.1-.8c-.7-.3-1.4-.7-2.1-1.1-1.3-.8-2.5-1.9-3.5-3.1-1-1.2-1.8-2.6-2.3-4.2l-.8-2.7 2 2c1.1 1.1 2.7 1.1 4.3.4 1.8-.6 3.8-.7 5.7-.4 1.9.3 3.6 1.2 5 2.5 1.3 1.4 2.2 3 2.6 4.8z" class="st32"/><path d="M428.2 34.4c.4 1 .5 2.1.5 3.2-.1 1.1-.3 2.2-.8 3.2-.2.5-.5 1-.8 1.5l-1.2 1.2c-.9.7-1.8 1.1-2.9 1.4.9-.6 1.7-1.2 2.4-2 .7-.7 1.2-1.6 1.6-2.5.9-1.9 1.3-4 1.2-6z" class="st33"/><path d="M398.7 84s1.3-3.5 3.5-1.2c0 0 12.6 19.1 17.4 23.6" class="st34"/><path d="M384.4 106.1l9.4-16.4 2.8-14.5c.1-1-.3-1.9-1.1-2.6-3.9-4-7.5-2.5-9-1.2l-1.9 1.4c-1.3.9-3.6 3.7-1.7 12.1 0 0 .2 3.8-5.9 17 2.1 1.9 4.5 3.4 7.1 4.6" class="st27"/><path d="M428 34c.8-.8 1.3-1.8 1.4-2.9-.4 1-2.3 1.9-2.3 1.9l.9 1z" class="st33"/><path d="M377.1 101.9c6.1-13.3 6.4-16.8 6.4-16.8-1.9-8.6-.4-11.4 1-12.2l1.9-1.5c1.5-1.3 5.2-2.8 9.1 1.2" class="st34"/><path d="M425.7 34.4c.6-1 .8-2.1.7-3.3-.4 1-1 1.8-1.8 2.5l1.1.8zm-27.9 4.4c-1.1-.8-1.9-1.9-2.1-3.3.6 1.1 3.1 1.9 3.1 1.9l-1 1.4zm2.6-.8c-.9-.8-1.6-1.9-1.9-3.1.7.8 1.6 1.5 2.6 1.9l-.7 1.2z" class="st33"/><path d="M392.2 86.5c-6.2-2.5-6-5.8-4.2-8.3 2.1-2.8 5.3-4.5 8.8-4.6 1.3 0 2.5.1 3.8.5.8.3 1.5.9 2.1 1.5 3.5 4 20.3 23.2 24.5 25.7" class="st34"/><path d="M397.2 54.4c.8 8.6-3.1 11.5-3.1 11.5-.2.1-.3.3-.2.5.2 2.3 1.9 13.2 11.9 12.4 0 0 5.5-.3 6.2-8.1 0 0-3-2.1-1.3-8.6l-13.5-7.7z" class="st27"/><path d="M391.2 83.9s1.2 4.1 4.1 4.9c.5.1 1 0 1.5-.2 1.1-.5 2.2-1.2 3.1-2 .6-.6.6-1.5.1-2.1-.3-.3-.7-.5-1.2-.5-1.5-.2-2.8.8-3 2.3v.4m-1.4 1.8l-10.2 17.8" class="st34"/><path d="M410.7 57.7c.9.4 1.8.6 2.8.7" class="st35"/><path d="M397.2 58.5s5 8.6 13.3 9.4c0 0-.6-2.9 0-3.5.6-.5-10.4-3-13.3-5.9z" class="st36"/><circle cx="406.5" cy="42.8" r="1.2" class="st37"/><circle cx="407.3" cy="41.6" r=".8" class="st6"/><circle cx="423.9" cy="39.6" r="1.2" class="st37"/><circle cx="424.6" cy="38.4" r=".8" class="st6"/></symbol></svg>