<svg id="Layer_1" data-name="Layer 1" xmlns="http://www.w3.org/2000/svg" width="0.9in" height="0.9in" viewBox="0 0 64.9 64.4"><title>Iogos</title><path d="M56.8,8.9H8.1A8.1,8.1,0,0,0,0,17V49.4a8.2,8.2,0,0,0,8.1,8.2H56.8a8.2,8.2,0,0,0,8.1-8.2V17A8.1,8.1,0,0,0,56.8,8.9ZM43.4,30.5,60.6,15.8a5,5,0,0,1,.2,1.2V49.4c0,.3-.1.6-.1.8ZM56.8,12.9l.7.2-25,21.5L7.4,13.1l.7-.2ZM4.2,50.2c0-.2-.1-.5-.1-.8V17a5,5,0,0,1,.2-1.2L21.5,30.5Zm3.9,3.3L7,53.3,24.5,33.2l6.6,5.6a2.4,2.4,0,0,0,1.4.5,2.4,2.4,0,0,0,1.3-.5l6.6-5.6L57.9,53.3l-1.1.2Z" fill="#dba7b4" stroke="#dba7b4" stroke-miterlimit="10"/></svg>