<?xml version="1.0" encoding="utf-8"?>
<!-- Generator: Adobe Illustrator 23.1.1, SVG Export Plug-In . SVG Version: 6.00 Build 0)  -->
<svg version="1.1" id="Layer_1" xmlns="http://www.w3.org/2000/svg" xmlns:xlink="http://www.w3.org/1999/xlink" x="0px" y="0px"
	 viewBox="0 0 87 87" style="enable-background:new 0 0 87 87;" xml:space="preserve">
<style type="text/css">
	.st0{fill:#ACA0AC;stroke:#ACA0AC;stroke-miterlimit:10;}
</style>
<path class="st0" d="M76.1,12.3H10.9C4.9,12.3,0,17.1,0,23.1v43.4c0,6,4.8,10.9,10.9,11h65.3c6-0.1,10.9-5,10.9-11V23.1
	C87,17.1,82.1,12.3,76.1,12.3z M58.2,41.2l23.1-19.7c0.2,0.5,0.2,1.1,0.3,1.6v43.4c0,0.4-0.1,0.8-0.1,1.1L58.2,41.2z M76.1,17.6
	l0.9,0.3L43.6,46.7L9.9,17.9l0.9-0.3H76.1z M5.6,67.6c0-0.3-0.1-0.7-0.1-1.1V23.1c0-0.5,0.1-1.1,0.3-1.6l23.1,19.7L5.6,67.6z
	 M10.9,72.1l-1.5-0.3l23.5-26.9l8.8,7.5c0.5,0.4,1.2,0.7,1.9,0.7c0.6,0,1.2-0.3,1.7-0.7l8.8-7.5l23.5,26.9l-1.5,0.3H10.9z"/>
</svg>
