<svg xmlns="http://www.w3.org/2000/svg" viewBox="0 0 216 151.2" width="216" height="152"><path d="M15.5 24.7c.5 1.6.9 3.3 1 5 .3 1.5.4 3.1.4 4.7a39.75 39.75 0 0 1 0 6.9c-.1 1.9 0 2.8.2 3 .7-1.4 1.1-2.9 1.5-4.4.8-2.8 1.8-5.6 2.9-8.3.8-1.8 1.7-3.5 2.8-5.1.8-1.3 2-2.3 3.4-2.9 1.6-.4 3.3-.1 4.7.8 1.6.9 3 2.1 4 3.6.6.8 1 1.7 1.2 2.7.3.7.4 1.5.4 2.3v.4c-.2 2.3-1 4.6-2.2 6.6-1.3 2.3-2.8 4.5-4.6 6.5-2.4 3-5.2 5.6-8.3 7.9-2.8 2.2-4.7 3.1-5.7 2.8-.1 3.4.1 6.8.5 10.2.4 3 .5 5.9.3 8.9 0 .7-.6 1.4-1.3 1.4h-.2c-1.1 0-2.2-.3-3.2-.8-.9-.4-1.7-1-2.4-1.7-.6-.5-1-1.3-1-2.1A257.69 257.69 0 0 1 9.3 61v-2c0-3.2.1-6.3.2-9.2.3-6.4.8-11.9 1.5-16.4.5-2.9.7-5.9.7-8.8.1-1 .5-1.6 1.1-1.6h.6c.9.3 1.6 1 2.1 1.7zm1.8 29.7c.2.4.5.6.9.6l1.1-.3c.7-.4 1.4-.8 2.1-1.3 1.6-1.4 2.8-3.1 3.7-5 1.2-2.2 2.3-4.5 3.1-7 .5-1.3.9-2.6 1.2-3.9s.6-2.6.8-3.8c.3-1.4.4-2.9.4-4.4v-1.5c-.2-1.7-.7-2.7-1.7-3h.1c-.7 0-2 1.2-3.5 3.8-1.9 3.4-3.4 7-4.7 10.7-.9 2.4-1.6 4.9-2.2 7.4-.5 2.6-1 5.2-1.3 7.7zm25.6-31c.2-.5.7-.9 1.2-.8l1.1.3c1 .6 1.7 1.2 1.8 2 .2 1.1.4 2.2.4 3.3.2 1.5.3 3.1.4 4.8s.2 5 .3 7.3c0 1.2.1 2.4.3 3.5.1-.2.2-.6.4-1.2s.3-1.2.5-2.1c.2-.8 1-3.2 1.7-5.3.7-1.9 1.4-3.9 2.3-5.7.8-1.7 1.8-3.2 2.9-4.7.7-1.1 1.9-1.8 3.2-1.9 2.3.1 4 1.6 5.3 4.4 1.4 3.3 2.3 6.7 2.7 10.3.3 2.2.6 4.6.7 7l.3 7.4v10.7l-.2 8.7v3.3c0 .6 0 1.3.2 1.9-.7 1-1.8 1.6-3 1.5h-1c-1.7 0-3.2-.9-3.9-2.4-.5-3.3-.7-6.6-.6-10 0-1.8.1-3.5.1-5.4h-.7a41.56 41.56 0 0 0-6.9 1.2l-2.7.7v.4c.4 3.7.7 8 .9 12.7-.3.9-1.6 1.1-3.6.8-2.1-.3-3.3-1.3-3.7-2.9-.8-4.2-1.3-8.5-1.7-12.8-.2-3.5-.3-6.7-.3-9.9v-2c0-5.8.4-11.6 1.1-17.3.8-4.7 1-7.3.5-7.8zm10 36.3c2.4-.5 4.7-.8 7.1-1.1h.1c0-2.1.1-4.3.2-6.4.1-2.2.2-4.8.2-7.2s.2-4.7.2-6.9c0-3.9 0-7.3-.2-10s-.5-4-1.2-4.2c-.7-.1-1.6.8-2.6 2.7-1.2 2.1-2.2 4.2-3 6.4-1.3 3-2.3 6.1-3.2 9.2-.8 2-1.3 4.2-1.6 6.3l.7 11.8 3.3-.6zm35.4 17.7h-.4c-4.4.2-8.5-1.8-11-5.4-.8-1.1-1.5-2.4-1.9-3.7-.5-1.3-1-2.7-1.2-4-.5-2.7-.8-5.5-.8-8.3 0-.3-.1-.6-.1-.8 0-2.6.1-5 .3-7.3s.4-4.7.7-6.9c.4-2.1.9-4.2 1.6-6.2 1-3.3 2.9-6.3 5.4-8.6a12.21 12.21 0 0 1 8-2.6H91c1.1.2 2.2.7 3 1.5 1.1.9 2 2 2.7 3.2 1.8 3 3.2 6.2 3.9 9.7 1 3.9 1.6 7.8 1.7 11.8v.5c0 2-.1 4.1-.4 6.1-.3 2.2-.7 4.5-1.2 6.6-.9 3.6-2.5 7-4.7 10.1-1.7 2.5-4.6 4.2-7.7 4.3zm10.6-27.8v-.2a41.93 41.93 0 0 0-.3-5c-.2-1.9-.5-3.8-.9-5.7-.5-3.2-1.5-6.3-2.7-9.3-1.2-2.8-2.5-4.2-3.7-4.4H91c-1.6 0-3 1.2-4.4 3.6-1.6 2.9-2.7 6-3.5 9.2-.5 1.9-.9 3.9-1.1 5.8-.3 1.9-.5 3.8-.5 5.7-.1.7-.1 1.3-.1 2 0 1 0 2.2.1 3.3s.2 3.9.4 6c.4 3.5 1.2 6.9 2.3 10.3 1.1 3 2.6 4.7 4.6 4.8h.5c2.5 0 4.4-1.3 5.7-4 1.5-3.2 2.6-6.6 3.1-10.2.3-2.1.5-4.2.7-6.2s.1-4 .1-5.7zm11.6-26c.3-.5.9-.8 1.5-.8.7.1 1.3.3 1.9.6a6.81 6.81 0 0 1 2.9 4.9c.6 2.8.9 5.6 1 8.4.2 3.2.2 6.5.1 10l-.2 6.6c-.1 2.3-.3 4.4-.5 6.4-.3 3.7-.6 7.1-1 10-.1 1.8-.4 3.5-.7 5.3l6.2-.7c1.4-.3 2.9-.2 4.4.1.4.2.5.4.5.7s-.1.5-.3.6h-2.7l-3.9.2-2.1.3-1.7.4c-.6.3-1.3.6-2 .7l-2.2.5h-1.3c-.8 0-1.6-.2-2.4-.4-1-.1-1.8-.9-2.1-1.9l3.6-32.5c1-8.8 1.6-15.1 1-19.4zm31.9 0c.5 0 .7.2.6.5s-.3.6-.5.8h-3.2c-.5-.1-1.1-.1-1.7 0l1.6 9.6c.5 3 .9 6 1.3 8.9.8 5.4 1.3 10.7 1.8 15.9.3 5.4.2 10.8-.3 16.2.7 0 1.3.1 2 .2l3.1.4c.2.1.4.2.4.4s-.1.1-.1.2c-.2.3-.4.5-.6.6l-9.8-.8c-2.4-.2-4.7-.2-7.1.1-.2-.2-.3-.5-.2-.7 0-.2 0-.5.2-.6h4.5c-.1-3.4-.3-7-.3-10.5V54l.3-17.5c.2-3.9.1-7.8-.2-11.6h-5.4c-.3-.2-.4-.3-.3-.6 0-.2.1-.5.3-.6l13.6-.1zm9.4.3c.4-.9 1.4-1.6 2.4-1.6h.6c1.2.2 2.3 1.1 2.7 2.3.5 4.6.8 9.1.8 13.7.1 3.3 0 6.6-.2 9.9l.6-1.6c.2-.8.6-1.8 1-2.9s2.1-4.7 3.6-7.5c1.8-3.1 3.9-6.1 6.3-8.7.4-.4 1-.8 1.6-1h1.8c1.1.2 2.2.9 2.9 1.8.9.8 1.4 1.9 1.6 3.1.2 1.8.4 3.5.4 5.3 0 1.9 0 3.7-.1 5.7-.1 3.6-.3 7.4-.7 11s-.6 7.1-.7 10.1c-.1 2.2 0 4.3.3 6.4.1 1.4.7 2.8 1.8 3.7.1.2.1.5.1.7s0 .5-.1.7c-.1.4-.3.8-.6 1-.7.8-1.8 1.2-2.9 1.1h-.6c-1.4 0-2.7-.6-3.5-1.8-1.2-2-2-4.8-2.2-8.5a114.26 114.26 0 0 1 .3-11.7l1.3-12 1.3-9.7c.3-2.5.2-2.3.2-3.1s-.2-1.1-.4-1.1-2.5 1.1-4.4 3.9c-1.9 2.9-3.5 6-4.9 9.1-1 2.1-1.9 4.2-2.6 6.3-.6 1.6-1.1 3.2-1.5 4.9v3.2c0 1.3.1 2.8.2 4.3s.1 5.4.2 8.1c.1 1.9-.1 3.8-.4 5.6-.6 1-1.9 1.6-3.7 1.3-1.7-.1-3.1-1.2-3.6-2.8-.6-3-.9-6.1-.8-9.1 0-3.9.1-8.1.4-12.5l.4-6.9c.1-2.3.3-4.4.5-6.4l.7-9.8c.2-2.6.1-4.2-.1-4.5zm31.6-.5c.2-.5.7-.9 1.2-.8l1.1.3c1 .6 1.7 1.2 1.8 2 .2 1.1.4 2.2.4 3.3.2 1.5.3 3.1.4 4.8s.2 5 .3 7.3c0 1.2.1 2.4.3 3.5.1-.2.2-.6.4-1.2s.3-1.2.5-2.1c.2-.8 1-3.2 1.7-5.3.7-1.9 1.4-3.9 2.3-5.7.8-1.7 1.8-3.2 2.9-4.7.7-1.1 1.9-1.8 3.2-1.9 2.3.1 4 1.6 5.3 4.4 1.4 3.3 2.3 6.7 2.7 10.3.3 2.2.6 4.6.7 7l.3 7.4v10.7l-.2 8.7v3.3c0 .6 0 1.3.2 1.9-.7 1-1.8 1.6-3 1.5h-1c-1.7 0-3.2-.9-3.9-2.4-.5-3.3-.7-6.6-.6-10 0-1.8.1-3.5.1-5.4h-.7a42.72 42.72 0 0 0-7 1.2l-2.6.7v.4c.4 3.7.7 8 .9 12.7-.3.9-1.6 1.1-3.6.8-2.1-.3-3.3-1.3-3.7-2.9-.8-4.2-1.3-8.5-1.7-12.8-.2-3.5-.3-6.7-.3-9.9v-2c0-5.8.4-11.6 1.1-17.3.7-4.7.9-7.3.5-7.8zm10 36.3c2.4-.5 4.7-.8 7.1-1.1h.1c0-2.1.1-4.3.2-6.4.1-2.2.2-4.8.2-7.2s.2-4.7.2-6.9c0-3.9 0-7.3-.2-10s-.5-4-1.2-4.2c-.7-.1-1.6.8-2.6 2.7-1.2 2.1-2.2 4.2-3 6.4-1.3 3-2.3 6.1-3.2 9.2-.8 2-1.3 4.2-1.6 6.3l.7 11.8 3.3-.6zM25.8 82.1c.3-.7 1.1-1.2 1.9-1.1h.8c1.3.3 2.5 1.1 3 2.4l.4 5.8c.2 2.3.1 4.7.2 7.1l.3 9.7c0 2.9.2 4.5.2 4.8.4-2 .8-4 1.3-5.9.7-2.9 1.7-5.9 2.6-8.9.5-1.9 1.2-3.7 2-5.5.4-1.4 1.1-2.7 1.9-3.8.5-.6 1.3-.9 2.1-.8 1 0 1.9.4 2.7 1 .4.4.8.9 1 1.3a8.3 8.3 0 0 1 .6 2.1c.1 1.2.1 3 .1 5.5l.1 7.7c0 2.8 0 2.8.1 4.3v4.2c0 2.4.1 4.4.1 6s.1 2.5.1 2.6c.2-.3.4-.7.4-1 .3-.7.5-1.5.6-2.3.4-1.9 1-4.2 1.8-7.1.7-2.9 1.7-5.7 2.7-8.7 1.1-3 2.4-5.8 3.9-8.6 1.2-2.4 2.9-4.5 5.1-6.1 1-.8 2.5-.8 3.5 0 1.3.7 2.3 1.8 2.7 3.2.2 1.5.3 3 .3 4.6V97c-.1 3-.3 6.4-.6 10l-.6 5.8c-.1 2-.3 3.9-.4 5.8-.3 3.6-.6 6.9-.7 9.9-.2 2.2 0 4.3.4 6.4.1 1.2-.5 2-2 2.2h-.7c-1.2 0-2.3-.4-3.2-1.2-.4-.3-.7-.7-.9-1.1-.3-.5-.5-1-.6-1.6-.2-4.6-.2-9 0-13.1l1-11.2c.6-5 1.5-10 2.7-14.8.9-3.6 1.1-5.5.8-5.7s-1.9.4-2.9 2a41.17 41.17 0 0 0-3.3 6.2l-1.8 4.5c-.5 1.6-1.2 3.2-1.8 4.9-.5 1.7-2 6.2-2.8 9.3s-1.6 5.8-2 8c-.1.6-.4 1.1-.7 1.6-.3.4-.7.7-1.1.9-1 .3-2.1.2-3-.3-.9-.4-1.6-1.2-1.9-2.2a25 25 0 0 1-.9-7.7c-.1-2.9-.1-5.9 0-8.8l.4-8.3c.2-2.6.3-4.7.3-6.2 0-.7-.1-1.4-.2-2.1 0-.5-.2-.7-.4-.7s-1.3 1.1-2.4 3.8c-1 2.7-2.1 5.8-3 9l-2.1 7.7c-.4 1.6-.7 3.3-.8 5 .1 2.3.3 4.5.4 6.3l.4 6.3-.6 1.9c-.3.6-.6 1.1-1 1.6-1.2 1.3-2.7 2.1-4.5 2.4-1.7.2-2.5-.4-2.7-1.8-.5-3.1-.8-6.2-.7-9.3-.1-1-.1-2.1-.1-3.1a330.29 330.29 0 0 1 .2-7.7l.7-13 .7-10.5.1-3.7c.2-1.2.1-1.8-.2-2.3zm57.9.6c.5 0 .7.2.6.5s-.3.6-.5.8h-4.9l1.5 9.6c.4 3 1 6 1.5 8.9.8 5.4 1.3 10.7 1.8 15.9.3 5.4.2 10.8-.3 16.2.7 0 1.3.1 2 .2l3 .4c.3.1.4.2.4.4v.2l-.6.6-9.9-.8c-2.3-.2-4.6-.2-7 .1a1.08 1.08 0 0 1-.3-.7c0-.2.1-.5.3-.6h4.5c-.2-3.4-.3-7-.3-10.5v-10.8l.2-17.5c.2-3.9.2-7.8-.1-11.6-.8.1-1.6.1-2.4 0h-3c-.3-.2-.4-.3-.4-.6s.2-.4.4-.6h13.5zm32.9 11.1c-.4.8-1.2 1.4-2.1 1.5-.7 0-1.2-.4-1.5-1.6.3-1.3.4-2.6.2-3.9-.1-1.4-.6-2.8-1.5-3.9-.4-.6-1-1-1.7-1.3-.7-.4-1.5-.6-2.3-.5-.9 0-1.9.2-2.7.6s-1.5.9-2.2 1.6c-1.2 1.2-2.1 2.7-2.7 4.3-.6 1.4-1 3-1.1 4.6 0 1 .2 2 .5 2.9.4 1 .8 1.9 1.5 2.8 1.2 2.1 2.7 4 4.3 5.8a74.65 74.65 0 0 1 4.8 6.3c1.2 1.9 2.2 3.8 3 5.9.8 2.2 1 4.5.8 6.7 0 1.2-.3 2.4-.8 3.5s-1.1 2.1-1.9 3c-1.4 1.7-3.2 3-5.3 3.8-1.8.8-3.8 1.2-5.8 1.3h-.1c-3.7-.1-6.5-1.5-8.4-4-1.3-2-2-4.4-1.9-6.7 0-1.5.2-3.1.5-4.6 1.3-1.3 2.6-1.7 3.7-1s1.3 1.9.7 3.3c-.6 1.5-.9 3.2-.7 4.9.1 1.6.7 3.2 1.7 4.6a5.51 5.51 0 0 0 2 1.7c.9.3 1.8.5 2.7.6a5.42 5.42 0 0 0 2.5-.6 4.54 4.54 0 0 0 1.9-1.5c1.2-1.2 2-2.7 2.6-4.3.5-1.5.8-3 1-4.6 0-1.1-.1-2.2-.4-3.2-.4-1.1-.9-2.2-1.5-3.2-1.3-2.2-2.8-4.2-4.5-6.1-1.8-2-3.4-4-4.9-6.2-1.2-1.8-2.3-3.6-3.1-5.6-.7-1.9-1-4-.8-6 .1-3.6 2-7 5-9a17.52 17.52 0 0 1 9.7-2.9c2.8-.2 5.6 1.2 7.1 3.6 1.2 1.7 1.9 3.8 1.9 5.9-.1.4-.2 1-.2 1.5zm27.8 0c-.3.8-1.1 1.4-2 1.5-.8 0-1.3-.4-1.6-1.6.3-1.3.4-2.6.2-3.9-.1-1.4-.6-2.8-1.5-3.9-.4-.6-1-1-1.7-1.3-.7-.4-1.5-.6-2.3-.5-.9 0-1.8.2-2.6.6s-1.5.9-2.2 1.6c-1.3 1.2-2.2 2.6-2.8 4.3-.6 1.5-1 3-1.1 4.6 0 1 .2 2 .5 2.9.4 1 .9 1.9 1.5 2.8 1.3 2 2.7 4 4.3 5.8a47.67 47.67 0 0 1 4.8 6.3c1.2 1.9 2.2 3.8 3 5.9.7 2.2 1.1 4.5.9 6.7-.1 1.2-.4 2.4-.8 3.5-.5 1.1-1.1 2.1-1.9 3-1.4 1.7-3.2 3-5.3 3.8-1.9.8-3.9 1.2-5.9 1.3h-.2c-3.7-.1-6.5-1.5-8.3-4-1.3-2-2-4.4-1.9-6.7 0-1.5.1-3.1.4-4.6 1.3-1.3 2.6-1.7 3.7-1 1.1.6 1.5 2 .9 3.1 0 .1-.1.1-.1.2-.6 1.6-.8 3.2-.6 4.9 0 1.7.6 3.3 1.7 4.6.5.7 1.1 1.2 1.9 1.7.9.3 1.8.5 2.7.6a5.42 5.42 0 0 0 2.5-.6 4.54 4.54 0 0 0 1.9-1.5c1.2-1.2 2.1-2.6 2.6-4.3.5-1.5.9-3 1-4.6.1-1.1-.1-2.2-.4-3.2-.3-1.1-.8-2.2-1.5-3.2-1.2-2.2-2.7-4.2-4.4-6.1-1.8-1.9-3.4-4-4.9-6.2-1.3-1.7-2.4-3.6-3.1-5.6-.8-1.9-1.1-4-.9-6 .1-3.6 2-7 5-9a17.52 17.52 0 0 1 9.7-2.9c2.8-.2 5.6 1.2 7.1 3.6 1.2 1.7 1.9 3.8 1.9 5.9-.1.4-.1 1-.2 1.5zm15.1-11.1c.6 0 .8.2.6.5-.1.3-.3.6-.5.8h-4.9l1.6 9.6c.5 3 .9 6 1.5 8.9.7 5.4 1.3 10.7 1.7 15.9a87.71 87.71 0 0 1-.3 16.2c.7 0 1.4.1 2.1.2l3 .4c.3.1.4.2.4.4v.2c-.2.3-.4.5-.6.6l-9.8-.8c-2.3-.2-4.6-.2-7 .1a1.08 1.08 0 0 1-.3-.7c0-.2.1-.5.3-.6h4.5c-.2-3.4-.3-7-.4-10.5v-10.8l.3-17.5c.1-5.3.1-9.2-.1-11.6-.8.1-1.7.1-2.5 0h-3c-.2-.1-.3-.4-.3-.6s.1-.5.3-.6h13.4zm20 53.8h-.3c-2.3.1-4.5-.4-6.5-1.5-1.8-1-3.3-2.3-4.6-3.9-.8-1.1-1.5-2.4-1.9-3.7-.5-1.3-1-2.7-1.2-4-.5-2.8-.8-5.6-.8-8.4v-.7c0-2.6 0-5 .2-7.3s.4-4.7.7-6.9c.4-2.1.9-4.2 1.6-6.2 1.1-3.3 2.9-6.2 5.4-8.6a12.21 12.21 0 0 1 8-2.6h2.2c1.1.2 2.2.7 3 1.5 1.1.9 2 2 2.7 3.2 1.8 3 3.2 6.2 3.9 9.7 1.1 3.9 1.6 7.8 1.7 11.8v.5c0 2-.1 4.1-.4 6.1-.2 2.2-.7 4.5-1.2 6.6-.9 3.6-2.5 7-4.7 10.1-1.8 2.5-4.7 4.2-7.8 4.3zm10.6-27.8v-.2c-.1-1.6-.2-3.2-.4-5-.1-1.9-.4-3.8-.8-5.7-.6-3.2-1.6-6.3-2.8-9.3-1.1-2.8-2.4-4.3-3.7-4.4h-.4c-1.5 0-2.9 1.2-4.4 3.6-1.5 2.9-2.7 6-3.4 9.2a59.74 59.74 0 0 0-1.2 5.8c-.3 1.9-.5 3.8-.5 5.7 0 .6-.1 1.2-.1 2 0 .7.1 2.2.1 3.3s.2 3.9.5 6c.3 3.5 1.1 7 2.3 10.3 1 3 2.6 4.7 4.5 4.8h.6c2.4 0 4.3-1.3 5.7-4 1.5-3.2 2.5-6.7 3-10.2.3-2.1.6-4.2.7-6.2s.3-4 .3-5.7z" fill="#fff" stroke="#fdfefe" stroke-width="2" stroke-miterlimit="10"/></svg>