<?xml version="1.0" encoding="utf-8"?>
<!-- Generator: Adobe Illustrator 23.1.1, SVG Export Plug-In . SVG Version: 6.00 Build 0)  -->
<svg version="1.1" id="Layer_1" xmlns="http://www.w3.org/2000/svg" xmlns:xlink="http://www.w3.org/1999/xlink" x="0px" y="0px"
	 viewBox="0 0 87 87" style="enable-background:new 0 0 87 87;" xml:space="preserve">
<style type="text/css">
	.st0{fill:#ACA0AC;stroke:#ACA0AC;stroke-width:1.3405;stroke-miterlimit:13.4052;}
	.st1{fill-rule:evenodd;clip-rule:evenodd;fill:#FFFFFF;}
</style>
<path class="st0" d="M17.6,0.3h51.7c9.6,0,17.3,7.7,17.3,17.3v51.7c0,9.6-7.7,17.3-17.3,17.3H17.6C8,86.7,0.3,78.9,0.3,69.4V17.6
	C0.3,8.1,8,0.3,17.6,0.3z"/>
<path class="st1" d="M70.8,29c0.5-2.7,0.5-5.5-1.2-7.5c-1.7-2-7.1-2.9-10.5-2.5c-3.4,0.4-11.9,4.6-15,14.2c5.5-0.4,8.4,0.4,7.9,6.6
	c-0.5,2.8-1.5,5.6-2.9,8c-1.6,3.1-4.8,9.1-8.8,4.7S36.7,41.1,35.9,36c-0.4-3.1-1-6.1-1.9-9.1c-0.8-2.5-2.5-5.5-4.8-6.2
	c-2.3-0.7-5.4,0.4-7.1,1.3c-5.5,3.4-9.8,7.9-14.5,11.8v0.3c0.9,0.9,1.2,2.4,2.5,2.7c3.4,0.4,6.4-3.1,8.6,0.5
	c2.1,3.6,1.7,4.8,2.7,7.2c0.9,2.4,2,6.7,2.9,10.5c1.6,6.3,3.5,15.8,9,18.1c2.8,1.2,7-0.4,9.1-1.6c5.4-3.6,10.2-8.1,13.9-13.4
	C65.3,46.3,70.1,32.8,70.8,29z"/>
</svg>
