<svg xmlns="http://www.w3.org/2000/svg" width="87" height="87" viewBox="0 0 64.9 64.4"><rect width="64.4" height="64.4" x=".2" rx="12.9" fill="#dba7b4" stroke="#dba7b4" stroke-miterlimit="10" y="0"/><path d="M52.8 21.4c.4-2 .4-4.1-.9-5.6s-5.3-2.2-7.8-1.9-8.9 3.4-11.2 10.6c4.1-.3 6.3.3 5.9 4.9a16.9 16.9 0 0 1-2.2 6c-1.2 2.3-3.6 6.8-6.6 3.5s-2.6-8.5-3.2-12.3a41.1 41.1 0 0 0-1.4-6.8c-.6-1.9-1.9-4.1-3.6-4.6s-4 .3-5.3 1c-4.1 2.5-7.3 5.9-10.8 8.8v.2c.7.7.9 1.8 1.9 2 2.5.3 4.8-2.3 6.4.4s1.3 3.6 2 5.4 1.5 5 2.2 7.8c1.2 4.7 2.6 11.8 6.7 13.5 2.1.9 5.2-.3 6.8-1.2a39.7 39.7 0 0 0 10.4-10c6.6-8.8 10.2-18.9 10.7-21.7z" fill="#fff" fill-rule="evenodd"/></svg>