<?xml version="1.0" encoding="utf-8"?>
<!-- Generator: Adobe Illustrator 22.1.0, SVG Export Plug-In . SVG Version: 6.00 Build 0)  -->
<svg version="1.1" id="Layer_1" xmlns="http://www.w3.org/2000/svg" xmlns:xlink="http://www.w3.org/1999/xlink" x="0px" y="0px"
	 viewBox="0 0 216 152" style="enable-background:new 0 0 216 152;" xml:space="preserve">
<style type="text/css">
	.st0{fill:none;stroke:#FFFFFF;stroke-width:5;stroke-linecap:round;stroke-linejoin:round;stroke-miterlimit:10;}
	.st1{fill:#FFFFFF;}
	.st2{font-family:'Odin-Bold';}
	.st3{font-size:74.7433px;}
</style>
<path class="st0" d="M77.2,20.2c-1.8-0.1-4,0.1-6.4,0.9c-0.7,0.2-1.4,0.1-2-0.4c-2.1-1.6-7.1-5.3-10.1-5.8c-0.5-0.1-1.1,0-1.6,0.4
	c-1.5,1-5,4.1-7.5,12.6c0,0.2-0.1,0.3-0.2,0.5"/>
<path class="st0" d="M76.6,20.2c1.8-0.1,4,0,6.4,0.7c0.7,0.2,1.4,0,2-0.4c2-1.6,7-5.4,9.9-6c0.5-0.1,1.1,0,1.6,0.3
	c1.5,1,5.1,4,7.7,12.4c0,0.2,0.1,0.3,0.2,0.5"/>
<text transform="matrix(1.0232 0 0 1 -2.7235 74.5332)" class="st1 st2 st3">Paolina</text>
<text transform="matrix(1.0232 0 0 1 13.5455 137.9336)" class="st1 st2 st3">Missio  </text>
</svg>
