<svg id="Layer_1" data-name="Layer 1" xmlns="http://www.w3.org/2000/svg" width="0.9in" height="0.9in" viewBox="0 0 64.9 64.4"><title>Iogos</title><rect x="0.2" width="64.4" height="64.4" rx="12.9" ry="12.9" fill="#dba7b4" stroke="#dba7b4" stroke-miterlimit="10"/><path d="M52.8,21.4c.4-2,.4-4.1-.9-5.6s-5.3-2.2-7.8-1.9-8.9,3.4-11.2,10.6c4.1-.3,6.3.3,5.9,4.9a16.9,16.9,0,0,1-2.2,6c-1.2,2.3-3.6,6.8-6.6,3.5s-2.6-8.5-3.2-12.3a41.1,41.1,0,0,0-1.4-6.8c-.6-1.9-1.9-4.1-3.6-4.6s-4,.3-5.3,1C12.4,18.7,9.2,22.1,5.7,25v.2c.7.7.9,1.8,1.9,2,2.5.3,4.8-2.3,6.4.4s1.3,3.6,2,5.4,1.5,5,2.2,7.8c1.2,4.7,2.6,11.8,6.7,13.5,2.1.9,5.2-.3,6.8-1.2a39.7,39.7,0,0,0,10.4-10C48.7,34.3,52.3,24.2,52.8,21.4Z" fill="#fff" fill-rule="evenodd"/></svg>
