<svg xmlns="http://www.w3.org/2000/svg" width="87" height="87" viewBox="0 0 64.9 64.4"><path d="M56.8 8.9H8.1A8.1 8.1 0 0 0 0 17v32.4a8.2 8.2 0 0 0 8.1 8.2h48.7a8.2 8.2 0 0 0 8.1-8.2V17a8.1 8.1 0 0 0-8.1-8.1zM43.4 30.5l17.2-14.7a5 5 0 0 1 .2 1.2v32.4c0 .3-.1.6-.1.8zm13.4-17.6l.7.2-25 21.5L7.4 13.1l.7-.2zM4.2 50.2c0-.2-.1-.5-.1-.8V17a5 5 0 0 1 .2-1.2l17.2 14.7zm3.9 3.3L7 53.3l17.5-20.1 6.6 5.6a2.4 2.4 0 0 0 1.4.5 2.4 2.4 0 0 0 1.3-.5l6.6-5.6 17.5 20.1-1.1.2z" fill="#dba7b4" stroke="#dba7b4" stroke-miterlimit="10"/></svg>