<?xml version="1.0" encoding="utf-8"?>
<!-- Generator: Adobe Illustrator 22.1.0, SVG Export Plug-In . SVG Version: 6.00 Build 0)  -->
<svg version="1.1" id="Layer_1" xmlns="http://www.w3.org/2000/svg" xmlns:xlink="http://www.w3.org/1999/xlink" x="0px" y="0px"
	 viewBox="0 0 453.6 115.2" style="enable-background:new 0 0 453.6 115.2;" xml:space="preserve">
<style type="text/css">
	.st0{fill:#AAAAAA;}
	.st1{fill:#3D3D3D;}
	.st2{fill:#B6B6B6;}
	.st3{fill:#696969;}
	.st4{fill:#E1E1E1;}
	.st5{fill:#C0C0C0;}
	.st6{fill:#FFFFFF;}
	.st7{fill:#CCCCCC;}
	.st8{fill:#CBCBCB;}
	.st9{fill:#555555;}
	.st10{fill:#545454;}
	.st11{fill:none;stroke:#C0C0C0;stroke-linecap:round;stroke-linejoin:round;}
	.st12{fill:none;stroke:#696969;stroke-width:0.75;stroke-linecap:round;stroke-linejoin:round;}
	.st13{fill:#CBCBCB;stroke:#CBCBCB;stroke-linecap:round;stroke-linejoin:round;}
	.st14{fill:#393939;}
	.st15{fill:none;stroke:#CBCBCB;stroke-linecap:round;stroke-linejoin:round;}
	.st16{fill:none;stroke:#B6B6B6;stroke-linecap:round;stroke-linejoin:round;}
	.st17{fill:none;stroke:#696969;stroke-linecap:round;stroke-linejoin:round;}
	.st18{fill:#ED257A;}
	.st19{fill:#49C4D5;stroke:#49C4D5;stroke-linecap:round;stroke-linejoin:round;}
	.st20{fill:#693990;}
	.st21{fill:none;stroke:#4DC4D3;stroke-linecap:round;stroke-linejoin:round;}
	.st22{fill:none;stroke:#F6B24F;stroke-linecap:round;stroke-linejoin:round;}
	.st23{fill:none;stroke:#ED257A;stroke-linecap:round;stroke-linejoin:round;}
	.st24{fill:#CCA285;}
	.st25{fill:#683E92;}
	.st26{fill:#F6B24F;}
	.st27{fill:#FCDAC6;}
	.st28{fill:#F2B692;}
	.st29{fill:#E0B899;}
	.st30{fill:#F1B692;}
	.st31{fill:#49C4D5;}
	.st32{fill:#9B6C4D;}
	.st33{fill:#9B6C4C;}
	.st34{fill:none;stroke:#F2B692;stroke-linecap:round;stroke-linejoin:round;}
	.st35{fill:none;stroke:#ED257A;stroke-width:0.75;stroke-linecap:round;stroke-linejoin:round;}
	.st36{fill:#F3B692;}
	.st37{fill:#211E1F;}
</style>
<title>versions-batter</title>
<g id="ASSETS">
	<path class="st0" d="M133.5,49.9c-0.8-0.4-1.6-0.8-2.4-1.3c-2.6-1.9-4-4.4-3.2-5.6c0.8-1.2,3.6-0.5,6.2,1.4c1,0.7,1.9,1.6,2.7,2.6"
		/>
</g>
<circle class="st1" cx="186.7" cy="71.4" r="39.5"/>
<path class="st2" d="M174.3,49c-10.8,29.5-46.2,17.4-46.2,17.4c11.7,0,14.4-12,15-16.8c0.2-2.2,0.7-4.3,1.6-6.3
	c6.2-14.6,21-11.4,21-11.4v-0.3c0.2-8.2,4.6-15.7,11.6-19.9c18-10.3,31.9,3.8,31.9,3.8c12.9,11.7-20,16.7-20,16.7
	c-12.2,1.5-16.3,7.7-16.3,7.7L174.3,49z"/>
<path class="st3" d="M178,66.1c0,0-20.8,4.3-23.1,28.6c5.5,8.1,14.1,13.7,23.7,15.5c0,0,23.9,6.1,40.5-16.1c0,0-2-19.3-22.5-23.7"/>
<path class="st4" d="M209.7,24.8c3.4,2,3.8,12.9,3.8,18.1c-0.1,1.8-0.3,3.7-0.7,5.5c-2.5,10.7-6.5,14.9-8.7,16.4
	c-0.9,0.7-2.1,1-3.3,0.9c-10.6-0.6-21-8.3-21-8.3c-5.7-3.7-7.6-12.8-7.6-12.8l-0.8,1.4c-1.2,1.9-2.8,0.3-3.8-1.1
	c-0.8-1-1.3-2.2-1.5-3.5c-0.2-0.8-0.2-1.6,0-2.4c0.3-1.5,1.7-2.5,3.2-2.4c1,0.1,1.9,0.8,2.1,1.8c0,0,0.4,0.9,1.1,0.3l0.8-1.3
	c4.6-2.9,9.7-4.8,15-5.6c0,0,13.7-2.1,17.7-4.8L209.7,24.8z"/>
<path class="st5" d="M202.7,37.2c-0.1,1.9,0,3.7,0.4,5.6c0.2,0.9,0.5,1.8,0.9,2.7c0.3,0.8,0.9,1.5,1.5,2.1l1,1.1
	c0.4,0.4,0.7,1,0.7,1.6c-0.2,1.1-0.9,2.1-2,2.5c-0.5,0.2-1.1,0.2-1.6,0l-0.8-0.3l-0.5-0.4c-0.8-0.4-1.8-0.5-2.7-0.2
	c0.8-0.5,1.9-0.6,2.8-0.2l0.7,0.3l0.6,0.2c0.4,0.1,0.8,0,1.2-0.1c0.7-0.3,1.2-1,1.3-1.8c0-0.4-0.1-0.7-0.4-1c-0.2-0.3-0.7-0.6-1-1
	c-0.7-0.7-1.3-1.5-1.7-2.5c-0.4-0.9-0.6-1.8-0.8-2.8C202.1,41.1,202.3,39.1,202.7,37.2z"/>
<path class="st5" d="M132.5,53c-0.3-1.9-0.5-7.6,6.7-7.2L140,46l31.5,22.2c0,0-10.4,0.9-8.3,9.9L133,54
	C132.7,53.8,132.5,53.4,132.5,53z"/>
<path class="st3" d="M197.5,58.5c0,0,3.4-3.5,5.7-1.9c1.1-1.1,2.7-1.4,4.2-0.8c0,0-1.9,2.4-2.8,2.4
	C203.6,58.2,202.4,65.7,197.5,58.5z"/>
<ellipse transform="matrix(0.788 -0.6157 0.6157 0.788 -9.7195 119.36)" class="st0" cx="168.5" cy="73.8" rx="6.9" ry="4.9"/>
<path class="st6" d="M204.8,39.4c0.2,2.5,2.3,4.4,4.8,4.5l2.8-3.2l0.9-3.3v-1.8c-0.3-1.1-1.4-1.8-2.6-1.7
	C210.7,34,207.4,35.1,204.8,39.4z"/>
<path class="st7" d="M199.7,62.7c0.7,0.2,1.4,0.3,2.1,0.3c0.4,0,0.8-0.1,1.1-0.3l1-0.4l-0.3,0.5c-0.1,0.2-0.3,0.3-0.5,0.4
	c-0.3,0.3-0.7,0.5-1.2,0.5C201,63.8,200.1,63.4,199.7,62.7z"/>
<path class="st6" d="M182.7,38.1c0,0-1.9,2.8-0.4,5.1c1.5,2.3,7.2,4.1,7.2,4.1s3.4,0.5,5.8-4.8c0,0-2.4-3.8-4.5-4.2
	C190.8,38.3,183.8,37.1,182.7,38.1z"/>
<ellipse class="st8" cx="190.8" cy="43" rx="3" ry="3.3"/>
<ellipse transform="matrix(0.9826 -0.1857 0.1857 0.9826 -3.702 39.455)" class="st8" cx="208.8" cy="39.5" rx="2.6" ry="3.1"/>
<path class="st4" d="M212.2,101.3c-2.3-1.9-9.1-7.5-9.4-8.6l-9.2-10.2l-6.8-7.5c0,0-4.8-2-9.1-0.4c0,0-8.2,3.5-5.5,8.5
	c0,0,3.3,3.7,4.9,3.7c1,1.3,2.5,2.1,4.2,2.3l3.9-2.7l-0.6-1.8l-0.6-1.2c0,0,1.4-1.7,2.7-0.6s11.2,17.3,18,23.9c2-1,3.9-2.2,5.8-3.5
	c0.7-0.5,1.3-1,1.9-1.6"/>
<path class="st9" d="M204.1,41.9c0-1.6,0.4-3.2,1.2-4.6c0.7-1.4,1.9-2.6,3.4-3.3c1.4-0.8,3-1.2,4.6-1.1c1.5,0.1,3-0.3,4.2-1.1
	c-1,1.3-2.4,2.2-4.1,2.3c-1.4,0.1-2.8,0.5-4,1.2c-1.2,0.6-2.3,1.6-3.1,2.7C205.4,39.2,204.7,40.5,204.1,41.9z"/>
<path class="st9" d="M196.1,44.2c-0.8-1.6-1.9-3-3.3-4.2c-1.3-1-2.9-1.7-4.6-1.9c-1.7-0.2-3.4,0.1-5,0.6c-1,0.4-2,0.6-3,0.6
	c-1.1-0.1-2.1-0.5-2.9-1.3l1.3-0.7c0.4,1.3,1,2.6,1.9,3.7c0.9,1.1,2,2.1,3.1,3c1.2,0.9,2.4,1.6,3.8,2.2l2.1,0.8l2.2,0.7l-2.3-0.3
	l-2.2-0.5c-0.7-0.3-1.5-0.6-2.2-0.9l-2-1.1c-1.3-0.8-2.5-1.8-3.5-3.1c-1.1-1.2-1.9-2.6-2.4-4.2l-0.8-2.7l2.1,2.1c1,1,2.7,1,4.3,0.3
	c1.8-0.5,3.8-0.7,5.7-0.4c1.9,0.3,3.6,1.2,5,2.6C194.7,40.8,195.6,42.4,196.1,44.2z"/>
<path class="st10" d="M213,34.5c0.4,1,0.5,2.1,0.5,3.2c-0.1,1.1-0.3,2.2-0.8,3.2c-0.2,0.5-0.5,1-0.8,1.5c-0.3,0.4-0.7,0.8-1.2,1.2
	c-0.8,0.7-1.8,1.2-2.9,1.4c0.9-0.6,1.7-1.2,2.4-2c0.6-0.7,1.2-1.6,1.6-2.5C212.5,38.5,212.9,36.5,213,34.5z"/>
<path class="st11" d="M183.4,84.3c0,0,1.3-3.5,3.5-1.3c0,0,12.7,19.2,17.5,23.8"/>
<path class="st4" d="M169,106.4l9.4-16.5l2.9-14.6c0.1-1-0.3-1.9-1.1-2.6c-4-3.9-7.6-2.5-9.1-1.2l-1.9,1.5
	c-1.3,0.8-3.6,3.6-1.7,12.1c0,0,0.2,3.8-5.9,17c2.1,1.9,4.5,3.5,7.1,4.6"/>
<path class="st10" d="M212.8,34.1c0.8-0.8,1.3-1.8,1.4-2.9c-0.4,1-2.3,1.9-2.3,1.9L212.8,34.1z"/>
<path class="st11" d="M161.6,102.2c6.1-13.3,6.4-16.8,6.4-16.8c-1.9-8.6-0.4-11.4,1-12.3c0.7-0.4,1.3-0.9,1.9-1.5
	c1.5-1.3,5.3-2.7,9.1,1.2"/>
<path class="st10" d="M210.5,34.5c0.6-1,0.8-2.1,0.7-3.3c-0.4,1-1,1.8-1.8,2.5L210.5,34.5z"/>
<path class="st10" d="M182.5,38.9c-1.1-0.8-1.9-1.9-2.2-3.3c0.7,1.2,3.2,1.9,3.2,1.9L182.5,38.9z"/>
<path class="st10" d="M185.1,38c-0.9-0.8-1.6-1.9-2-3.1c0.7,0.8,1.6,1.5,2.6,1.9L185.1,38z"/>
<path class="st11" d="M176.8,86.8c-6.1-2.5-5.9-5.9-4.2-8.3c2.1-2.9,5.4-4.6,8.9-4.7c1.2,0,2.5,0.2,3.7,0.6c0.9,0.3,1.6,0.8,2.2,1.5
	c3.5,4,20.4,23.3,24.6,25.7"/>
<path class="st4" d="M181.9,54.6c0.8,8.6-3.1,11.5-3.1,11.5c-0.2,0.1-0.3,0.3-0.3,0.5c0.3,2.4,2,13.3,12.1,12.5c0,0,5.4-0.4,6.2-8.2
	c0,0-3.1-2.1-1.3-8.6L181.9,54.6z"/>
<path class="st11" d="M175.8,84.2c0,0,1.2,4.1,4,4.9c0.5,0.1,1.1,0,1.6-0.2c1.1-0.5,2.1-1.2,3-2c0.6-0.6,0.6-1.5,0.1-2.1
	c-0.3-0.3-0.7-0.5-1.1-0.5c-1.5-0.2-2.9,0.8-3.1,2.4c0,0.1,0,0.2,0,0.3"/>
<line class="st11" x1="179.1" y1="88.8" x2="168.9" y2="106.6"/>
<path class="st12" d="M195.5,57.9c0.8,0.4,1.8,0.6,2.7,0.7"/>
<path class="st5" d="M181.9,58.7c0,0,5,8.6,13.4,9.4c0,0-0.7-2.9,0-3.5S184.8,61.6,181.9,58.7z"/>
<circle cx="191.2" cy="43" r="1.2"/>
<circle class="st6" cx="192" cy="41.7" r="0.8"/>
<circle cx="208.6" cy="39.7" r="1.2"/>
<circle class="st6" cx="209.4" cy="38.5" r="0.8"/>
<path class="st3" d="M250.4,71.5c-2.7,3.2-6.7,5-10.9,4.9c-6.2,0.2-1.3-24.8-2.3-28.4c0,0,6.7-1.5,6.2,5c-0.1,1-0.1,2-0.2,3.2
	c1.2-2.5,2.9-4.7,5.3-4.5c2.4,0.2,2.1,6.4-1.5,10.7l1.8-0.2C254,62.2,253.7,67.5,250.4,71.5z M250.4,66.2c-0.2-3-5.3-1.7-7.7,0.5
	c-0.1,4,0.1,7.1,0.7,7.5C243.9,74.7,250.5,71.3,250.4,66.2z M242.8,63.6v0.3c4-2.9,6.6-10.6,4.4-10.8
	C244.9,52.9,243.1,62,242.8,63.6z"/>
<path class="st3" d="M275.1,63.1c0,0-3.4,11.7-10.5,11.7c-2.8,0-3.1-3-2.9-6.4c-1.3,1.5-3.2,2.2-5.2,1.9c-3.6-0.6-2.8-5.4,0.2-7.2
	c1.7-1,3.7-1.4,5.7-1c0.1-0.8,0.1-1.5-0.1-2.3c0,0,6-1.4,5.5,4.4c-0.5,5.8-0.1,8.9,2.1,6.5c1.9-2.2,3.3-4.8,4.2-7.5L275.1,63.1z
	 M262,65.8c0-0.7,0.1-1.3,0.2-2c-1,0-4.3,0.2-4.3,2.6S260.4,67.5,262,65.8L262,65.8z"/>
<path class="st3" d="M296.8,64.1c0,0-3.9,14.1-11.4,14.1c-1.5-0.1-2.3-2.3-2.7-5.5c-1.8,2.1-4,3.8-6.6,3.6
	c-2.6-0.2-3.1-9.2-2.7-17.2h-3.9v-1h2.1L273,58h0.6v-0.4c0-0.5,0-1.1,0.1-1.6c0.2-3.9,0.4-7,0.1-7.9s6-1.3,5.6,4.4
	c-0.1,0.9-0.2,2-0.3,3.2v1.8h1.6l2.1-0.2h0.2c0.2-2.4,0.3-4.8,0.1-7.1c0,0,6-1.4,5.5,4.4c0,0.7-0.1,1.5-0.1,2.5h3.5V58h-1l-1.1,0.2
	l-1.4,0.2h-0.2v0.7c-0.2,2-0.2,4.1-0.3,6.2c0.1,6.1,0,11,2.7,8.7c2.7-2.3,5.3-10,5.3-10L296.8,64.1z M282.9,58.6h-4
	c-0.1,1.3-0.1,2.7-0.1,4.1c0,6.2-0.4,11.7,2.4,9.5c0.5-0.5,1-1,1.4-1.6c-0.2-3.5,0-7.8,0.2-11.7C282.8,58.8,282.8,58.7,282.9,58.6z"
	/>
<path class="st3" d="M308.5,64.3c-6,10.9-17.6,14.1-15.9,3.7c1.1-6.3,6.8-6.7,8.5-6.1s2.7,2.2,1.1,4.7c-1.6,2.5-3.3,1.9-4.5,1.9
	c-1,8.3,8.7-2.3,10-4.8L308.5,64.3z M297.9,67.6c2.3,0.1,3.2-1,3.5-1.7s0.6-2-0.8-2.1C299.2,63.7,298.6,63.7,297.9,67.6z"/>
<path class="st3" d="M322.3,64.7c-0.2,0.9-3.4,15-10.2,14.7c-4.6-0.2-2.1-9.9-1.6-15c-7.7-0.1-4.8-3.1-5.6-5.5c0,0,5.1-2.2,4.8,2.3
	c-0.1,0.9,1.4,0.9,1.5,0.9s5.2,0.1,4.7,4.8s-1.7,11.5,1,8.5c2.7-3,4.4-11.2,4.4-11.2S322.6,63.9,322.3,64.7z"/>
<path class="st3" d="M270.3,80.2h4.9c3.3,0,5.6,1.1,5.6,4c0.1,1.6-0.9,3-2.4,3.5l0,0c2,0.3,3.4,2,3.4,4c0,3.2-2.6,4.8-6.3,4.8h-5.2
	V80.2z M274.7,87.1c2.8,0,4-1,4-2.6c0-1.6-1.3-2.7-3.9-2.7h-2.5v5.3L274.7,87.1z M275.1,94.8c2.9,0,4.5-1,4.5-3.2s-1.6-2.9-4.5-2.9
	h-2.8v6.1H275.1z"/>
<path class="st3" d="M284,93.3c0-2.6,2.2-4,7.3-4.5c0-1.6-0.5-3.1-2.5-3.1c-1.3,0.1-2.5,0.5-3.6,1.3l-0.8-1.4c1.4-1,3.1-1.5,4.8-1.6
	c2.9,0,4.2,2,4.2,5v7.4h-1.7l-0.2-1.5h-0.1c-1.1,1.1-2.5,1.7-4,1.8c-1.8,0.1-3.4-1.3-3.5-3.1C284,93.6,284,93.5,284,93.3z
	 M291.3,93.5v-3.4c-4,0.5-5.4,1.5-5.4,3.1c0,1.6,0.9,1.9,2.1,1.9C289.2,95.1,290.1,94.5,291.3,93.5L291.3,93.5z"/>
<path class="st3" d="M297.2,78.8h2v11.9h0.1l5.2-6.4h2.3l-4.1,4.9l4.6,7.2H305l-3.6-5.9l-2.3,2.7v3.2h-2V78.8z"/>
<path class="st3" d="M308.1,90.5c0-3.9,2.7-6.4,5.5-6.4s4.9,2.2,4.9,5.7c0,0.5-0.1,0.9-0.1,1.2h-8.1c0.1,2.6,1.7,4.2,4,4.2
	c1.1,0,2.1-0.3,3-0.9l0.8,1.3c-1.2,0.8-2.6,1.3-4,1.3C310.7,96.8,308.1,94.4,308.1,90.5z M316.5,89.5c0-2.4-1.1-3.7-3-3.7
	s-3.2,1.3-3.4,3.7H316.5z"/>
<path class="st3" d="M321.3,84.4h1.7l0.2,2.2h0.1c0.6-1.4,1.9-2.3,3.4-2.5c0.4,0,0.9,0.1,1.3,0.3l-0.4,1.8c-0.3-0.2-0.7-0.2-1.1-0.2
	c-1.1,0-2.3,0.7-3.1,2.8v7.7h-2.1V84.4z"/>
<path class="st3" d="M329.3,101.5l0.4-1.7l0.9,0.2c1.4,0,2.3-1.1,2.8-2.6l0.3-0.9l-4.9-12.1h2.1l2.5,6.8c0.4,1,0.8,2.3,1.2,3.4h0.1
	l1-3.4l2.2-6.8h2l-4.6,13.1c-0.9,2.4-2.1,4.2-4.6,4.2L329.3,101.5z"/>
<path class="st3" d="M238.2,89.7V82h2v7.3c0,2.3,0.7,3.3,2.3,3.3s2.1-0.7,3.3-2.1V82h2v12.1H246v-2h-0.1c-0.9,1.4-2.4,2.2-4,2.3
	C239.3,94.4,238.2,92.7,238.2,89.7z"/>
<path class="st3" d="M251.8,82h1.7l0.2,1.4h0.1c1-1,2.4-1.6,3.8-1.7c3.2,0,4.9,2.4,4.9,6.2s-2.5,6.6-5.3,6.6
	c-1.3-0.1-2.4-0.6-3.4-1.5v6.3h-2.1L251.8,82z M260.2,87.9c0-2.7-0.9-4.5-3.2-4.5c-1.2,0.2-2.4,0.8-3.2,1.7v6.4
	c0.8,0.7,1.8,1.1,2.9,1.2C258.8,92.6,260.2,90.9,260.2,87.9z"/>
<path class="st13" d="M258.4,51.3c0,0-4.3,2.8-3.6-0.3c0.1-0.6,0.4-1.1,0.7-1.6l1.7-2.4c0,0-2.5,0.8-3.1-0.7
	c-0.2-0.7,0.1-1.4,0.7-1.8c1.6-1.1,5.4-4.2,5-8.9c1.6,0.9,2.3,2.9,1.6,4.7c0,0,3.8-2.3,3.8,0.4l-0.3,2.1c1.1-0.6,2.3-1.1,3.6-1.3
	c0.6,0.1,1,0.6,1,1.2c0,0.1,0,0.2-0.1,0.3c-0.8,1.6-2.7,5.3-3.4,5.2C265.3,48.1,258.4,51.3,258.4,51.3z"/>
<polygon class="st14" points="257.6,52.2 261.9,55.4 268.7,51.7 269,45.7 "/>
<path class="st13" d="M259.8,35.6c0,0-0.8,5.8-5,8.9h3.1l3-5.7"/>
<line class="st15" x1="275.3" y1="36.2" x2="278.6" y2="39.5"/>
<line class="st15" x1="323.4" y1="39.1" x2="319.2" y2="41.1"/>
<line class="st16" x1="309.1" y1="42" x2="313.7" y2="43.1"/>
<line class="st17" x1="285.3" y1="35.3" x2="287.7" y2="31.4"/>
<line class="st17" x1="300.3" y1="45.7" x2="303.8" y2="48.9"/>
<line class="st16" x1="265.5" y1="44.9" x2="261.6" y2="43.2"/>
<line class="st16" x1="287.3" y1="40.7" x2="290.6" y2="44"/>
<line class="st17" x1="258.9" y1="43" x2="259" y2="47.5"/>
<line class="st15" x1="298.1" y1="39" x2="302.5" y2="37.4"/>
<path class="st18" d="M26.3,65.6c-2.9,3.6-7.2,5.6-11.8,5.4C7.7,71,13,43.7,12,39.8c0,0,7.2-1.6,6.7,5.5c0,1-0.1,2.2-0.2,3.5
	c1.3-2.7,3.2-5.2,5.8-4.9s2.3,6.9-1.7,11.7c0.6-0.2,1.3-0.3,2-0.3C30.2,55.3,29.9,61.2,26.3,65.6z M26.3,59.7
	c-0.1-3.2-5.7-1.7-8.4,0.6c0,4.3,0.2,7.8,0.9,8.2C19.4,68.9,26.5,65.3,26.3,59.7z M18,57v0.2c4.4-3.1,7.1-11.5,4.8-11.7
	C20.4,45.3,18.3,55.1,18,57z"/>
<path class="st18" d="M53.4,56.3c0,0-3.8,12.7-11.5,12.7c-3.1,0-3.4-3.2-3.2-6.9c-1.4,1.6-3.5,2.4-5.7,2.1c-3.9-0.7-3-5.9,0.3-7.9
	c1.9-1.1,4-1.5,6.2-1.1c0-0.9,0-1.7-0.1-2.6c0,0,6.5-1.4,6,4.9s-0.2,9.7,2.3,7.1c2.1-2.4,3.6-5.2,4.5-8.2H53.4z M39,59.3l0.3-2.1
	c-1.2,0-4.7,0.2-4.8,2.8C34.4,62.6,37.3,61.2,39,59.3z"/>
<path class="st18" d="M76.9,57.5c0,0-4.2,15.3-12.4,15.3c-1.7,0-2.6-2.4-3-5.9c-1.9,2.3-4.4,4.1-7.1,3.9c-2.8-0.2-3.4-10-3-18.7
	h-4.2v-1.1h0.3l0.8-0.2h1.2l1.5-0.2h0.6v-0.4c0-0.2,0.1-1.2,0.2-1.8c0.2-4.2,0.4-7.5,0.1-8.6s6.6-1.4,6.1,4.8
	c-0.1,1-0.2,2.1-0.3,3.4c-0.1,1.3-0.1,1.5-0.1,1.8v0.3h1.9l2.3-0.2h0.2c0.2-3.8,0.4-6.9,0.1-7.8s6.5-1.4,6,4.9
	c0,0.7-0.1,1.7-0.1,2.6h3.9v1.3h-1.1L69.5,51l-1.6,0.2h-0.2V52c-0.1,2.1-0.2,4.4-0.3,6.7c0.1,6.7,0,12,3,9.5
	c3-2.5,5.7-10.8,5.7-10.8L76.9,57.5z M61.7,51.4l-2.2,0.2h-2.1c-0.1,1.4-0.1,3-0.1,4.5c0,6.7-0.4,12.8,2.6,10.3
	c0.6-0.5,1.1-1.1,1.5-1.7c-0.1-4.3,0-8.5,0.3-12.8V51.4z"/>
<path class="st18" d="M89.6,57.7c-6.5,11.9-19.2,15.4-17.3,4c0.5-4.2,4.3-7.2,8.5-6.7c0.3,0,0.6,0.1,0.8,0.1
	c1.5,0.5,2.9,2.4,1.2,5.1c-1.7,2.7-3.6,2.1-4.9,2.1c-1.1,9.1,9.5-2.5,10.8-5.2L89.6,57.7z M78.1,61.3c2.5,0.2,3.5-1.1,3.8-1.8
	c0.3-0.7,0.6-2.3-0.9-2.3S78.8,57.1,78.1,61.3z"/>
<path class="st18" d="M104.8,58.2c-0.4,0.9-3.8,16.3-11.2,16c-5.1-0.2-2.3-10.8-1.7-16.3c-8.4-0.2-5.4-3.5-6.2-6.1
	c0,0,5.6-2.4,5.2,2.5c-0.1,1,1.6,1,1.7,1s5.7,0.1,5.1,5.2c-0.6,5.1-1.9,12.6,1.1,9.3c3-3.3,4.8-12.2,4.8-12.2S105.1,57.2,104.8,58.2
	z"/>
<path class="st18" d="M48,75h5.3c3.6,0,6.1,1.3,6.1,4.4c0.1,1.7-1,3.3-2.6,3.9l0,0c2.2,0.2,3.8,2.1,3.7,4.3c0,3.5-2.8,5.2-6.8,5.2
	H48V75z M52.9,82.5c3.1,0,4.3-1.1,4.3-2.9c0-1.8-1.4-2.9-4.2-2.9h-2.7v5.8H52.9z M53.4,91c3,0,4.8-1.1,4.8-3.5s-1.7-3.2-4.8-3.2
	h-3.1V91H53.4z"/>
<path class="st18" d="M62.9,89.4c0-2.9,2.5-4.4,8-5c0-1.7-0.6-3.3-2.7-3.3c-1.4,0.1-2.8,0.5-4,1.4l-0.8-1.5c1.5-1.1,3.3-1.7,5.2-1.8
	c3.2,0,4.6,2.2,4.6,5.5v8h-1.9l-0.2-1.6H71c-1.1,1.1-2.7,1.8-4.3,1.9C64.5,93.1,62.9,91.8,62.9,89.4z M70.9,89.6v-3.7
	c-4.4,0.5-5.9,1.6-5.9,3.3s1,2.1,2.3,2.1C68.7,91.2,70,90.6,70.9,89.6z"/>
<path class="st18" d="M77.3,73.5h2.3v13l0,0l5.7-6.9h2.5l-4.5,5.3l5,7.8h-2.4L82,86.4l-2.4,2.9v3.5h-2.3V73.5z"/>
<path class="st18" d="M89.3,86.2c0-4.3,2.9-7,5.9-7c3,0,5.3,2.5,5.3,6.2c0,0.4,0,0.9-0.1,1.3h-8.8c0.1,2.8,1.8,4.6,4.4,4.6
	c1.2,0,2.3-0.4,3.3-1l0.8,1.5c-1.3,0.8-2.8,1.3-4.4,1.3C92.1,93.1,89.3,90.5,89.3,86.2z M98.5,85.1c0-2.6-1.2-4.1-3.2-4.1
	s-3.6,1.5-3.8,4.1H98.5z"/>
<path class="st18" d="M103.6,79.7h1.9l0.2,2.4h0.1c0.9-1.7,2.2-2.8,3.7-2.8c0.5,0,1,0.1,1.4,0.3l-0.4,2c-0.4-0.2-0.9-0.2-1.3-0.2
	c-1.1,0-2.4,0.8-3.3,3v8.4h-2.3V79.7z"/>
<path class="st18" d="M112.5,98.1l0.4-1.7l1,0.2c1.5,0,2.5-1.2,3-2.9l0.3-1l-5.3-13.1h2.3l2.7,7.2l1.3,3.7h0.1
	c0.4-1.2,0.8-2.5,1.1-3.7l2.4-7.2h2.2l-5,14.2c-1,2.6-2.3,4.6-5,4.6C113.4,98.5,112.9,98.4,112.5,98.1z"/>
<path class="st18" d="M13,85.3V77h2.3v8c0,2.5,0.7,3.5,2.5,3.5c1.8,0,2.3-0.6,3.5-2.2V77h2.3v13.2h-1.9l-0.2-2.1h-0.1
	c-1.2,1.4-2.5,2.4-4.3,2.4C15.2,90.5,13,88.7,13,85.3z"/>
<path class="st18" d="M27.9,77h1.9l0.2,1.5l0,0c1.2-1.1,2.7-1.7,4.3-1.8c3.4,0,5.2,2.6,5.2,6.7c0,4.1-2.7,7.1-5.7,7.1
	c-1.4-0.1-2.6-0.6-3.7-1.5v6.7h-2.2V77z M37.1,83.4c0-3-1-4.9-3.5-4.9c-1.3,0.1-2.6,0.8-3.5,1.8v6.9c0.9,0.8,2,1.3,3.2,1.4
	C35.5,88.6,37.1,86.6,37.1,83.4z"/>
<path class="st19" d="M32.8,39c0,0-4.7,3-4-0.4c0.2-0.6,0.4-1.2,0.8-1.7l1.8-2.7c0,0-2.6,1-3.3-0.7c-0.2-0.7,0.1-1.5,0.7-2
	c1.8-1.2,5.9-4.5,5.5-9.7c1.8,1.1,2.5,3.2,1.8,5.2c0,0,4.1-2.5,4.1,0.4l-0.3,2.3c1.2-0.7,2.5-1.2,3.9-1.4c0.6,0,1.1,0.6,1,1.2
	c0,0.1-0.1,0.3-0.1,0.4c-0.8,1.7-2.9,5.8-3.7,5.7S32.8,39,32.8,39z"/>
<polygon class="st20" points="31.9,39.9 36.6,43.4 43.9,39.4 44.2,32.8 "/>
<path class="st19" d="M34.3,21.8c0,0-0.9,6.4-5.5,9.7h3.4l3.3-6.2"/>
<line class="st21" x1="53.4" y1="29.6" x2="57.1" y2="33"/>
<line class="st21" x1="105.9" y1="30" x2="101.4" y2="32.5"/>
<line class="st22" x1="90.4" y1="34.1" x2="95.5" y2="35"/>
<line class="st23" x1="64.1" y1="28" x2="66.6" y2="23.6"/>
<line class="st23" x1="81.1" y1="38.6" x2="85" y2="41.7"/>
<line class="st22" x1="40.2" y1="31.9" x2="36" y2="30"/>
<line class="st22" x1="66.7" y1="33.8" x2="70.5" y2="37.3"/>
<line class="st23" x1="33.2" y1="28.2" x2="33.4" y2="33.1"/>
<line class="st21" x1="78.3" y1="31.3" x2="83" y2="29.4"/>
<path class="st24" d="M349.1,49.9c-0.8-0.4-1.6-0.9-2.4-1.4c-2.6-1.9-4-4.3-3.2-5.5c0.8-1.2,3.6-0.5,6.2,1.3c1,0.8,1.8,1.6,2.6,2.6"
	/>
<circle class="st25" cx="402.1" cy="71.1" r="39.4"/>
<path class="st26" d="M389.8,48.8c-10.8,29.5-46.1,17.4-46.1,17.4c11.7,0,14.3-12,14.9-16.8c0.3-2.1,0.8-4.2,1.6-6.2
	c6.3-14.5,21-11.4,21-11.4v-0.3c0.1-8.2,4.5-15.7,11.6-19.8c17.9-10.3,31.7,3.8,31.7,3.8c12.9,11.6-19.9,16.6-19.9,16.6
	c-12.2,1.5-16.3,7.7-16.3,7.7L389.8,48.8z"/>
<path class="st18" d="M393.3,66c0,0-20.7,4.2-22.9,28.5c5.5,8.1,13.9,13.6,23.5,15.4c15.4,3.1,31.2-3.2,40.4-16
	c0,0-2-19.3-22.5-23.6"/>
<path class="st27" d="M424.9,24.7c3.4,2,3.8,12.9,3.8,18.1c0,1.8-0.2,3.6-0.7,5.4c-2.5,10.7-6.4,14.8-8.6,16.4
	c-0.9,0.7-2.1,1-3.3,0.9c-10.6-0.7-21-8.3-21-8.3c-5.7-3.7-7.5-12.8-7.5-12.8l-0.8,1.5c-1.3,1.8-2.9,0.2-3.8-1.2
	c-0.8-1-1.3-2.1-1.5-3.4c-0.2-0.8-0.2-1.6,0-2.4c0.3-1.5,1.7-2.5,3.2-2.4c1,0.1,1.8,0.8,2.1,1.8c0.1,0.3,0.4,0.5,0.7,0.5
	c0.2,0,0.3-0.1,0.4-0.3l0.7-1.3c4.6-2.8,9.7-4.7,15-5.5c0,0,13.7-2.1,17.6-4.8L424.9,24.7z"/>
<path class="st28" d="M418.1,37.2c-0.1,1.9,0,3.7,0.3,5.6c0.2,0.9,0.5,1.7,0.9,2.6c0.4,0.8,0.9,1.5,1.5,2.2l1.1,1
	c0.4,0.5,0.6,1,0.6,1.6c-0.1,1.2-0.9,2.2-2,2.5c-0.5,0.2-1.1,0.2-1.6,0.1l-0.7-0.4l-0.6-0.3c-0.8-0.4-1.8-0.6-2.7-0.3
	c0.9-0.5,1.9-0.5,2.9-0.2l0.7,0.3l0.6,0.2c0.4,0.1,0.8,0.1,1.2-0.1c0.7-0.3,1.2-1,1.2-1.8c0-0.4-0.1-0.7-0.4-1l-1-0.9
	c-0.7-0.7-1.2-1.6-1.6-2.5c-0.4-0.9-0.7-1.9-0.8-2.9C417.4,40.9,417.5,39,418.1,37.2z"/>
<path class="st29" d="M348.1,52.9c-0.3-2-0.5-7.7,6.7-7.3l0.8,0.3L386.9,68c0,0-10.4,0.9-8.3,9.8l-30-24
	C348.3,53.6,348.1,53.3,348.1,52.9z"/>
<path class="st18" d="M412.8,58.3c0,0,3.3-3.5,5.7-1.9c1.1-1.1,2.8-1.3,4.2-0.7c0,0-1.9,2.3-2.9,2.3C418.8,58,417.7,65.5,412.8,58.3
	z"/>
<ellipse transform="matrix(0.788 -0.6157 0.6157 0.788 36.0932 251.9482)" class="st24" cx="383.9" cy="73.6" rx="6.9" ry="4.9"/>
<path class="st6" d="M420.2,39.3c0.2,2.5,2.2,4.4,4.7,4.5l2.9-3.3l0.8-3.2v-1.8c-0.3-1.1-1.3-1.8-2.5-1.7
	C426,33.9,422.6,35,420.2,39.3z"/>
<path class="st30" d="M414.9,62.4c0.7,0.3,1.4,0.5,2.2,0.4c0.3-0.1,0.7-0.2,1-0.3l1.1-0.4l-0.3,0.5l-0.5,0.4
	c-0.3,0.3-0.7,0.5-1.2,0.5C416.3,63.6,415.4,63.2,414.9,62.4z"/>
<path class="st6" d="M398.1,38.1c0,0-2,2.8-0.4,5.1c1.6,2.3,7.1,4,7.1,4s3.4,0.5,5.7-4.8c0,0-2.3-3.7-4.4-4.2
	C406.2,38.2,399.1,37.1,398.1,38.1z"/>
<ellipse class="st31" cx="406.2" cy="42.8" rx="3" ry="3.3"/>
<ellipse transform="matrix(0.9826 -0.1857 0.1857 0.9826 6.362144e-02 79.4035)" class="st31" cx="424" cy="39.4" rx="2.6" ry="3.1"/>
<path class="st27" d="M427.4,100.9c-2.3-1.9-9-7.5-9.3-8.5l-9.2-10.2l-6.8-7.5c0,0-4.8-2-9.1-0.4c0,0-8.1,3.6-5.4,8.6
	c0,0,3.2,3.6,4.8,3.6c1,1.3,2.5,2.1,4.2,2.3l3.9-2.7l-0.6-1.8l-0.6-1.2c0,0,1.4-1.7,2.7-0.6s11.2,17.2,18,23.9c2-1,3.9-2.2,5.7-3.5
	c0.7-0.5,1.3-1,1.9-1.6"/>
<path class="st32" d="M419.5,41.7c0-1.6,0.3-3.1,1.1-4.5c0.8-1.4,2-2.6,3.4-3.4c1.4-0.7,3.1-1.1,4.7-1c1.4,0.1,2.9-0.2,4.1-1
	c-1,1.3-2.5,2.1-4.1,2.2c-1.4,0.1-2.8,0.5-4,1.2c-1.2,0.6-2.3,1.6-3.1,2.7C420.6,39.1,419.9,40.4,419.5,41.7z"/>
<path class="st32" d="M411.3,44.1c-0.7-1.6-1.8-3-3.2-4.2c-1.3-1-2.9-1.7-4.6-1.9c-1.7-0.2-3.4,0-5,0.6c-0.9,0.4-1.9,0.6-2.9,0.6
	c-1.1-0.1-2.1-0.6-2.9-1.3l1.2-0.7c0.5,1.3,1.1,2.6,2,3.7c0.9,1.1,1.9,2.1,3,3c1.2,0.8,2.5,1.6,3.8,2.2l2.1,0.8l2.2,0.7l-2.3-0.3
	l-2.2-0.6l-2.1-0.8c-0.7-0.3-1.4-0.7-2.1-1.1c-1.3-0.8-2.5-1.9-3.5-3.1c-1-1.2-1.8-2.6-2.3-4.2l-0.8-2.7l2,2
	c1.1,1.1,2.7,1.1,4.3,0.4c1.8-0.6,3.8-0.7,5.7-0.4c1.9,0.3,3.6,1.2,5,2.5C410,40.7,410.9,42.3,411.3,44.1z"/>
<path class="st33" d="M428.2,34.4c0.4,1,0.5,2.1,0.5,3.2c-0.1,1.1-0.3,2.2-0.8,3.2c-0.2,0.5-0.5,1-0.8,1.5l-1.2,1.2
	c-0.9,0.7-1.8,1.1-2.9,1.4c0.9-0.6,1.7-1.2,2.4-2c0.7-0.7,1.2-1.6,1.6-2.5C427.9,38.5,428.3,36.4,428.2,34.4z"/>
<path class="st34" d="M398.7,84c0,0,1.3-3.5,3.5-1.2c0,0,12.6,19.1,17.4,23.6"/>
<path class="st27" d="M384.4,106.1l9.4-16.4l2.8-14.5c0.1-1-0.3-1.9-1.1-2.6c-3.9-4-7.5-2.5-9-1.2l-1.9,1.4
	c-1.3,0.9-3.6,3.7-1.7,12.1c0,0,0.2,3.8-5.9,17c2.1,1.9,4.5,3.4,7.1,4.6"/>
<path class="st33" d="M428,34c0.8-0.8,1.3-1.8,1.4-2.9c-0.4,1-2.3,1.9-2.3,1.9L428,34z"/>
<path class="st34" d="M377.1,101.9c6.1-13.3,6.4-16.8,6.4-16.8c-1.9-8.6-0.4-11.4,1-12.2l1.9-1.5c1.5-1.3,5.2-2.8,9.1,1.2"/>
<path class="st33" d="M425.7,34.4c0.6-1,0.8-2.1,0.7-3.3c-0.4,1-1,1.8-1.8,2.5L425.7,34.4z"/>
<path class="st33" d="M397.8,38.8c-1.1-0.8-1.9-1.9-2.1-3.3c0.6,1.1,3.1,1.9,3.1,1.9L397.8,38.8z"/>
<path class="st33" d="M400.4,38c-0.9-0.8-1.6-1.9-1.9-3.1c0.7,0.8,1.6,1.5,2.6,1.9L400.4,38z"/>
<path class="st34" d="M392.2,86.5c-6.2-2.5-6-5.8-4.2-8.3c2.1-2.8,5.3-4.5,8.8-4.6c1.3,0,2.5,0.1,3.8,0.5c0.8,0.3,1.5,0.9,2.1,1.5
	c3.5,4,20.3,23.2,24.5,25.7"/>
<path class="st27" d="M397.2,54.4c0.8,8.6-3.1,11.5-3.1,11.5c-0.2,0.1-0.3,0.3-0.2,0.5c0.2,2.3,1.9,13.2,11.9,12.4
	c0,0,5.5-0.3,6.2-8.1c0,0-3-2.1-1.3-8.6L397.2,54.4z"/>
<path class="st34" d="M391.2,83.9c0,0,1.2,4.1,4.1,4.9c0.5,0.1,1,0,1.5-0.2c1.1-0.5,2.2-1.2,3.1-2c0.6-0.6,0.6-1.5,0.1-2.1
	c-0.3-0.3-0.7-0.5-1.2-0.5c-1.5-0.2-2.8,0.8-3,2.3c0,0.1,0,0.3,0,0.4"/>
<line class="st34" x1="394.4" y1="88.5" x2="384.2" y2="106.3"/>
<path class="st35" d="M410.7,57.7c0.9,0.4,1.8,0.6,2.8,0.7"/>
<path class="st36" d="M397.2,58.5c0,0,5,8.6,13.3,9.4c0,0-0.6-2.9,0-3.5C411.1,63.9,400.1,61.4,397.2,58.5z"/>
<circle class="st37" cx="406.5" cy="42.8" r="1.2"/>
<circle class="st6" cx="407.3" cy="41.6" r="0.8"/>
<circle class="st37" cx="423.9" cy="39.6" r="1.2"/>
<circle class="st6" cx="424.6" cy="38.4" r="0.8"/>
</svg>
