<svg xmlns="http://www.w3.org/2000/svg" id="Layer_1" viewBox="0 0 453.6 115.2" width="453.6" height="115.2"><style>.st0{fill:#aaa}.st1{fill:#3d3d3d}.st2{fill:#b6b6b6}.st3{fill:#696969}.st4{fill:#e1e1e1}.st5{fill:silver}.st6{fill:#fff}.st7{fill:#ccc}.st8{fill:#cbcbcb}.st9{fill:#555}.st10{fill:#545454}.st11{fill:none;stroke:silver}.st11,.st12,.st13{stroke-linecap:round;stroke-linejoin:round}.st12{stroke-width:.75;fill:none;stroke:#696969}.st13{fill:#cbcbcb;stroke:#cbcbcb}.st14{fill:#393939}.st15{stroke:#cbcbcb}.st15,.st16,.st17{fill:none;stroke-linecap:round;stroke-linejoin:round}.st16{stroke:#b6b6b6}.st17{stroke:#696969}.st18{fill:#ed257a}.st19{fill:#49c4d5;stroke:#49c4d5;stroke-linecap:round;stroke-linejoin:round}.st20{fill:#693990}.st21{stroke:#4dc4d3}.st21,.st22,.st23{fill:none;stroke-linecap:round;stroke-linejoin:round}.st22{stroke:#f6b24f}.st23{stroke:#ed257a}.st24{fill:#cca285}.st25{fill:#683e92}.st26{fill:#f6b24f}.st27{fill:#fcdac6}.st28{fill:#f2b692}.st29{fill:#e0b899}.st30{fill:#f1b692}.st31{fill:#49c4d5}.st32{fill:#9b6c4d}.st33{fill:#9b6c4c}.st34,.st35{fill:none;stroke:#f2b692;stroke-linecap:round;stroke-linejoin:round}.st35{stroke:#ed257a;stroke-width:.75}.st36{fill:#f3b692}.st37{fill:#211e1f}</style><path id="ASSETS" d="M133.5 49.9c-.8-.4-1.6-.8-2.4-1.3-2.6-1.9-4-4.4-3.2-5.6.8-1.2 3.6-.5 6.2 1.4 1 .7 1.9 1.6 2.7 2.6" class="st0"/><circle cx="186.7" cy="71.4" r="39.5" class="st1"/><path d="M174.3 49c-10.8 29.5-46.2 17.4-46.2 17.4 11.7 0 14.4-12 15-16.8.2-2.2.7-4.3 1.6-6.3 6.2-14.6 21-11.4 21-11.4v-.3c.2-8.2 4.6-15.7 11.6-19.9 18-10.3 31.9 3.8 31.9 3.8 12.9 11.7-20 16.7-20 16.7-12.2 1.5-16.3 7.7-16.3 7.7l1.4 9.1z" class="st2"/><path d="M178 66.1s-20.8 4.3-23.1 28.6c5.5 8.1 14.1 13.7 23.7 15.5 0 0 23.9 6.1 40.5-16.1 0 0-2-19.3-22.5-23.7" class="st3"/><path d="M209.7 24.8c3.4 2 3.8 12.9 3.8 18.1-.1 1.8-.3 3.7-.7 5.5-2.5 10.7-6.5 14.9-8.7 16.4-.9.7-2.1 1-3.3.9-10.6-.6-21-8.3-21-8.3-5.7-3.7-7.6-12.8-7.6-12.8l-.8 1.4c-1.2 1.9-2.8.3-3.8-1.1-.8-1-1.3-2.2-1.5-3.5-.2-.8-.2-1.6 0-2.4.3-1.5 1.7-2.5 3.2-2.4 1 .1 1.9.8 2.1 1.8 0 0 .4.9 1.1.3l.8-1.3c4.6-2.9 9.7-4.8 15-5.6 0 0 13.7-2.1 17.7-4.8l3.7-2.2z" class="st4"/><path d="M202.7 37.2c-.1 1.9 0 3.7.4 5.6.2.9.5 1.8.9 2.7.3.8.9 1.5 1.5 2.1l1 1.1c.4.4.7 1 .7 1.6-.2 1.1-.9 2.1-2 2.5-.5.2-1.1.2-1.6 0l-.8-.3-.5-.4c-.8-.4-1.8-.5-2.7-.2.8-.5 1.9-.6 2.8-.2l.7.3.6.2c.4.1.8 0 1.2-.1.7-.3 1.2-1 1.3-1.8 0-.4-.1-.7-.4-1-.2-.3-.7-.6-1-1-.7-.7-1.3-1.5-1.7-2.5-.4-.9-.6-1.8-.8-2.8-.2-1.9 0-3.9.4-5.8zM132.5 53c-.3-1.9-.5-7.6 6.7-7.2l.8.2 31.5 22.2s-10.4.9-8.3 9.9L133 54c-.3-.2-.5-.6-.5-1z" class="st5"/><path d="M197.5 58.5s3.4-3.5 5.7-1.9c1.1-1.1 2.7-1.4 4.2-.8 0 0-1.9 2.4-2.8 2.4-1 0-2.2 7.5-7.1.3z" class="st3"/><ellipse cx="168.5" cy="73.8" class="st0" rx="6.9" ry="4.9" transform="rotate(-38.001 168.453 73.789)"/><path d="M204.8 39.4c.2 2.5 2.3 4.4 4.8 4.5l2.8-3.2.9-3.3v-1.8c-.3-1.1-1.4-1.8-2.6-1.7 0 .1-3.3 1.2-5.9 5.5z" class="st6"/><path d="M199.7 62.7c.7.2 1.4.3 2.1.3.4 0 .8-.1 1.1-.3l1-.4-.3.5c-.1.2-.3.3-.5.4-.3.3-.7.5-1.2.5-.9.1-1.8-.3-2.2-1z" class="st7"/><path d="M182.7 38.1s-1.9 2.8-.4 5.1 7.2 4.1 7.2 4.1 3.4.5 5.8-4.8c0 0-2.4-3.8-4.5-4.2 0 0-7-1.2-8.1-.2z" class="st6"/><ellipse cx="190.8" cy="43" class="st8" rx="3" ry="3.3"/><ellipse cx="208.8" cy="39.5" class="st8" rx="2.6" ry="3.1" transform="rotate(-10.704 208.766 39.497)"/><path d="M212.2 101.3c-2.3-1.9-9.1-7.5-9.4-8.6l-9.2-10.2-6.8-7.5s-4.8-2-9.1-.4c0 0-8.2 3.5-5.5 8.5 0 0 3.3 3.7 4.9 3.7 1 1.3 2.5 2.1 4.2 2.3l3.9-2.7-.6-1.8-.6-1.2s1.4-1.7 2.7-.6 11.2 17.3 18 23.9c2-1 3.9-2.2 5.8-3.5.7-.5 1.3-1 1.9-1.6" class="st4"/><path d="M204.1 41.9c0-1.6.4-3.2 1.2-4.6.7-1.4 1.9-2.6 3.4-3.3 1.4-.8 3-1.2 4.6-1.1 1.5.1 3-.3 4.2-1.1-1 1.3-2.4 2.2-4.1 2.3-1.4.1-2.8.5-4 1.2-1.2.6-2.3 1.6-3.1 2.7-.9 1.2-1.6 2.5-2.2 3.9zm-8 2.3c-.8-1.6-1.9-3-3.3-4.2-1.3-1-2.9-1.7-4.6-1.9-1.7-.2-3.4.1-5 .6-1 .4-2 .6-3 .6-1.1-.1-2.1-.5-2.9-1.3l1.3-.7c.4 1.3 1 2.6 1.9 3.7.9 1.1 2 2.1 3.1 3 1.2.9 2.4 1.6 3.8 2.2l2.1.8 2.2.7-2.3-.3-2.2-.5c-.7-.3-1.5-.6-2.2-.9l-2-1.1c-1.3-.8-2.5-1.8-3.5-3.1-1.1-1.2-1.9-2.6-2.4-4.2l-.8-2.7 2.1 2.1c1 1 2.7 1 4.3.3 1.8-.5 3.8-.7 5.7-.4 1.9.3 3.6 1.2 5 2.6 1.3 1.3 2.2 2.9 2.7 4.7z" class="st9"/><path d="M213 34.5c.4 1 .5 2.1.5 3.2-.1 1.1-.3 2.2-.8 3.2-.2.5-.5 1-.8 1.5-.3.4-.7.8-1.2 1.2-.8.7-1.8 1.2-2.9 1.4.9-.6 1.7-1.2 2.4-2 .6-.7 1.2-1.6 1.6-2.5.7-2 1.1-4 1.2-6z" class="st10"/><path d="M183.4 84.3s1.3-3.5 3.5-1.3c0 0 12.7 19.2 17.5 23.8" class="st11"/><path d="M169 106.4l9.4-16.5 2.9-14.6c.1-1-.3-1.9-1.1-2.6-4-3.9-7.6-2.5-9.1-1.2l-1.9 1.5c-1.3.8-3.6 3.6-1.7 12.1 0 0 .2 3.8-5.9 17 2.1 1.9 4.5 3.5 7.1 4.6" class="st4"/><path d="M212.8 34.1c.8-.8 1.3-1.8 1.4-2.9-.4 1-2.3 1.9-2.3 1.9l.9 1z" class="st10"/><path d="M161.6 102.2c6.1-13.3 6.4-16.8 6.4-16.8-1.9-8.6-.4-11.4 1-12.3.7-.4 1.3-.9 1.9-1.5 1.5-1.3 5.3-2.7 9.1 1.2" class="st11"/><path d="M210.5 34.5c.6-1 .8-2.1.7-3.3-.4 1-1 1.8-1.8 2.5l1.1.8zm-28 4.4c-1.1-.8-1.9-1.9-2.2-3.3.7 1.2 3.2 1.9 3.2 1.9l-1 1.4zm2.6-.9c-.9-.8-1.6-1.9-2-3.1.7.8 1.6 1.5 2.6 1.9l-.6 1.2z" class="st10"/><path d="M176.8 86.8c-6.1-2.5-5.9-5.9-4.2-8.3 2.1-2.9 5.4-4.6 8.9-4.7 1.2 0 2.5.2 3.7.6.9.3 1.6.8 2.2 1.5 3.5 4 20.4 23.3 24.6 25.7" class="st11"/><path d="M181.9 54.6c.8 8.6-3.1 11.5-3.1 11.5-.2.1-.3.3-.3.5.3 2.4 2 13.3 12.1 12.5 0 0 5.4-.4 6.2-8.2 0 0-3.1-2.1-1.3-8.6l-13.6-7.7z" class="st4"/><path d="M175.8 84.2s1.2 4.1 4 4.9c.5.1 1.1 0 1.6-.2 1.1-.5 2.1-1.2 3-2 .6-.6.6-1.5.1-2.1-.3-.3-.7-.5-1.1-.5-1.5-.2-2.9.8-3.1 2.4v.3m-1.2 1.8l-10.2 17.8" class="st11"/><path d="M195.5 57.9c.8.4 1.8.6 2.7.7" class="st12"/><path d="M181.9 58.7s5 8.6 13.4 9.4c0 0-.7-2.9 0-3.5s-10.5-3-13.4-5.9z" class="st5"/><circle cx="191.2" cy="43" r="1.2"/><circle cx="192" cy="41.7" r=".8" class="st6"/><circle cx="208.6" cy="39.7" r="1.2"/><circle cx="209.4" cy="38.5" r=".8" class="st6"/><path d="M250.4 71.5c-2.7 3.2-6.7 5-10.9 4.9-6.2.2-1.3-24.8-2.3-28.4 0 0 6.7-1.5 6.2 5-.1 1-.1 2-.2 3.2 1.2-2.5 2.9-4.7 5.3-4.5 2.4.2 2.1 6.4-1.5 10.7l1.8-.2c5.2 0 4.9 5.3 1.6 9.3zm0-5.3c-.2-3-5.3-1.7-7.7.5-.1 4 .1 7.1.7 7.5.5.5 7.1-2.9 7-8zm-7.6-2.6v.3c4-2.9 6.6-10.6 4.4-10.8-2.3-.2-4.1 8.9-4.4 10.5zm32.3-.5s-3.4 11.7-10.5 11.7c-2.8 0-3.1-3-2.9-6.4-1.3 1.5-3.2 2.2-5.2 1.9-3.6-.6-2.8-5.4.2-7.2 1.7-1 3.7-1.4 5.7-1 .1-.8.1-1.5-.1-2.3 0 0 6-1.4 5.5 4.4-.5 5.8-.1 8.9 2.1 6.5 1.9-2.2 3.3-4.8 4.2-7.5l1-.1zM262 65.8c0-.7.1-1.3.2-2-1 0-4.3.2-4.3 2.6s2.5 1.1 4.1-.6z" class="st3"/><path d="M296.8 64.1s-3.9 14.1-11.4 14.1c-1.5-.1-2.3-2.3-2.7-5.5-1.8 2.1-4 3.8-6.6 3.6-2.6-.2-3.1-9.2-2.7-17.2h-3.9v-1h2.1l1.4-.1h.6v-.4c0-.5 0-1.1.1-1.6.2-3.9.4-7 .1-7.9s6-1.3 5.6 4.4c-.1.9-.2 2-.3 3.2v1.8h1.6l2.1-.2h.2c.2-2.4.3-4.8.1-7.1 0 0 6-1.4 5.5 4.4 0 .7-.1 1.5-.1 2.5h3.5v.9h-1l-1.1.2-1.4.2h-.2v.7c-.2 2-.2 4.1-.3 6.2.1 6.1 0 11 2.7 8.7 2.7-2.3 5.3-10 5.3-10l.8.1zm-13.9-5.5h-4c-.1 1.3-.1 2.7-.1 4.1 0 6.2-.4 11.7 2.4 9.5.5-.5 1-1 1.4-1.6-.2-3.5 0-7.8.2-11.7 0-.1 0-.2.1-.3z" class="st3"/><path d="M308.5 64.3c-6 10.9-17.6 14.1-15.9 3.7 1.1-6.3 6.8-6.7 8.5-6.1s2.7 2.2 1.1 4.7-3.3 1.9-4.5 1.9c-1 8.3 8.7-2.3 10-4.8l.8.6zm-10.6 3.3c2.3.1 3.2-1 3.5-1.7s.6-2-.8-2.1c-1.4-.1-2-.1-2.7 3.8z" class="st3"/><path d="M322.3 64.7c-.2.9-3.4 15-10.2 14.7-4.6-.2-2.1-9.9-1.6-15-7.7-.1-4.8-3.1-5.6-5.5 0 0 5.1-2.2 4.8 2.3-.1.9 1.4.9 1.5.9s5.2.1 4.7 4.8-1.7 11.5 1 8.5 4.4-11.2 4.4-11.2 1.3-.3 1 .5zm-52 15.5h4.9c3.3 0 5.6 1.1 5.6 4 .1 1.6-.9 3-2.4 3.5 2 .3 3.4 2 3.4 4 0 3.2-2.6 4.8-6.3 4.8h-5.2V80.2zm4.4 6.9c2.8 0 4-1 4-2.6s-1.3-2.7-3.9-2.7h-2.5v5.3h2.4zm.4 7.7c2.9 0 4.5-1 4.5-3.2s-1.6-2.9-4.5-2.9h-2.8v6.1h2.8zm8.9-1.5c0-2.6 2.2-4 7.3-4.5 0-1.6-.5-3.1-2.5-3.1-1.3.1-2.5.5-3.6 1.3l-.8-1.4c1.4-1 3.1-1.5 4.8-1.6 2.9 0 4.2 2 4.2 5v7.4h-1.7l-.2-1.5h-.1c-1.1 1.1-2.5 1.7-4 1.8-1.8.1-3.4-1.3-3.5-3.1.1 0 .1-.1.1-.3zm7.3.2v-3.4c-4 .5-5.4 1.5-5.4 3.1s.9 1.9 2.1 1.9c1.2 0 2.1-.6 3.3-1.6zm5.9-14.7h2v11.9h.1l5.2-6.4h2.3l-4.1 4.9 4.6 7.2H305l-3.6-5.9-2.3 2.7v3.2h-2V78.8zm10.9 11.7c0-3.9 2.7-6.4 5.5-6.4s4.9 2.2 4.9 5.7c0 .5-.1.9-.1 1.2h-8.1c.1 2.6 1.7 4.2 4 4.2 1.1 0 2.1-.3 3-.9l.8 1.3c-1.2.8-2.6 1.3-4 1.3-3.4-.1-6-2.5-6-6.4zm8.4-1c0-2.4-1.1-3.7-3-3.7s-3.2 1.3-3.4 3.7h6.4zm4.8-5.1h1.7l.2 2.2h.1c.6-1.4 1.9-2.3 3.4-2.5.4 0 .9.1 1.3.3l-.4 1.8c-.3-.2-.7-.2-1.1-.2-1.1 0-2.3.7-3.1 2.8v7.7h-2.1V84.4zm8 17.1l.4-1.7.9.2c1.4 0 2.3-1.1 2.8-2.6l.3-.9-4.9-12.1h2.1l2.5 6.8c.4 1 .8 2.3 1.2 3.4h.1l1-3.4 2.2-6.8h2l-4.6 13.1c-.9 2.4-2.1 4.2-4.6 4.2l-1.4-.2zm-91.1-11.8V82h2v7.3c0 2.3.7 3.3 2.3 3.3s2.1-.7 3.3-2.1V82h2v12.1H246v-2h-.1c-.9 1.4-2.4 2.2-4 2.3-2.6 0-3.7-1.7-3.7-4.7zm13.6-7.7h1.7l.2 1.4h.1c1-1 2.4-1.6 3.8-1.7 3.2 0 4.9 2.4 4.9 6.2s-2.5 6.6-5.3 6.6c-1.3-.1-2.4-.6-3.4-1.5v6.3h-2.1l.1-17.3zm8.4 5.9c0-2.7-.9-4.5-3.2-4.5-1.2.2-2.4.8-3.2 1.7v6.4c.8.7 1.8 1.1 2.9 1.2 2.1-.1 3.5-1.8 3.5-4.8z" class="st3"/><path d="M258.4 51.3s-4.3 2.8-3.6-.3c.1-.6.4-1.1.7-1.6l1.7-2.4s-2.5.8-3.1-.7c-.2-.7.1-1.4.7-1.8 1.6-1.1 5.4-4.2 5-8.9 1.6.9 2.3 2.9 1.6 4.7 0 0 3.8-2.3 3.8.4l-.3 2.1c1.1-.6 2.3-1.1 3.6-1.3.6.1 1 .6 1 1.2 0 .1 0 .2-.1.3-.8 1.6-2.7 5.3-3.4 5.2-.7-.1-7.6 3.1-7.6 3.1z" class="st13"/><path d="M257.6 52.2l4.3 3.2 6.8-3.7.3-6z" class="st14"/><path d="M259.8 35.6s-.8 5.8-5 8.9h3.1l3-5.7" class="st13"/><path d="M275.3 36.2l3.3 3.3m44.8-.4l-4.2 2" class="st15"/><path d="M309.1 42l4.6 1.1" class="st16"/><path d="M285.3 35.3l2.4-3.9m12.6 14.3l3.5 3.2" class="st17"/><path d="M265.5 44.9l-3.9-1.7m25.7-2.5l3.3 3.3" class="st16"/><path d="M258.9 43l.1 4.5" class="st17"/><path d="M298.1 39l4.4-1.6" class="st15"/><path d="M26.3 65.6c-2.9 3.6-7.2 5.6-11.8 5.4C7.7 71 13 43.7 12 39.8c0 0 7.2-1.6 6.7 5.5 0 1-.1 2.2-.2 3.5 1.3-2.7 3.2-5.2 5.8-4.9s2.3 6.9-1.7 11.7c.6-.2 1.3-.3 2-.3 5.6 0 5.3 5.9 1.7 10.3zm0-5.9c-.1-3.2-5.7-1.7-8.4.6 0 4.3.2 7.8.9 8.2.6.4 7.7-3.2 7.5-8.8zM18 57v.2c4.4-3.1 7.1-11.5 4.8-11.7-2.4-.2-4.5 9.6-4.8 11.5zm35.4-.7S49.6 69 41.9 69c-3.1 0-3.4-3.2-3.2-6.9-1.4 1.6-3.5 2.4-5.7 2.1-3.9-.7-3-5.9.3-7.9 1.9-1.1 4-1.5 6.2-1.1 0-.9 0-1.7-.1-2.6 0 0 6.5-1.4 6 4.9s-.2 9.7 2.3 7.1c2.1-2.4 3.6-5.2 4.5-8.2h1.2zm-14.4 3l.3-2.1c-1.2 0-4.7.2-4.8 2.8-.1 2.6 2.8 1.2 4.5-.7z" class="st18"/><path d="M76.9 57.5s-4.2 15.3-12.4 15.3c-1.7 0-2.6-2.4-3-5.9-1.9 2.3-4.4 4.1-7.1 3.9-2.8-.2-3.4-10-3-18.7h-4.2V51h.3l.8-.2h1.2l1.5-.2h.6v-.4c0-.2.1-1.2.2-1.8.2-4.2.4-7.5.1-8.6s6.6-1.4 6.1 4.8c-.1 1-.2 2.1-.3 3.4-.1 1.3-.1 1.5-.1 1.8v.3h1.9l2.3-.2h.2c.2-3.8.4-6.9.1-7.8s6.5-1.4 6 4.9c0 .7-.1 1.7-.1 2.6h3.9v1.3h-1.1l-1.3.1-1.6.2h-.2v.8c-.1 2.1-.2 4.4-.3 6.7.1 6.7 0 12 3 9.5s5.7-10.8 5.7-10.8l.8.1zm-15.2-6.1l-2.2.2h-2.1c-.1 1.4-.1 3-.1 4.5 0 6.7-.4 12.8 2.6 10.3.6-.5 1.1-1.1 1.5-1.7-.1-4.3 0-8.5.3-12.8v-.5z" class="st18"/><path d="M89.6 57.7c-6.5 11.9-19.2 15.4-17.3 4 .5-4.2 4.3-7.2 8.5-6.7.3 0 .6.1.8.1 1.5.5 2.9 2.4 1.2 5.1-1.7 2.7-3.6 2.1-4.9 2.1-1.1 9.1 9.5-2.5 10.8-5.2l.9.6zm-11.5 3.6c2.5.2 3.5-1.1 3.8-1.8.3-.7.6-2.3-.9-2.3s-2.2-.1-2.9 4.1z" class="st18"/><path d="M104.8 58.2c-.4.9-3.8 16.3-11.2 16-5.1-.2-2.3-10.8-1.7-16.3-8.4-.2-5.4-3.5-6.2-6.1 0 0 5.6-2.4 5.2 2.5-.1 1 1.6 1 1.7 1s5.7.1 5.1 5.2c-.6 5.1-1.9 12.6 1.1 9.3 3-3.3 4.8-12.2 4.8-12.2s1.5-.4 1.2.6zM48 75h5.3c3.6 0 6.1 1.3 6.1 4.4.1 1.7-1 3.3-2.6 3.9 2.2.2 3.8 2.1 3.7 4.3 0 3.5-2.8 5.2-6.8 5.2H48V75zm4.9 7.5c3.1 0 4.3-1.1 4.3-2.9 0-1.8-1.4-2.9-4.2-2.9h-2.7v5.8h2.6zm.5 8.5c3 0 4.8-1.1 4.8-3.5s-1.7-3.2-4.8-3.2h-3.1V91h3.1zm9.5-1.6c0-2.9 2.5-4.4 8-5 0-1.7-.6-3.3-2.7-3.3-1.4.1-2.8.5-4 1.4l-.8-1.5c1.5-1.1 3.3-1.7 5.2-1.8 3.2 0 4.6 2.2 4.6 5.5v8h-1.9l-.2-1.6H71c-1.1 1.1-2.7 1.8-4.3 1.9-2.2.1-3.8-1.2-3.8-3.6zm8 .2v-3.7c-4.4.5-5.9 1.6-5.9 3.3s1 2.1 2.3 2.1c1.4-.1 2.7-.7 3.6-1.7zm6.4-16.1h2.3v13l5.7-6.9h2.5l-4.5 5.3 5 7.8h-2.4L82 86.4l-2.4 2.9v3.5h-2.3V73.5zm12 12.7c0-4.3 2.9-7 5.9-7 3 0 5.3 2.5 5.3 6.2 0 .4 0 .9-.1 1.3h-8.8c.1 2.8 1.8 4.6 4.4 4.6 1.2 0 2.3-.4 3.3-1l.8 1.5c-1.3.8-2.8 1.3-4.4 1.3-3.6 0-6.4-2.6-6.4-6.9zm9.2-1.1c0-2.6-1.2-4.1-3.2-4.1s-3.6 1.5-3.8 4.1h7zm5.1-5.4h1.9l.2 2.4h.1c.9-1.7 2.2-2.8 3.7-2.8.5 0 1 .1 1.4.3l-.4 2c-.4-.2-.9-.2-1.3-.2-1.1 0-2.4.8-3.3 3v8.4h-2.3V79.7zm8.9 18.4l.4-1.7 1 .2c1.5 0 2.5-1.2 3-2.9l.3-1-5.3-13.1h2.3l2.7 7.2 1.3 3.7h.1c.4-1.2.8-2.5 1.1-3.7l2.4-7.2h2.2l-5 14.2c-1 2.6-2.3 4.6-5 4.6-.6.1-1.1 0-1.5-.3zM13 85.3V77h2.3v8c0 2.5.7 3.5 2.5 3.5s2.3-.6 3.5-2.2V77h2.3v13.2h-1.9l-.2-2.1h-.1c-1.2 1.4-2.5 2.4-4.3 2.4-1.9 0-4.1-1.8-4.1-5.2zM27.9 77h1.9l.2 1.5c1.2-1.1 2.7-1.7 4.3-1.8 3.4 0 5.2 2.6 5.2 6.7s-2.7 7.1-5.7 7.1c-1.4-.1-2.6-.6-3.7-1.5v6.7h-2.2V77zm9.2 6.4c0-3-1-4.9-3.5-4.9-1.3.1-2.6.8-3.5 1.8v6.9c.9.8 2 1.3 3.2 1.4 2.2 0 3.8-2 3.8-5.2z" class="st18"/><path d="M32.8 39s-4.7 3-4-.4c.2-.6.4-1.2.8-1.7l1.8-2.7s-2.6 1-3.3-.7c-.2-.7.1-1.5.7-2 1.8-1.2 5.9-4.5 5.5-9.7 1.8 1.1 2.5 3.2 1.8 5.2 0 0 4.1-2.5 4.1.4l-.3 2.3c1.2-.7 2.5-1.2 3.9-1.4.6 0 1.1.6 1 1.2 0 .1-.1.3-.1.4-.8 1.7-2.9 5.8-3.7 5.7S32.8 39 32.8 39z" class="st19"/><path d="M31.9 39.9l4.7 3.5 7.3-4 .3-6.6z" class="st20"/><path d="M34.3 21.8s-.9 6.4-5.5 9.7h3.4l3.3-6.2" class="st19"/><path d="M53.4 29.6l3.7 3.4m48.8-3l-4.5 2.5" class="st21"/><path d="M90.4 34.1l5.1.9" class="st22"/><path d="M64.1 28l2.5-4.4m14.5 15l3.9 3.1" class="st23"/><path d="M40.2 31.9L36 30m30.7 3.8l3.8 3.5" class="st22"/><path d="M33.2 28.2l.2 4.9" class="st23"/><path d="M78.3 31.3l4.7-1.9" class="st21"/><path d="M349.1 49.9c-.8-.4-1.6-.9-2.4-1.4-2.6-1.9-4-4.3-3.2-5.5.8-1.2 3.6-.5 6.2 1.3 1 .8 1.8 1.6 2.6 2.6" class="st24"/><circle cx="402.1" cy="71.1" r="39.4" class="st25"/><path d="M389.8 48.8c-10.8 29.5-46.1 17.4-46.1 17.4 11.7 0 14.3-12 14.9-16.8.3-2.1.8-4.2 1.6-6.2 6.3-14.5 21-11.4 21-11.4v-.3c.1-8.2 4.5-15.7 11.6-19.8 17.9-10.3 31.7 3.8 31.7 3.8 12.9 11.6-19.9 16.6-19.9 16.6-12.2 1.5-16.3 7.7-16.3 7.7l1.5 9z" class="st26"/><path d="M393.3 66s-20.7 4.2-22.9 28.5c5.5 8.1 13.9 13.6 23.5 15.4 15.4 3.1 31.2-3.2 40.4-16 0 0-2-19.3-22.5-23.6" class="st18"/><path d="M424.9 24.7c3.4 2 3.8 12.9 3.8 18.1 0 1.8-.2 3.6-.7 5.4-2.5 10.7-6.4 14.8-8.6 16.4-.9.7-2.1 1-3.3.9-10.6-.7-21-8.3-21-8.3-5.7-3.7-7.5-12.8-7.5-12.8l-.8 1.5c-1.3 1.8-2.9.2-3.8-1.2-.8-1-1.3-2.1-1.5-3.4-.2-.8-.2-1.6 0-2.4.3-1.5 1.7-2.5 3.2-2.4 1 .1 1.8.8 2.1 1.8.1.3.4.5.7.5.2 0 .3-.1.4-.3l.7-1.3c4.6-2.8 9.7-4.7 15-5.5 0 0 13.7-2.1 17.6-4.8l3.7-2.2z" class="st27"/><path d="M418.1 37.2c-.1 1.9 0 3.7.3 5.6.2.9.5 1.7.9 2.6.4.8.9 1.5 1.5 2.2l1.1 1c.4.5.6 1 .6 1.6-.1 1.2-.9 2.2-2 2.5-.5.2-1.1.2-1.6.1l-.7-.4-.6-.3c-.8-.4-1.8-.6-2.7-.3.9-.5 1.9-.5 2.9-.2l.7.3.6.2c.4.1.8.1 1.2-.1.7-.3 1.2-1 1.2-1.8 0-.4-.1-.7-.4-1l-1-.9c-.7-.7-1.2-1.6-1.6-2.5-.4-.9-.7-1.9-.8-2.9-.3-2-.2-3.9.4-5.7z" class="st28"/><path d="M348.1 52.9c-.3-2-.5-7.7 6.7-7.3l.8.3L386.9 68s-10.4.9-8.3 9.8l-30-24c-.3-.2-.5-.5-.5-.9z" class="st29"/><path d="M412.8 58.3s3.3-3.5 5.7-1.9c1.1-1.1 2.8-1.3 4.2-.7 0 0-1.9 2.3-2.9 2.3s-2.1 7.5-7 .3z" class="st18"/><ellipse cx="383.9" cy="73.6" class="st24" rx="6.9" ry="4.9" transform="rotate(-38.001 383.879 73.557)"/><path d="M420.2 39.3c.2 2.5 2.2 4.4 4.7 4.5l2.9-3.3.8-3.2v-1.8c-.3-1.1-1.3-1.8-2.5-1.7-.1.1-3.5 1.2-5.9 5.5z" class="st6"/><path d="M414.9 62.4c.7.3 1.4.5 2.2.4.3-.1.7-.2 1-.3l1.1-.4-.3.5-.5.4c-.3.3-.7.5-1.2.5-.9.1-1.8-.3-2.3-1.1z" class="st30"/><path d="M398.1 38.1s-2 2.8-.4 5.1 7.1 4 7.1 4 3.4.5 5.7-4.8c0 0-2.3-3.7-4.4-4.2.1 0-7-1.1-8-.1z" class="st6"/><ellipse cx="406.2" cy="42.8" class="st31" rx="3" ry="3.3"/><ellipse cx="424" cy="39.4" class="st31" rx="2.6" ry="3.1" transform="rotate(-10.704 423.9 39.377)"/><path d="M427.4 100.9c-2.3-1.9-9-7.5-9.3-8.5l-9.2-10.2-6.8-7.5s-4.8-2-9.1-.4c0 0-8.1 3.6-5.4 8.6 0 0 3.2 3.6 4.8 3.6 1 1.3 2.5 2.1 4.2 2.3l3.9-2.7-.6-1.8-.6-1.2s1.4-1.7 2.7-.6 11.2 17.2 18 23.9c2-1 3.9-2.2 5.7-3.5.7-.5 1.3-1 1.9-1.6" class="st27"/><path d="M419.5 41.7c0-1.6.3-3.1 1.1-4.5s2-2.6 3.4-3.4c1.4-.7 3.1-1.1 4.7-1 1.4.1 2.9-.2 4.1-1-1 1.3-2.5 2.1-4.1 2.2-1.4.1-2.8.5-4 1.2-1.2.6-2.3 1.6-3.1 2.7-1 1.2-1.7 2.5-2.1 3.8zm-8.2 2.4c-.7-1.6-1.8-3-3.2-4.2-1.3-1-2.9-1.7-4.6-1.9-1.7-.2-3.4 0-5 .6-.9.4-1.9.6-2.9.6-1.1-.1-2.1-.6-2.9-1.3l1.2-.7c.5 1.3 1.1 2.6 2 3.7.9 1.1 1.9 2.1 3 3 1.2.8 2.5 1.6 3.8 2.2l2.1.8 2.2.7-2.3-.3-2.2-.6-2.1-.8c-.7-.3-1.4-.7-2.1-1.1-1.3-.8-2.5-1.9-3.5-3.1-1-1.2-1.8-2.6-2.3-4.2l-.8-2.7 2 2c1.1 1.1 2.7 1.1 4.3.4 1.8-.6 3.8-.7 5.7-.4 1.9.3 3.6 1.2 5 2.5 1.3 1.4 2.2 3 2.6 4.8z" class="st32"/><path d="M428.2 34.4c.4 1 .5 2.1.5 3.2-.1 1.1-.3 2.2-.8 3.2-.2.5-.5 1-.8 1.5l-1.2 1.2c-.9.7-1.8 1.1-2.9 1.4.9-.6 1.7-1.2 2.4-2 .7-.7 1.2-1.6 1.6-2.5.9-1.9 1.3-4 1.2-6z" class="st33"/><path d="M398.7 84s1.3-3.5 3.5-1.2c0 0 12.6 19.1 17.4 23.6" class="st34"/><path d="M384.4 106.1l9.4-16.4 2.8-14.5c.1-1-.3-1.9-1.1-2.6-3.9-4-7.5-2.5-9-1.2l-1.9 1.4c-1.3.9-3.6 3.7-1.7 12.1 0 0 .2 3.8-5.9 17 2.1 1.9 4.5 3.4 7.1 4.6" class="st27"/><path d="M428 34c.8-.8 1.3-1.8 1.4-2.9-.4 1-2.3 1.9-2.3 1.9l.9 1z" class="st33"/><path d="M377.1 101.9c6.1-13.3 6.4-16.8 6.4-16.8-1.9-8.6-.4-11.4 1-12.2l1.9-1.5c1.5-1.3 5.2-2.8 9.1 1.2" class="st34"/><path d="M425.7 34.4c.6-1 .8-2.1.7-3.3-.4 1-1 1.8-1.8 2.5l1.1.8zm-27.9 4.4c-1.1-.8-1.9-1.9-2.1-3.3.6 1.1 3.1 1.9 3.1 1.9l-1 1.4zm2.6-.8c-.9-.8-1.6-1.9-1.9-3.1.7.8 1.6 1.5 2.6 1.9l-.7 1.2z" class="st33"/><path d="M392.2 86.5c-6.2-2.5-6-5.8-4.2-8.3 2.1-2.8 5.3-4.5 8.8-4.6 1.3 0 2.5.1 3.8.5.8.3 1.5.9 2.1 1.5 3.5 4 20.3 23.2 24.5 25.7" class="st34"/><path d="M397.2 54.4c.8 8.6-3.1 11.5-3.1 11.5-.2.1-.3.3-.2.5.2 2.3 1.9 13.2 11.9 12.4 0 0 5.5-.3 6.2-8.1 0 0-3-2.1-1.3-8.6l-13.5-7.7z" class="st27"/><path d="M391.2 83.9s1.2 4.1 4.1 4.9c.5.1 1 0 1.5-.2 1.1-.5 2.2-1.2 3.1-2 .6-.6.6-1.5.1-2.1-.3-.3-.7-.5-1.2-.5-1.5-.2-2.8.8-3 2.3v.4m-1.4 1.8l-10.2 17.8" class="st34"/><path d="M410.7 57.7c.9.4 1.8.6 2.8.7" class="st35"/><path d="M397.2 58.5s5 8.6 13.3 9.4c0 0-.6-2.9 0-3.5.6-.5-10.4-3-13.3-5.9z" class="st36"/><circle cx="406.5" cy="42.8" r="1.2" class="st37"/><circle cx="407.3" cy="41.6" r=".8" class="st6"/><circle cx="423.9" cy="39.6" r="1.2" class="st37"/><circle cx="424.6" cy="38.4" r=".8" class="st6"/></svg>